<svg xmlns="http://www.w3.org/2000/svg" xmlns:xlink="http://www.w3.org/1999/xlink" width="1920" zoomAndPan="magnify" viewBox="0 0 1440 809.999993" height="1080" preserveAspectRatio="xMidYMid meet" version="1.0"><defs><filter x="0%" y="0%" width="100%" height="100%" id="77d3bcd6f6"><feColorMatrix values="0 0 0 0 1 0 0 0 0 1 0 0 0 0 1 0 0 0 1 0" color-interpolation-filters="sRGB"/></filter><g/><clipPath id="9d9f7904fe"><rect x="0" width="732" y="0" height="243"/></clipPath><clipPath id="3733d9a973"><path d="M 0 0 L 1440 0 L 1440 810 L 0 810 Z M 0 0 " clip-rule="nonzero"/></clipPath><linearGradient x1="-142.336081" gradientTransform="matrix(1.225085, 0, 0, 1.22507, 475.957422, 59.197167)" y1="859.039077" x2="775.971797" gradientUnits="userSpaceOnUse" y2="-59.268787" id="f9c114cb0e"><stop stop-opacity="1" stop-color="rgb(47.839355%, 17.248535%, 61.959839%)" offset="0"/><stop stop-opacity="1" stop-color="rgb(47.839355%, 17.248535%, 61.959839%)" offset="0.125"/><stop stop-opacity="1" stop-color="rgb(47.839355%, 17.248535%, 61.959839%)" offset="0.1875"/><stop stop-opacity="1" stop-color="rgb(47.839355%, 17.248535%, 61.959839%)" offset="0.21875"/><stop stop-opacity="1" stop-color="rgb(47.839355%, 17.248535%, 61.959839%)" offset="0.234375"/><stop stop-opacity="1" stop-color="rgb(47.839355%, 17.248535%, 61.959839%)" offset="0.242187"/><stop stop-opacity="1" stop-color="rgb(48.065186%, 17.346191%, 61.911011%)" offset="0.246094"/><stop stop-opacity="1" stop-color="rgb(48.291016%, 17.445374%, 61.863708%)" offset="0.25"/><stop stop-opacity="1" stop-color="rgb(48.748779%, 17.643738%, 61.766052%)" offset="0.253906"/><stop stop-opacity="1" stop-color="rgb(49.208069%, 17.843628%, 61.668396%)" offset="0.257812"/><stop stop-opacity="1" stop-color="rgb(49.667358%, 18.043518%, 61.57074%)" offset="0.261719"/><stop stop-opacity="1" stop-color="rgb(50.126648%, 18.243408%, 61.474609%)" offset="0.265625"/><stop stop-opacity="1" stop-color="rgb(50.585938%, 18.441772%, 61.376953%)" offset="0.269531"/><stop stop-opacity="1" stop-color="rgb(51.045227%, 18.641663%, 61.279297%)" offset="0.273438"/><stop stop-opacity="1" stop-color="rgb(51.502991%, 18.840027%, 61.181641%)" offset="0.277344"/><stop stop-opacity="1" stop-color="rgb(51.96228%, 19.039917%, 61.08551%)" offset="0.28125"/><stop stop-opacity="1" stop-color="rgb(52.42157%, 19.239807%, 60.987854%)" offset="0.285156"/><stop stop-opacity="1" stop-color="rgb(52.880859%, 19.439697%, 60.890198%)" offset="0.289062"/><stop stop-opacity="1" stop-color="rgb(53.338623%, 19.638062%, 60.792542%)" offset="0.292969"/><stop stop-opacity="1" stop-color="rgb(53.797913%, 19.837952%, 60.696411%)" offset="0.296875"/><stop stop-opacity="1" stop-color="rgb(54.257202%, 20.037842%, 60.598755%)" offset="0.300781"/><stop stop-opacity="1" stop-color="rgb(54.716492%, 20.237732%, 60.501099%)" offset="0.304688"/><stop stop-opacity="1" stop-color="rgb(55.174255%, 20.436096%, 60.403442%)" offset="0.308594"/><stop stop-opacity="1" stop-color="rgb(55.633545%, 20.635986%, 60.307312%)" offset="0.3125"/><stop stop-opacity="1" stop-color="rgb(56.092834%, 20.834351%, 60.209656%)" offset="0.316406"/><stop stop-opacity="1" stop-color="rgb(56.552124%, 21.034241%, 60.112%)" offset="0.320312"/><stop stop-opacity="1" stop-color="rgb(57.009888%, 21.234131%, 60.014343%)" offset="0.324219"/><stop stop-opacity="1" stop-color="rgb(57.469177%, 21.434021%, 59.918213%)" offset="0.328125"/><stop stop-opacity="1" stop-color="rgb(57.928467%, 21.632385%, 59.820557%)" offset="0.332031"/><stop stop-opacity="1" stop-color="rgb(58.387756%, 21.832275%, 59.7229%)" offset="0.335938"/><stop stop-opacity="1" stop-color="rgb(58.847046%, 22.03064%, 59.625244%)" offset="0.339844"/><stop stop-opacity="1" stop-color="rgb(59.306335%, 22.23053%, 59.529114%)" offset="0.34375"/><stop stop-opacity="1" stop-color="rgb(59.764099%, 22.43042%, 59.431458%)" offset="0.347656"/><stop stop-opacity="1" stop-color="rgb(60.223389%, 22.63031%, 59.333801%)" offset="0.351562"/><stop stop-opacity="1" stop-color="rgb(60.682678%, 22.828674%, 59.236145%)" offset="0.355469"/><stop stop-opacity="1" stop-color="rgb(61.141968%, 23.028564%, 59.140015%)" offset="0.359375"/><stop stop-opacity="1" stop-color="rgb(61.599731%, 23.226929%, 59.042358%)" offset="0.363281"/><stop stop-opacity="1" stop-color="rgb(62.059021%, 23.426819%, 58.944702%)" offset="0.367188"/><stop stop-opacity="1" stop-color="rgb(62.518311%, 23.626709%, 58.847046%)" offset="0.371094"/><stop stop-opacity="1" stop-color="rgb(62.9776%, 23.826599%, 58.750916%)" offset="0.375"/><stop stop-opacity="1" stop-color="rgb(63.435364%, 24.024963%, 58.653259%)" offset="0.378906"/><stop stop-opacity="1" stop-color="rgb(63.894653%, 24.224854%, 58.555603%)" offset="0.382812"/><stop stop-opacity="1" stop-color="rgb(64.353943%, 24.423218%, 58.457947%)" offset="0.386719"/><stop stop-opacity="1" stop-color="rgb(64.813232%, 24.623108%, 58.361816%)" offset="0.390625"/><stop stop-opacity="1" stop-color="rgb(65.272522%, 24.822998%, 58.26416%)" offset="0.394531"/><stop stop-opacity="1" stop-color="rgb(65.731812%, 25.022888%, 58.166504%)" offset="0.398438"/><stop stop-opacity="1" stop-color="rgb(66.189575%, 25.221252%, 58.068848%)" offset="0.402344"/><stop stop-opacity="1" stop-color="rgb(66.648865%, 25.421143%, 57.972717%)" offset="0.40625"/><stop stop-opacity="1" stop-color="rgb(67.108154%, 25.619507%, 57.875061%)" offset="0.410156"/><stop stop-opacity="1" stop-color="rgb(67.567444%, 25.819397%, 57.777405%)" offset="0.414062"/><stop stop-opacity="1" stop-color="rgb(68.025208%, 26.019287%, 57.679749%)" offset="0.417969"/><stop stop-opacity="1" stop-color="rgb(68.484497%, 26.219177%, 57.583618%)" offset="0.421875"/><stop stop-opacity="1" stop-color="rgb(68.943787%, 26.417542%, 57.485962%)" offset="0.425781"/><stop stop-opacity="1" stop-color="rgb(69.403076%, 26.617432%, 57.388306%)" offset="0.429688"/><stop stop-opacity="1" stop-color="rgb(69.86084%, 26.817322%, 57.290649%)" offset="0.433594"/><stop stop-opacity="1" stop-color="rgb(70.320129%, 27.017212%, 57.194519%)" offset="0.4375"/><stop stop-opacity="1" stop-color="rgb(70.779419%, 27.215576%, 57.096863%)" offset="0.441406"/><stop stop-opacity="1" stop-color="rgb(71.238708%, 27.415466%, 56.999207%)" offset="0.445313"/><stop stop-opacity="1" stop-color="rgb(71.696472%, 27.613831%, 56.90155%)" offset="0.449219"/><stop stop-opacity="1" stop-color="rgb(72.155762%, 27.813721%, 56.80542%)" offset="0.453125"/><stop stop-opacity="1" stop-color="rgb(72.615051%, 28.013611%, 56.707764%)" offset="0.457031"/><stop stop-opacity="1" stop-color="rgb(73.074341%, 28.213501%, 56.610107%)" offset="0.460938"/><stop stop-opacity="1" stop-color="rgb(73.53363%, 28.411865%, 56.512451%)" offset="0.464844"/><stop stop-opacity="1" stop-color="rgb(73.99292%, 28.611755%, 56.416321%)" offset="0.46875"/><stop stop-opacity="1" stop-color="rgb(74.450684%, 28.81012%, 56.318665%)" offset="0.472656"/><stop stop-opacity="1" stop-color="rgb(74.909973%, 29.01001%, 56.221008%)" offset="0.476562"/><stop stop-opacity="1" stop-color="rgb(75.369263%, 29.2099%, 56.123352%)" offset="0.480469"/><stop stop-opacity="1" stop-color="rgb(75.828552%, 29.40979%, 56.027222%)" offset="0.484375"/><stop stop-opacity="1" stop-color="rgb(76.286316%, 29.608154%, 55.929565%)" offset="0.488281"/><stop stop-opacity="1" stop-color="rgb(76.745605%, 29.808044%, 55.831909%)" offset="0.492188"/><stop stop-opacity="1" stop-color="rgb(77.204895%, 30.006409%, 55.734253%)" offset="0.496094"/><stop stop-opacity="1" stop-color="rgb(77.664185%, 30.206299%, 55.638123%)" offset="0.5"/><stop stop-opacity="1" stop-color="rgb(78.121948%, 30.406189%, 55.540466%)" offset="0.503906"/><stop stop-opacity="1" stop-color="rgb(78.581238%, 30.606079%, 55.44281%)" offset="0.507812"/><stop stop-opacity="1" stop-color="rgb(79.040527%, 30.804443%, 55.345154%)" offset="0.511719"/><stop stop-opacity="1" stop-color="rgb(79.499817%, 31.004333%, 55.249023%)" offset="0.515625"/><stop stop-opacity="1" stop-color="rgb(79.957581%, 31.202698%, 55.151367%)" offset="0.519531"/><stop stop-opacity="1" stop-color="rgb(80.41687%, 31.402588%, 55.053711%)" offset="0.523438"/><stop stop-opacity="1" stop-color="rgb(80.87616%, 31.602478%, 54.956055%)" offset="0.527344"/><stop stop-opacity="1" stop-color="rgb(81.335449%, 31.802368%, 54.859924%)" offset="0.53125"/><stop stop-opacity="1" stop-color="rgb(81.794739%, 32.000732%, 54.762268%)" offset="0.535156"/><stop stop-opacity="1" stop-color="rgb(82.254028%, 32.200623%, 54.664612%)" offset="0.539062"/><stop stop-opacity="1" stop-color="rgb(82.711792%, 32.398987%, 54.566956%)" offset="0.542969"/><stop stop-opacity="1" stop-color="rgb(83.171082%, 32.598877%, 54.470825%)" offset="0.546875"/><stop stop-opacity="1" stop-color="rgb(83.630371%, 32.798767%, 54.373169%)" offset="0.550781"/><stop stop-opacity="1" stop-color="rgb(84.089661%, 32.998657%, 54.275513%)" offset="0.554688"/><stop stop-opacity="1" stop-color="rgb(84.547424%, 33.197021%, 54.177856%)" offset="0.558594"/><stop stop-opacity="1" stop-color="rgb(85.006714%, 33.396912%, 54.081726%)" offset="0.5625"/><stop stop-opacity="1" stop-color="rgb(85.466003%, 33.595276%, 53.98407%)" offset="0.566406"/><stop stop-opacity="1" stop-color="rgb(85.925293%, 33.795166%, 53.886414%)" offset="0.570312"/><stop stop-opacity="1" stop-color="rgb(86.325073%, 34.072876%, 53.72467%)" offset="0.574219"/><stop stop-opacity="1" stop-color="rgb(86.726379%, 34.352112%, 53.562927%)" offset="0.578125"/><stop stop-opacity="1" stop-color="rgb(86.878967%, 34.968567%, 53.121948%)" offset="0.582031"/><stop stop-opacity="1" stop-color="rgb(87.033081%, 35.585022%, 52.682495%)" offset="0.585938"/><stop stop-opacity="1" stop-color="rgb(87.185669%, 36.201477%, 52.241516%)" offset="0.589844"/><stop stop-opacity="1" stop-color="rgb(87.338257%, 36.817932%, 51.800537%)" offset="0.59375"/><stop stop-opacity="1" stop-color="rgb(87.490845%, 37.434387%, 51.359558%)" offset="0.597656"/><stop stop-opacity="1" stop-color="rgb(87.644958%, 38.050842%, 50.920105%)" offset="0.601562"/><stop stop-opacity="1" stop-color="rgb(87.797546%, 38.667297%, 50.479126%)" offset="0.605469"/><stop stop-opacity="1" stop-color="rgb(87.950134%, 39.283752%, 50.039673%)" offset="0.609375"/><stop stop-opacity="1" stop-color="rgb(88.102722%, 39.900208%, 49.598694%)" offset="0.613281"/><stop stop-opacity="1" stop-color="rgb(88.256836%, 40.516663%, 49.159241%)" offset="0.617188"/><stop stop-opacity="1" stop-color="rgb(88.409424%, 41.133118%, 48.718262%)" offset="0.621094"/><stop stop-opacity="1" stop-color="rgb(88.562012%, 41.749573%, 48.277283%)" offset="0.625"/><stop stop-opacity="1" stop-color="rgb(88.7146%, 42.366028%, 47.836304%)" offset="0.628906"/><stop stop-opacity="1" stop-color="rgb(88.868713%, 42.982483%, 47.396851%)" offset="0.632812"/><stop stop-opacity="1" stop-color="rgb(89.021301%, 43.598938%, 46.955872%)" offset="0.636719"/><stop stop-opacity="1" stop-color="rgb(89.173889%, 44.215393%, 46.516418%)" offset="0.640625"/><stop stop-opacity="1" stop-color="rgb(89.326477%, 44.831848%, 46.075439%)" offset="0.644531"/><stop stop-opacity="1" stop-color="rgb(89.480591%, 45.448303%, 45.635986%)" offset="0.648438"/><stop stop-opacity="1" stop-color="rgb(89.633179%, 46.063232%, 45.195007%)" offset="0.652344"/><stop stop-opacity="1" stop-color="rgb(89.785767%, 46.679688%, 44.754028%)" offset="0.65625"/><stop stop-opacity="1" stop-color="rgb(89.938354%, 47.296143%, 44.313049%)" offset="0.660156"/><stop stop-opacity="1" stop-color="rgb(90.092468%, 47.912598%, 43.873596%)" offset="0.664062"/><stop stop-opacity="1" stop-color="rgb(90.245056%, 48.529053%, 43.432617%)" offset="0.667969"/><stop stop-opacity="1" stop-color="rgb(90.397644%, 49.145508%, 42.993164%)" offset="0.671875"/><stop stop-opacity="1" stop-color="rgb(90.550232%, 49.761963%, 42.552185%)" offset="0.675781"/><stop stop-opacity="1" stop-color="rgb(90.704346%, 50.378418%, 42.112732%)" offset="0.679687"/><stop stop-opacity="1" stop-color="rgb(90.856934%, 50.994873%, 41.671753%)" offset="0.683594"/><stop stop-opacity="1" stop-color="rgb(91.009521%, 51.611328%, 41.230774%)" offset="0.6875"/><stop stop-opacity="1" stop-color="rgb(91.162109%, 52.227783%, 40.789795%)" offset="0.691406"/><stop stop-opacity="1" stop-color="rgb(91.316223%, 52.844238%, 40.350342%)" offset="0.695312"/><stop stop-opacity="1" stop-color="rgb(91.468811%, 53.460693%, 39.909363%)" offset="0.699219"/><stop stop-opacity="1" stop-color="rgb(91.621399%, 54.077148%, 39.46991%)" offset="0.703125"/><stop stop-opacity="1" stop-color="rgb(91.773987%, 54.693604%, 39.028931%)" offset="0.707031"/><stop stop-opacity="1" stop-color="rgb(91.926575%, 55.310059%, 38.589478%)" offset="0.710938"/><stop stop-opacity="1" stop-color="rgb(92.079163%, 55.926514%, 38.148499%)" offset="0.714844"/><stop stop-opacity="1" stop-color="rgb(92.233276%, 56.542969%, 37.70752%)" offset="0.71875"/><stop stop-opacity="1" stop-color="rgb(92.385864%, 57.159424%, 37.266541%)" offset="0.722656"/><stop stop-opacity="1" stop-color="rgb(92.538452%, 57.775879%, 36.827087%)" offset="0.726562"/><stop stop-opacity="1" stop-color="rgb(92.69104%, 58.392334%, 36.386108%)" offset="0.730469"/><stop stop-opacity="1" stop-color="rgb(92.845154%, 59.008789%, 35.946655%)" offset="0.734375"/><stop stop-opacity="1" stop-color="rgb(92.997742%, 59.623718%, 35.505676%)" offset="0.738281"/><stop stop-opacity="1" stop-color="rgb(93.15033%, 60.240173%, 35.066223%)" offset="0.742188"/><stop stop-opacity="1" stop-color="rgb(93.302917%, 60.856628%, 34.625244%)" offset="0.746094"/><stop stop-opacity="1" stop-color="rgb(93.457031%, 61.473083%, 34.185791%)" offset="0.75"/><stop stop-opacity="1" stop-color="rgb(93.609619%, 62.089539%, 33.744812%)" offset="0.753906"/><stop stop-opacity="1" stop-color="rgb(93.762207%, 62.705994%, 33.303833%)" offset="0.757812"/><stop stop-opacity="1" stop-color="rgb(93.914795%, 63.322449%, 32.862854%)" offset="0.761719"/><stop stop-opacity="1" stop-color="rgb(94.068909%, 63.938904%, 32.423401%)" offset="0.765625"/><stop stop-opacity="1" stop-color="rgb(94.221497%, 64.555359%, 31.982422%)" offset="0.769531"/><stop stop-opacity="1" stop-color="rgb(94.374084%, 65.171814%, 31.542969%)" offset="0.773438"/><stop stop-opacity="1" stop-color="rgb(94.526672%, 65.788269%, 31.10199%)" offset="0.777344"/><stop stop-opacity="1" stop-color="rgb(94.680786%, 66.404724%, 30.662537%)" offset="0.78125"/><stop stop-opacity="1" stop-color="rgb(94.833374%, 67.021179%, 30.221558%)" offset="0.785156"/><stop stop-opacity="1" stop-color="rgb(94.985962%, 67.637634%, 29.780579%)" offset="0.789062"/><stop stop-opacity="1" stop-color="rgb(95.13855%, 68.254089%, 29.3396%)" offset="0.792969"/><stop stop-opacity="1" stop-color="rgb(95.292664%, 68.870544%, 28.900146%)" offset="0.796875"/><stop stop-opacity="1" stop-color="rgb(95.445251%, 69.487%, 28.459167%)" offset="0.800781"/><stop stop-opacity="1" stop-color="rgb(95.597839%, 70.103455%, 28.019714%)" offset="0.804688"/><stop stop-opacity="1" stop-color="rgb(95.750427%, 70.71991%, 27.578735%)" offset="0.808594"/><stop stop-opacity="1" stop-color="rgb(95.904541%, 71.336365%, 27.139282%)" offset="0.8125"/><stop stop-opacity="1" stop-color="rgb(96.057129%, 71.95282%, 26.698303%)" offset="0.816406"/><stop stop-opacity="1" stop-color="rgb(96.209717%, 72.569275%, 26.257324%)" offset="0.820313"/><stop stop-opacity="1" stop-color="rgb(96.362305%, 73.18573%, 25.816345%)" offset="0.824219"/><stop stop-opacity="1" stop-color="rgb(96.514893%, 73.802185%, 25.376892%)" offset="0.828125"/><stop stop-opacity="1" stop-color="rgb(96.66748%, 74.417114%, 24.935913%)" offset="0.832031"/><stop stop-opacity="1" stop-color="rgb(96.821594%, 75.033569%, 24.49646%)" offset="0.835938"/><stop stop-opacity="1" stop-color="rgb(96.974182%, 75.650024%, 24.055481%)" offset="0.839844"/><stop stop-opacity="1" stop-color="rgb(97.12677%, 76.266479%, 23.616028%)" offset="0.84375"/><stop stop-opacity="1" stop-color="rgb(97.279358%, 76.882935%, 23.175049%)" offset="0.847656"/><stop stop-opacity="1" stop-color="rgb(97.433472%, 77.49939%, 22.73407%)" offset="0.851562"/><stop stop-opacity="1" stop-color="rgb(97.58606%, 78.115845%, 22.293091%)" offset="0.855469"/><stop stop-opacity="1" stop-color="rgb(97.738647%, 78.7323%, 21.853638%)" offset="0.859375"/><stop stop-opacity="1" stop-color="rgb(97.891235%, 79.348755%, 21.412659%)" offset="0.863281"/><stop stop-opacity="1" stop-color="rgb(98.045349%, 79.96521%, 20.973206%)" offset="0.867188"/><stop stop-opacity="1" stop-color="rgb(98.197937%, 80.581665%, 20.532227%)" offset="0.871094"/><stop stop-opacity="1" stop-color="rgb(98.350525%, 81.19812%, 20.092773%)" offset="0.875"/><stop stop-opacity="1" stop-color="rgb(98.503113%, 81.814575%, 19.651794%)" offset="0.878906"/><stop stop-opacity="1" stop-color="rgb(98.657227%, 82.43103%, 19.212341%)" offset="0.882812"/><stop stop-opacity="1" stop-color="rgb(98.809814%, 83.047485%, 18.771362%)" offset="0.886719"/><stop stop-opacity="1" stop-color="rgb(98.962402%, 83.66394%, 18.330383%)" offset="0.890625"/><stop stop-opacity="1" stop-color="rgb(99.11499%, 84.280396%, 17.889404%)" offset="0.894531"/><stop stop-opacity="1" stop-color="rgb(99.269104%, 84.896851%, 17.449951%)" offset="0.898438"/><stop stop-opacity="1" stop-color="rgb(99.421692%, 85.513306%, 17.008972%)" offset="0.902344"/><stop stop-opacity="1" stop-color="rgb(99.57428%, 86.129761%, 16.569519%)" offset="0.90625"/><stop stop-opacity="1" stop-color="rgb(99.591064%, 86.198425%, 16.519165%)" offset="0.9375"/><stop stop-opacity="1" stop-color="rgb(99.609375%, 86.268616%, 16.468811%)" offset="1"/></linearGradient><clipPath id="f70a910b5b"><rect x="0" width="1440" y="0" height="810"/></clipPath><clipPath id="8624acf490"><rect x="0" width="1440" y="0" height="810"/></clipPath><clipPath id="696c15b086"><rect x="0" width="1440" y="0" height="810"/></clipPath><mask id="91f0fd08d7"><g filter="url(#77d3bcd6f6)"><g transform="matrix(1, 0, 0, 1, 0, 0.000000000000039746)"><g clip-path="url(#696c15b086)"><g transform="matrix(1, 0, 0, 1, 0, 0.000000000000039746)"><g clip-path="url(#8624acf490)"><g fill="#000000" fill-opacity="1"><g transform="translate(584.261449, 622.740408)"><g><path d="M -9.25 -132.875 C -0.382812 -140.570312 8.085938 -149.332031 16.171875 -159.15625 C 24.265625 -168.976562 32.738281 -177.929688 41.59375 -186.015625 C 45.0625 -188.328125 48.238281 -190.925781 51.125 -193.8125 C 54.007812 -196.707031 58.148438 -198.347656 63.546875 -198.734375 C 67.398438 -196.804688 69.226562 -193.144531 69.03125 -187.75 C 68.84375 -182.363281 68.171875 -176.488281 67.015625 -170.125 C 65.859375 -163.769531 65.085938 -157.316406 64.703125 -150.765625 C 64.316406 -144.222656 66.050781 -139.03125 69.90625 -135.1875 C 79.144531 -135.570312 87.035156 -137.878906 93.578125 -142.109375 C 100.128906 -146.347656 106.679688 -150.394531 113.234375 -154.25 C 121.316406 -159.632812 127.476562 -164.15625 131.71875 -167.8125 C 135.957031 -171.476562 139.226562 -174.273438 141.53125 -176.203125 C 143.84375 -178.128906 145.476562 -179.285156 146.4375 -179.671875 C 147.40625 -180.054688 148.46875 -179.863281 149.625 -179.09375 C 150.394531 -176.394531 149.816406 -174.5625 147.890625 -173.59375 C 145.960938 -172.632812 144.613281 -171.382812 143.84375 -169.84375 C 139.226562 -166.375 134.800781 -162.90625 130.5625 -159.4375 C 126.320312 -155.976562 121.703125 -152.707031 116.703125 -149.625 C 110.921875 -145.382812 104.660156 -141.335938 97.921875 -137.484375 C 91.179688 -133.640625 83.765625 -130.5625 75.671875 -128.25 L 69.328125 -128.25 C 68.554688 -128.632812 67.6875 -129.019531 66.71875 -129.40625 C 65.757812 -129.789062 64.894531 -130.175781 64.125 -130.5625 C 61.039062 -134.03125 59.113281 -138.171875 58.34375 -142.984375 C 57.570312 -147.796875 57.378906 -152.894531 57.765625 -158.28125 C 58.148438 -163.675781 58.820312 -169.257812 59.78125 -175.03125 C 60.75 -180.8125 61.234375 -186.015625 61.234375 -190.640625 C 53.535156 -186.398438 46.703125 -180.71875 40.734375 -173.59375 C 34.765625 -166.46875 28.890625 -159.632812 23.109375 -153.09375 C 18.867188 -148.46875 14.726562 -143.363281 10.6875 -137.78125 C 6.644531 -132.195312 2.695312 -127.382812 -1.15625 -123.34375 C -5.007812 -119.300781 -8.765625 -116.703125 -12.421875 -115.546875 C -16.078125 -114.390625 -19.253906 -115.925781 -21.953125 -120.15625 C -22.335938 -130.945312 -20.125 -141.441406 -15.3125 -151.640625 C -10.5 -161.847656 -4.625 -173.691406 2.3125 -187.171875 C 3.082031 -188.710938 4.140625 -190.925781 5.484375 -193.8125 C 6.835938 -196.707031 8.378906 -199.019531 10.109375 -200.75 C 11.835938 -202.476562 13.566406 -203.4375 15.296875 -203.625 C 17.035156 -203.820312 18.867188 -202.191406 20.796875 -198.734375 C 20.023438 -194.492188 18.769531 -190.832031 17.03125 -187.75 C 15.300781 -184.664062 13.472656 -181.203125 11.546875 -177.359375 C 8.859375 -168.878906 5.972656 -161.753906 2.890625 -155.984375 C 2.890625 -154.441406 2.3125 -153.765625 1.15625 -153.953125 C 0 -154.148438 -0.960938 -153.863281 -1.734375 -153.09375 C -2.890625 -149.625 -4.140625 -146.253906 -5.484375 -142.984375 C -6.835938 -139.710938 -8.09375 -136.34375 -9.25 -132.875 Z M -9.25 -132.875 "/></g></g></g><g fill="#000000" fill-opacity="1"><g transform="translate(729.843941, 622.740408)"><g><path d="M -6.359375 -143.265625 C 2.117188 -148.660156 9.535156 -154.726562 15.890625 -161.46875 C 22.242188 -168.207031 29.078125 -174.851562 36.390625 -181.40625 C 39.085938 -183.320312 41.398438 -185.4375 43.328125 -187.75 C 45.253906 -190.0625 48.335938 -191.601562 52.578125 -192.375 C 55.648438 -189.289062 56.414062 -185.628906 54.875 -181.390625 C 53.34375 -177.160156 52 -173.117188 50.84375 -169.265625 C 49.6875 -165.023438 48.53125 -160.785156 47.375 -156.546875 C 46.21875 -152.316406 46.601562 -148.082031 48.53125 -143.84375 C 55.84375 -143.84375 62.289062 -145.476562 67.875 -148.75 C 73.457031 -152.03125 78.945312 -155.210938 84.34375 -158.296875 C 89.738281 -161.367188 95.226562 -164.445312 100.8125 -167.53125 C 106.394531 -170.613281 111.882812 -173.890625 117.28125 -177.359375 C 118.8125 -178.128906 120.539062 -178.992188 122.46875 -179.953125 C 124.394531 -180.921875 126.128906 -180.441406 127.671875 -178.515625 C 127.671875 -176.203125 126.707031 -174.660156 124.78125 -173.890625 C 122.851562 -173.117188 121.117188 -172.347656 119.578125 -171.578125 C 111.878906 -167.335938 104.273438 -162.8125 96.765625 -158 C 89.253906 -153.1875 82.128906 -148.945312 75.390625 -145.28125 C 68.648438 -141.625 62.488281 -139.023438 56.90625 -137.484375 C 51.320312 -135.953125 46.796875 -136.53125 43.328125 -139.21875 C 41.398438 -142.6875 40.335938 -146.25 40.140625 -149.90625 C 39.953125 -153.570312 40.335938 -157.328125 41.296875 -161.171875 C 42.265625 -165.023438 43.421875 -168.78125 44.765625 -172.4375 C 46.117188 -176.101562 47.179688 -179.472656 47.953125 -182.546875 C 42.941406 -179.085938 38.222656 -174.945312 33.796875 -170.125 C 29.367188 -165.3125 24.84375 -160.789062 20.21875 -156.5625 C 15.59375 -151.164062 10.972656 -146.734375 6.359375 -143.265625 C 4.046875 -141.335938 1.734375 -139.21875 -0.578125 -136.90625 C -2.890625 -134.601562 -6.546875 -133.453125 -11.546875 -133.453125 C -11.546875 -133.835938 -11.929688 -134.03125 -12.703125 -134.03125 C -15.015625 -134.800781 -16.363281 -136.722656 -16.75 -139.796875 C -17.132812 -142.878906 -16.941406 -145.960938 -16.171875 -149.046875 C -13.472656 -157.898438 -10.101562 -165.789062 -6.0625 -172.71875 C -2.019531 -179.65625 2.503906 -186.207031 7.515625 -192.375 C 7.515625 -195.070312 8.378906 -197.382812 10.109375 -199.3125 C 11.835938 -201.238281 13.757812 -202.390625 15.875 -202.765625 C 18 -203.148438 19.925781 -202.765625 21.65625 -201.609375 C 23.394531 -200.460938 24.265625 -198.15625 24.265625 -194.6875 C 23.492188 -192.375 22.429688 -190.539062 21.078125 -189.1875 C 19.734375 -187.84375 18.289062 -186.398438 16.75 -184.859375 C 12.519531 -179.472656 8.671875 -173.796875 5.203125 -167.828125 C 1.734375 -161.859375 -1.539062 -155.789062 -4.625 -149.625 C -5.394531 -147.3125 -5.972656 -145.769531 -6.359375 -145 Z M 52.5625 -236.28125 C 48.707031 -234.351562 45.53125 -231.65625 43.03125 -228.1875 C 40.53125 -224.71875 36.96875 -222.40625 32.34375 -221.25 C 31.957031 -221.632812 31.378906 -221.828125 30.609375 -221.828125 C 29.453125 -224.523438 29.546875 -226.738281 30.890625 -228.46875 C 32.242188 -230.207031 33.691406 -231.65625 35.234375 -232.8125 C 37.929688 -236.269531 40.816406 -239.15625 43.890625 -241.46875 C 46.585938 -243.78125 49.765625 -246.671875 53.421875 -250.140625 C 57.085938 -253.609375 60.460938 -256.300781 63.546875 -258.21875 C 64.304688 -258.988281 65.550781 -259.085938 67.28125 -258.515625 C 69.019531 -257.941406 70.082031 -256.691406 70.46875 -254.765625 C 70.851562 -252.453125 69.890625 -250.523438 67.578125 -248.984375 C 65.273438 -247.441406 63.351562 -246.09375 61.8125 -244.9375 Z M 52.5625 -236.28125 "/></g></g></g><g fill="#000000" fill-opacity="1"><g transform="translate(853.473561, 622.740408)"><g><path d="M -9.25 -132.875 C -0.382812 -140.570312 8.085938 -149.332031 16.171875 -159.15625 C 24.265625 -168.976562 32.738281 -177.929688 41.59375 -186.015625 C 45.0625 -188.328125 48.238281 -190.925781 51.125 -193.8125 C 54.007812 -196.707031 58.148438 -198.347656 63.546875 -198.734375 C 67.398438 -196.804688 69.226562 -193.144531 69.03125 -187.75 C 68.84375 -182.363281 68.171875 -176.488281 67.015625 -170.125 C 65.859375 -163.769531 65.085938 -157.316406 64.703125 -150.765625 C 64.316406 -144.222656 66.050781 -139.03125 69.90625 -135.1875 C 79.144531 -135.570312 87.035156 -137.878906 93.578125 -142.109375 C 100.128906 -146.347656 106.679688 -150.394531 113.234375 -154.25 C 121.316406 -159.632812 127.476562 -164.15625 131.71875 -167.8125 C 135.957031 -171.476562 139.226562 -174.273438 141.53125 -176.203125 C 143.84375 -178.128906 145.476562 -179.285156 146.4375 -179.671875 C 147.40625 -180.054688 148.46875 -179.863281 149.625 -179.09375 C 150.394531 -176.394531 149.816406 -174.5625 147.890625 -173.59375 C 145.960938 -172.632812 144.613281 -171.382812 143.84375 -169.84375 C 139.226562 -166.375 134.800781 -162.90625 130.5625 -159.4375 C 126.320312 -155.976562 121.703125 -152.707031 116.703125 -149.625 C 110.921875 -145.382812 104.660156 -141.335938 97.921875 -137.484375 C 91.179688 -133.640625 83.765625 -130.5625 75.671875 -128.25 L 69.328125 -128.25 C 68.554688 -128.632812 67.6875 -129.019531 66.71875 -129.40625 C 65.757812 -129.789062 64.894531 -130.175781 64.125 -130.5625 C 61.039062 -134.03125 59.113281 -138.171875 58.34375 -142.984375 C 57.570312 -147.796875 57.378906 -152.894531 57.765625 -158.28125 C 58.148438 -163.675781 58.820312 -169.257812 59.78125 -175.03125 C 60.75 -180.8125 61.234375 -186.015625 61.234375 -190.640625 C 53.535156 -186.398438 46.703125 -180.71875 40.734375 -173.59375 C 34.765625 -166.46875 28.890625 -159.632812 23.109375 -153.09375 C 18.867188 -148.46875 14.726562 -143.363281 10.6875 -137.78125 C 6.644531 -132.195312 2.695312 -127.382812 -1.15625 -123.34375 C -5.007812 -119.300781 -8.765625 -116.703125 -12.421875 -115.546875 C -16.078125 -114.390625 -19.253906 -115.925781 -21.953125 -120.15625 C -22.335938 -130.945312 -20.125 -141.441406 -15.3125 -151.640625 C -10.5 -161.847656 -4.625 -173.691406 2.3125 -187.171875 C 3.082031 -188.710938 4.140625 -190.925781 5.484375 -193.8125 C 6.835938 -196.707031 8.378906 -199.019531 10.109375 -200.75 C 11.835938 -202.476562 13.566406 -203.4375 15.296875 -203.625 C 17.035156 -203.820312 18.867188 -202.191406 20.796875 -198.734375 C 20.023438 -194.492188 18.769531 -190.832031 17.03125 -187.75 C 15.300781 -184.664062 13.472656 -181.203125 11.546875 -177.359375 C 8.859375 -168.878906 5.972656 -161.753906 2.890625 -155.984375 C 2.890625 -154.441406 2.3125 -153.765625 1.15625 -153.953125 C 0 -154.148438 -0.960938 -153.863281 -1.734375 -153.09375 C -2.890625 -149.625 -4.140625 -146.253906 -5.484375 -142.984375 C -6.835938 -139.710938 -8.09375 -136.34375 -9.25 -132.875 Z M 91.28125 -258.234375 C 92.4375 -255.148438 91.859375 -252.550781 89.546875 -250.4375 C 87.234375 -248.320312 85.304688 -246.300781 83.765625 -244.375 C 81.453125 -242.445312 79.140625 -240.710938 76.828125 -239.171875 C 74.523438 -237.628906 72.023438 -236.28125 69.328125 -235.125 C 67.785156 -234.738281 65.085938 -234.546875 61.234375 -234.546875 C 57.003906 -236.472656 53.632812 -239.171875 51.125 -242.640625 C 48.625 -246.109375 45.832031 -249.378906 42.75 -252.453125 C 40.4375 -250.910156 38.507812 -248.984375 36.96875 -246.671875 C 35.425781 -244.367188 33.695312 -242.253906 31.78125 -240.328125 C 29.46875 -238.398438 27.734375 -236.085938 26.578125 -233.390625 C 25.421875 -230.691406 22.914062 -229.535156 19.0625 -229.921875 C 19.0625 -230.304688 18.484375 -230.5 17.328125 -230.5 C 15.398438 -234.738281 15.6875 -238.207031 18.1875 -240.90625 C 20.695312 -243.601562 22.914062 -246.101562 24.84375 -248.40625 C 28.695312 -253.414062 33.316406 -258.039062 38.703125 -262.28125 C 42.554688 -263.4375 45.539062 -263.144531 47.65625 -261.40625 C 49.78125 -259.675781 51.707031 -257.460938 53.4375 -254.765625 C 55.164062 -252.066406 56.894531 -249.46875 58.625 -246.96875 C 60.363281 -244.46875 62.773438 -243.21875 65.859375 -243.21875 C 69.328125 -242.832031 72.210938 -243.695312 74.515625 -245.8125 C 76.828125 -247.925781 79.332031 -249.753906 82.03125 -251.296875 C 83.570312 -252.453125 84.820312 -254.085938 85.78125 -256.203125 C 86.75 -258.328125 88.582031 -259.003906 91.28125 -258.234375 Z M 91.28125 -258.234375 "/></g></g></g><g fill="#000000" fill-opacity="1"><g transform="translate(999.056072, 622.740408)"><g><path d="M 136.34375 -180.25 C 135.570312 -176.78125 133.546875 -174.46875 130.265625 -173.3125 C 126.992188 -172.15625 124.203125 -170.613281 121.890625 -168.6875 C 114.191406 -163.289062 106.488281 -157.992188 98.78125 -152.796875 C 91.082031 -147.597656 83.1875 -142.304688 75.09375 -136.921875 C 68.550781 -132.296875 61.617188 -127.476562 54.296875 -122.46875 C 46.984375 -117.46875 39.570312 -113.132812 32.0625 -109.46875 C 24.550781 -105.8125 17.328125 -103.40625 10.390625 -102.25 C 3.460938 -101.09375 -3.082031 -102.441406 -9.25 -106.296875 C -12.707031 -108.992188 -15.015625 -112.84375 -16.171875 -117.84375 C -17.328125 -122.851562 -17.710938 -128.148438 -17.328125 -133.734375 C -16.941406 -139.316406 -15.878906 -144.613281 -14.140625 -149.625 C -12.410156 -154.632812 -10.585938 -158.867188 -8.671875 -162.328125 C -10.203125 -162.328125 -11.832031 -161.941406 -13.5625 -161.171875 C -15.300781 -160.410156 -16.554688 -160.988281 -17.328125 -162.90625 C -17.328125 -165.601562 -15.976562 -166.953125 -13.28125 -166.953125 C -10.59375 -166.953125 -8.285156 -167.335938 -6.359375 -168.109375 C -4.046875 -171.578125 -1.640625 -175.234375 0.859375 -179.078125 C 3.367188 -182.929688 5.96875 -186.59375 8.65625 -190.0625 C 11.351562 -193.53125 14.53125 -196.515625 18.1875 -199.015625 C 21.851562 -201.523438 26 -203.351562 30.625 -204.5 C 32.15625 -204.5 33.304688 -204.304688 34.078125 -203.921875 C 34.847656 -203.535156 35.617188 -202.960938 36.390625 -202.203125 L 38.125 -198.734375 C 36.195312 -189.097656 32.148438 -181.773438 25.984375 -176.765625 C 19.828125 -171.765625 12.707031 -167.722656 4.625 -164.640625 C 1.539062 -158.867188 -1.25 -152.898438 -3.75 -146.734375 C -6.257812 -140.578125 -7.320312 -133.066406 -6.9375 -124.203125 C -5.78125 -117.273438 -2.117188 -113.039062 4.046875 -111.5 C 12.128906 -111.882812 19.441406 -113.328125 25.984375 -115.828125 C 32.535156 -118.328125 38.507812 -121.210938 43.90625 -124.484375 C 49.300781 -127.765625 54.597656 -131.234375 59.796875 -134.890625 C 64.992188 -138.546875 70.476562 -141.914062 76.25 -145 C 83.570312 -150.007812 90.988281 -155.015625 98.5 -160.015625 C 106.007812 -165.023438 113.613281 -169.84375 121.3125 -174.46875 C 123.238281 -175.625 125.550781 -177.351562 128.25 -179.65625 C 130.945312 -181.96875 133.644531 -182.164062 136.34375 -180.25 Z M 10.40625 -173.3125 C 14.25 -176.394531 18.191406 -179.570312 22.234375 -182.84375 C 26.285156 -186.113281 28.695312 -190.445312 29.46875 -195.84375 C 25.226562 -193.144531 21.46875 -189.773438 18.1875 -185.734375 C 14.914062 -181.691406 12.320312 -177.550781 10.40625 -173.3125 Z M 10.40625 -173.3125 "/></g></g></g><g fill="#000000" fill-opacity="1"><g transform="translate(1127.884951, 622.740408)"><g><path d="M 71.0625 -118.421875 C 88 -128.441406 105.421875 -138.070312 123.328125 -147.3125 C 141.242188 -156.550781 159.445312 -165.601562 177.9375 -174.46875 C 179.863281 -175.625 182.171875 -177.066406 184.859375 -178.796875 C 187.554688 -180.535156 190.253906 -180.441406 192.953125 -178.515625 C 193.722656 -174.660156 192.375 -172.347656 188.90625 -171.578125 C 185.4375 -170.804688 182.742188 -169.648438 180.828125 -168.109375 C 162.722656 -158.867188 144.8125 -149.625 127.09375 -140.375 C 109.375 -131.132812 92.039062 -121.316406 75.09375 -110.921875 C 78.5625 -104.753906 81.257812 -97.335938 83.1875 -88.671875 C 85.113281 -80.003906 86.171875 -70.953125 86.359375 -61.515625 C 86.554688 -52.085938 85.882812 -42.847656 84.34375 -33.796875 C 82.800781 -24.742188 80.296875 -16.753906 76.828125 -9.828125 C 67.203125 12.128906 54.878906 31.484375 39.859375 48.234375 C 24.835938 64.992188 8.953125 78.957031 -7.796875 90.125 C -24.546875 101.289062 -41.296875 109.664062 -58.046875 115.25 C -74.804688 120.832031 -89.828125 123.332031 -103.109375 122.75 C -116.398438 122.175781 -127.085938 118.421875 -135.171875 111.484375 C -143.265625 104.554688 -146.734375 94.351562 -145.578125 80.875 C -145.191406 73.5625 -143.75 66.820312 -141.25 60.65625 C -138.75 54.5 -135.765625 48.816406 -132.296875 43.609375 C -128.828125 38.410156 -125.265625 33.40625 -121.609375 28.59375 C -117.953125 23.78125 -114.390625 19.0625 -110.921875 14.4375 C -85.890625 -10.976562 -58.546875 -33.796875 -28.890625 -54.015625 C 0.765625 -74.234375 31.191406 -93.972656 62.390625 -113.234375 C 60.460938 -117.460938 58.054688 -121.3125 55.171875 -124.78125 C 52.285156 -128.25 49.300781 -131.523438 46.21875 -134.609375 C 43.519531 -138.453125 40.34375 -141.816406 36.6875 -144.703125 C 33.03125 -147.597656 31.007812 -151.742188 30.625 -157.140625 C 30.625 -162.523438 32.738281 -167.144531 36.96875 -171 C 41.207031 -174.851562 44.867188 -178.507812 47.953125 -181.96875 C 51.796875 -186.207031 55.351562 -190.0625 58.625 -193.53125 C 61.90625 -197 64.507812 -200.847656 66.4375 -205.078125 C 61.425781 -203.921875 56.707031 -202.378906 52.28125 -200.453125 C 47.851562 -198.535156 43.519531 -196.421875 39.28125 -194.109375 C 35.039062 -191.796875 30.898438 -189.382812 26.859375 -186.875 C 22.816406 -184.375 19.253906 -181.585938 16.171875 -178.515625 C 13.085938 -177.742188 10.773438 -176.007812 9.234375 -173.3125 C 7.703125 -170.613281 5.007812 -169.070312 1.15625 -168.6875 C -1.925781 -169.84375 -3.5625 -171.382812 -3.75 -173.3125 C -3.945312 -175.238281 -3.367188 -177.257812 -2.015625 -179.375 C -0.671875 -181.488281 1.054688 -183.410156 3.171875 -185.140625 C 5.296875 -186.878906 7.128906 -188.132812 8.671875 -188.90625 C 11.359375 -190.832031 14.144531 -192.660156 17.03125 -194.390625 C 19.925781 -196.128906 22.914062 -197.960938 26 -199.890625 C 31.382812 -202.578125 37.347656 -205.941406 43.890625 -209.984375 C 50.441406 -214.035156 57.570312 -216.445312 65.28125 -217.21875 C 68.363281 -217.601562 71.15625 -217.21875 73.65625 -216.0625 C 76.15625 -214.90625 77.984375 -212.976562 79.140625 -210.28125 C 79.140625 -209.894531 79.332031 -209.703125 79.71875 -209.703125 C 79.332031 -203.160156 77.503906 -197.863281 74.234375 -193.8125 C 70.960938 -189.769531 67.207031 -185.632812 62.96875 -181.40625 C 61.039062 -179.476562 59.207031 -177.644531 57.46875 -175.90625 C 55.738281 -174.175781 53.722656 -172.347656 51.421875 -170.421875 C 49.492188 -168.492188 47.375 -166.46875 45.0625 -164.34375 C 42.75 -162.226562 41.59375 -160.019531 41.59375 -157.71875 C 41.59375 -155.789062 42.265625 -153.957031 43.609375 -152.21875 C 44.960938 -150.488281 46.503906 -148.851562 48.234375 -147.3125 C 49.972656 -145.769531 51.707031 -144.226562 53.4375 -142.6875 C 55.164062 -141.144531 56.222656 -139.609375 56.609375 -138.078125 C 59.691406 -135.378906 62.289062 -132.296875 64.40625 -128.828125 C 66.53125 -125.359375 68.75 -121.890625 71.0625 -118.421875 Z M 64.703125 -105.140625 C 34.660156 -86.265625 5.101562 -66.910156 -23.96875 -47.078125 C -53.050781 -27.242188 -79.722656 -5.003906 -103.984375 19.640625 C -111.304688 28.492188 -118.625 38.695312 -125.9375 50.25 C -133.257812 61.8125 -136.921875 73.367188 -136.921875 84.921875 C -137.304688 91.085938 -136.050781 96.382812 -133.15625 100.8125 C -130.269531 105.238281 -126.707031 108.414062 -122.46875 110.34375 C -115.539062 113.8125 -108.128906 115.445312 -100.234375 115.25 C -92.335938 115.0625 -84.441406 114.097656 -76.546875 112.359375 C -68.648438 110.628906 -61.234375 108.222656 -54.296875 105.140625 C -47.367188 102.054688 -41.398438 99.359375 -36.390625 97.046875 C -25.992188 91.660156 -15.5 85.019531 -4.90625 77.125 C 5.675781 69.226562 15.585938 60.367188 24.828125 50.546875 C 34.078125 40.722656 42.457031 30.226562 49.96875 19.0625 C 57.476562 7.894531 63.546875 -3.65625 68.171875 -15.59375 C 73.554688 -29.070312 76.441406 -44.285156 76.828125 -61.234375 C 77.210938 -78.179688 73.941406 -93.007812 67.015625 -105.71875 C 66.628906 -106.101562 66.4375 -106.296875 66.4375 -106.296875 C 66.050781 -106.296875 65.472656 -105.910156 64.703125 -105.140625 Z M 64.703125 -105.140625 "/></g></g></g><g fill="#000000" fill-opacity="1"><g transform="translate(1315.640202, 622.740408)"><g/></g></g></g></g></g></g></g></mask><clipPath id="82fdd48ea3"><path d="M 0 0 L 1440 0 L 1440 810 L 0 810 Z M 0 0 " clip-rule="nonzero"/></clipPath><clipPath id="d309baedc8"><rect x="0" width="1440" y="0" height="810"/></clipPath><clipPath id="29c7c31a81"><rect x="0" width="1440" y="0" height="810"/></clipPath><clipPath id="b9ab25c525"><rect x="0" width="517" y="0" height="389"/></clipPath><clipPath id="c54388818e"><rect x="0" width="1440" y="0" height="810"/></clipPath></defs><g transform="matrix(1, 0, 0, 1, 0, 0.000000000000039746)"><g clip-path="url(#c54388818e)"><g transform="matrix(1, 0, 0, 1, 213, 239)"><g clip-path="url(#9d9f7904fe)"><g fill="#545454" fill-opacity="1"><g transform="translate(1.049308, 171.197543)"><g><path d="M 185.1875 -3.6875 C 186.351562 -3.539062 186.898438 -2.890625 186.828125 -1.734375 C 186.753906 -0.578125 186.140625 0 184.984375 0 L 143.296875 0 C 142.140625 0 141.5625 -0.578125 141.5625 -1.734375 C 141.5625 -2.890625 142.066406 -3.539062 143.078125 -3.6875 C 145.535156 -4.125 147.773438 -4.414062 149.796875 -4.5625 C 151.828125 -4.707031 153.457031 -5.46875 154.6875 -6.84375 C 155.914062 -8.21875 156.53125 -10.785156 156.53125 -14.546875 L 156.53125 -72.296875 C 156.53125 -79.390625 154.175781 -84.597656 149.46875 -87.921875 C 144.769531 -91.253906 139.382812 -92.921875 133.3125 -92.921875 C 128.53125 -92.921875 123.820312 -91.90625 119.1875 -89.875 C 114.5625 -87.851562 110.726562 -84.890625 107.6875 -80.984375 C 104.644531 -77.078125 103.050781 -72.226562 102.90625 -66.4375 L 102.90625 -14.546875 C 102.90625 -10.785156 103.554688 -8.21875 104.859375 -6.84375 C 106.160156 -5.46875 107.859375 -4.707031 109.953125 -4.5625 C 112.054688 -4.414062 114.269531 -4.125 116.59375 -3.6875 C 117.75 -3.539062 118.289062 -2.890625 118.21875 -1.734375 C 118.144531 -0.578125 117.53125 0 116.375 0 L 74.6875 0 C 73.675781 0 73.132812 -0.578125 73.0625 -1.734375 C 72.988281 -2.890625 73.457031 -3.539062 74.46875 -3.6875 C 76.925781 -4.125 79.203125 -4.414062 81.296875 -4.5625 C 83.398438 -4.707031 85.066406 -5.46875 86.296875 -6.84375 C 87.523438 -8.21875 88.140625 -10.785156 88.140625 -14.546875 L 88.140625 -72.296875 C 88.140625 -79.390625 85.785156 -84.597656 81.078125 -87.921875 C 76.378906 -91.253906 70.992188 -92.921875 64.921875 -92.921875 C 60.140625 -92.921875 55.394531 -91.90625 50.6875 -89.875 C 45.988281 -87.851562 42.117188 -84.851562 39.078125 -80.875 C 36.035156 -76.894531 34.515625 -72.007812 34.515625 -66.21875 L 34.515625 -14.546875 C 34.515625 -10.785156 35.128906 -8.21875 36.359375 -6.84375 C 37.597656 -5.46875 39.265625 -4.707031 41.359375 -4.5625 C 43.453125 -4.414062 45.734375 -4.125 48.203125 -3.6875 C 49.210938 -3.539062 49.71875 -2.890625 49.71875 -1.734375 C 49.71875 -0.578125 49.140625 0 47.984375 0 L 6.078125 0 C 5.066406 0 4.523438 -0.578125 4.453125 -1.734375 C 4.378906 -2.890625 4.847656 -3.539062 5.859375 -3.6875 C 8.316406 -4.125 10.59375 -4.414062 12.6875 -4.5625 C 14.789062 -4.707031 16.457031 -5.46875 17.6875 -6.84375 C 18.925781 -8.21875 19.546875 -10.785156 19.546875 -14.546875 L 19.546875 -77.078125 C 19.546875 -80.984375 19.289062 -83.734375 18.78125 -85.328125 C 18.269531 -86.921875 17.179688 -87.859375 15.515625 -88.140625 C 13.859375 -88.429688 11.289062 -88.578125 7.8125 -88.578125 C 6.800781 -88.578125 6.148438 -89.117188 5.859375 -90.203125 C 5.566406 -91.296875 6.289062 -92.054688 8.03125 -92.484375 C 12.082031 -93.640625 16.171875 -94.867188 20.296875 -96.171875 C 24.421875 -97.484375 28.296875 -99.003906 31.921875 -100.734375 C 32.492188 -101.023438 33.066406 -101.097656 33.640625 -100.953125 C 34.222656 -100.804688 34.515625 -100.375 34.515625 -99.65625 L 34.515625 -83.15625 C 38.285156 -89.226562 43.351562 -93.75 49.71875 -96.71875 C 56.082031 -99.6875 62.597656 -101.171875 69.265625 -101.171875 C 76.492188 -101.171875 83.21875 -99.429688 89.4375 -95.953125 C 95.664062 -92.484375 99.722656 -87.347656 101.609375 -80.546875 C 105.222656 -87.347656 110.429688 -92.445312 117.234375 -95.84375 C 124.035156 -99.25 130.984375 -100.953125 138.078125 -100.953125 C 143.867188 -100.953125 149.296875 -99.863281 154.359375 -97.6875 C 159.429688 -95.519531 163.554688 -92.335938 166.734375 -88.140625 C 169.921875 -83.941406 171.515625 -78.660156 171.515625 -72.296875 L 171.515625 -14.546875 C 171.515625 -10.785156 172.128906 -8.21875 173.359375 -6.84375 C 174.585938 -5.46875 176.25 -4.707031 178.34375 -4.5625 C 180.445312 -4.414062 182.726562 -4.125 185.1875 -3.6875 Z M 185.1875 -3.6875 "/></g></g></g><g fill="#545454" fill-opacity="1"><g transform="translate(187.97412, 171.197543)"><g><path d="M 192.578125 -94.65625 C 196.335938 -91.613281 198.363281 -88.71875 198.65625 -85.96875 C 198.945312 -83.21875 198.296875 -80.9375 196.703125 -79.125 C 195.109375 -77.320312 193.226562 -76.421875 191.0625 -76.421875 C 189.46875 -76.421875 187.945312 -77 186.5 -78.15625 C 185.050781 -79.3125 183.960938 -81.191406 183.234375 -83.796875 C 181.648438 -89.734375 176.734375 -92.703125 168.484375 -92.703125 C 160.660156 -92.703125 153.707031 -91.21875 147.625 -88.25 C 141.550781 -85.28125 136.050781 -81.476562 131.125 -76.84375 C 126.207031 -72.21875 121.429688 -67.300781 116.796875 -62.09375 C 112.171875 -56.882812 107.285156 -51.960938 102.140625 -47.328125 C 97.003906 -42.691406 91.320312 -38.890625 85.09375 -35.921875 C 78.875 -32.960938 71.640625 -31.484375 63.390625 -31.484375 C 50.796875 -31.484375 40.84375 -34.195312 33.53125 -39.625 C 26.226562 -45.050781 21.421875 -51.3125 19.109375 -58.40625 C 19.253906 -57.820312 19.363281 -57.273438 19.4375 -56.765625 C 19.507812 -56.265625 19.613281 -55.796875 19.75 -55.359375 C 19.320312 -48.992188 19.6875 -42.660156 20.84375 -36.359375 C 22 -30.066406 23.988281 -24.316406 26.8125 -19.109375 C 29.632812 -13.898438 33.253906 -9.738281 37.671875 -6.625 C 42.085938 -3.507812 47.332031 -1.953125 53.40625 -1.953125 C 61.945312 -1.953125 68.859375 -4.847656 74.140625 -10.640625 C 79.421875 -16.429688 83.148438 -23.453125 85.328125 -31.703125 C 88.941406 -33.429688 92.554688 -35.53125 96.171875 -38 C 97.765625 -39.15625 99.070312 -39.734375 100.09375 -39.734375 C 102.113281 -39.734375 102.691406 -38.066406 101.828125 -34.734375 C 100.234375 -28.078125 97.335938 -21.960938 93.140625 -16.390625 C 88.941406 -10.816406 83.550781 -6.328125 76.96875 -2.921875 C 70.382812 0.472656 62.53125 2.171875 53.40625 2.171875 C 43.851562 2.171875 35.675781 0.328125 28.875 -3.359375 C 22.070312 -7.054688 16.609375 -11.976562 12.484375 -18.125 C 8.359375 -24.28125 5.609375 -31.046875 4.234375 -38.421875 C 2.859375 -45.804688 2.859375 -53.148438 4.234375 -60.453125 C 5.609375 -67.765625 8.359375 -74.5 12.484375 -80.65625 C 16.609375 -86.8125 22.070312 -91.734375 28.875 -95.421875 C 35.675781 -99.109375 43.851562 -100.953125 53.40625 -100.953125 C 63.539062 -100.953125 72.117188 -98.890625 79.140625 -94.765625 C 86.160156 -90.640625 91.660156 -85.210938 95.640625 -78.484375 C 99.617188 -71.753906 102.113281 -64.550781 103.125 -56.875 C 106.164062 -59.914062 109.171875 -63.132812 112.140625 -66.53125 C 115.109375 -69.9375 118.109375 -73.234375 121.140625 -76.421875 L 121.140625 -76.859375 C 121.140625 -80.765625 120.882812 -83.550781 120.375 -85.21875 C 119.875 -86.882812 118.789062 -87.859375 117.125 -88.140625 C 115.46875 -88.429688 112.898438 -88.578125 109.421875 -88.578125 C 108.410156 -88.578125 107.757812 -89.082031 107.46875 -90.09375 C 107.175781 -91.113281 107.898438 -91.835938 109.640625 -92.265625 C 113.691406 -93.429688 117.78125 -94.664062 121.90625 -95.96875 C 126.03125 -97.269531 129.898438 -98.785156 133.515625 -100.515625 C 134.097656 -100.804688 134.675781 -100.914062 135.25 -100.84375 C 135.832031 -100.769531 136.125 -100.375 136.125 -99.65625 L 136.125 -89.890625 C 140.613281 -93.210938 145.460938 -95.882812 150.671875 -97.90625 C 155.878906 -99.9375 161.816406 -100.953125 168.484375 -100.953125 C 173.835938 -100.953125 178.46875 -100.515625 182.375 -99.640625 C 186.28125 -98.773438 189.679688 -97.113281 192.578125 -94.65625 Z M 87.28125 -44.296875 C 87.707031 -50.660156 87.34375 -56.953125 86.1875 -63.171875 C 85.03125 -69.398438 83.039062 -75.046875 80.21875 -80.109375 C 77.394531 -85.179688 73.738281 -89.234375 69.25 -92.265625 C 64.769531 -95.304688 59.488281 -96.828125 53.40625 -96.828125 C 53.257812 -96.828125 53.1875 -96.828125 53.1875 -96.828125 C 53.1875 -96.828125 53.113281 -96.828125 52.96875 -96.828125 L 51.890625 -96.609375 C 51.890625 -96.609375 51.851562 -96.609375 51.78125 -96.609375 C 51.707031 -96.609375 51.597656 -96.609375 51.453125 -96.609375 C 51.304688 -96.609375 51.195312 -96.609375 51.125 -96.609375 C 51.050781 -96.609375 50.875 -96.609375 50.59375 -96.609375 L 49.28125 -96.390625 C 49.132812 -96.390625 48.988281 -96.390625 48.84375 -96.390625 C 48.695312 -96.390625 48.554688 -96.390625 48.421875 -96.390625 C 47.835938 -96.242188 47.179688 -96.097656 46.453125 -95.953125 C 45.734375 -95.816406 45.015625 -95.675781 44.296875 -95.53125 C 38.359375 -93.789062 33.722656 -90.75 30.390625 -86.40625 C 27.066406 -82.0625 25.148438 -77.140625 24.640625 -71.640625 C 24.128906 -66.140625 25.140625 -60.820312 27.671875 -55.6875 C 30.210938 -50.550781 34.445312 -46.316406 40.375 -42.984375 C 46.3125 -39.660156 53.984375 -38 63.390625 -38 C 68.023438 -38 72.296875 -38.578125 76.203125 -39.734375 C 80.109375 -40.890625 83.800781 -42.410156 87.28125 -44.296875 Z M 149.8125 -3.46875 C 150.820312 -3.320312 151.328125 -2.671875 151.328125 -1.515625 C 151.328125 -0.359375 150.75 0.21875 149.59375 0.21875 L 107.6875 0.21875 C 106.675781 0.21875 106.132812 -0.359375 106.0625 -1.515625 C 105.988281 -2.671875 106.457031 -3.320312 107.46875 -3.46875 C 109.925781 -3.90625 112.203125 -4.195312 114.296875 -4.34375 C 116.398438 -4.488281 118.066406 -5.25 119.296875 -6.625 C 120.523438 -8 121.140625 -10.566406 121.140625 -14.328125 L 121.140625 -64.703125 C 123.316406 -66.722656 124.984375 -68.273438 126.140625 -69.359375 C 127.296875 -70.453125 128.597656 -71.648438 130.046875 -72.953125 C 131.492188 -74.109375 132.722656 -74.6875 133.734375 -74.6875 C 135.328125 -74.6875 136.125 -73.382812 136.125 -70.78125 L 136.125 -14.328125 C 136.125 -10.566406 136.738281 -8 137.96875 -6.625 C 139.195312 -5.25 140.859375 -4.488281 142.953125 -4.34375 C 145.054688 -4.195312 147.34375 -3.90625 149.8125 -3.46875 Z M 149.8125 -3.46875 "/></g></g></g><g fill="#545454" fill-opacity="1"><g transform="translate(399.865662, 171.197543)"><g><path d="M 215.8125 -3.90625 C 216.820312 -3.757812 217.328125 -3.109375 217.328125 -1.953125 C 217.328125 -0.796875 216.75 -0.21875 215.59375 -0.21875 L 200.609375 -0.21875 C 194.671875 -0.21875 190.941406 -1.59375 189.421875 -4.34375 C 187.898438 -7.09375 187.140625 -10.421875 187.140625 -14.328125 C 187.140625 -24.753906 187.140625 -34.453125 187.140625 -43.421875 C 187.140625 -52.390625 187.140625 -62.085938 187.140625 -72.515625 C 187.140625 -79.171875 184.96875 -84.160156 180.625 -87.484375 C 176.289062 -90.816406 171.15625 -92.703125 165.21875 -93.140625 C 157.976562 -93.140625 151.789062 -91.4375 146.65625 -88.03125 C 141.519531 -84.632812 136.960938 -80.148438 132.984375 -74.578125 C 129.003906 -69.003906 125.273438 -62.851562 121.796875 -56.125 C 118.328125 -49.394531 114.742188 -42.695312 111.046875 -36.03125 C 107.359375 -29.375 103.160156 -23.257812 98.453125 -17.6875 C 93.753906 -12.113281 88.179688 -7.625 81.734375 -4.21875 C 75.296875 -0.820312 67.59375 0.875 58.625 0.875 C 58.039062 0.875 57.457031 0.875 56.875 0.875 C 56.300781 0.875 55.648438 0.875 54.921875 0.875 C 46.816406 0.875 38.960938 -0.789062 31.359375 -4.125 C 23.765625 -7.457031 17.472656 -12.847656 12.484375 -20.296875 C 7.492188 -27.753906 4.851562 -37.632812 4.5625 -49.9375 C 4.5625 -60.070312 6.441406 -69.007812 10.203125 -76.75 C 13.960938 -84.488281 19.390625 -90.566406 26.484375 -94.984375 C 33.578125 -99.398438 42.046875 -101.609375 51.890625 -101.609375 L 53.84375 -101.609375 C 62.8125 -101.316406 70.550781 -99.253906 77.0625 -95.421875 C 83.582031 -91.585938 88.613281 -86.375 92.15625 -79.78125 C 95.707031 -73.195312 97.484375 -65.632812 97.484375 -57.09375 C 97.484375 -55.21875 96.90625 -53.59375 95.75 -52.21875 C 94.59375 -50.84375 92.78125 -50.15625 90.3125 -50.15625 L 21.28125 -50.15625 C 21.28125 -39.445312 23.085938 -30.757812 26.703125 -24.09375 C 30.316406 -17.4375 34.984375 -12.625 40.703125 -9.65625 C 46.421875 -6.6875 52.394531 -5.273438 58.625 -5.421875 C 66.289062 -5.421875 72.945312 -7.050781 78.59375 -10.3125 C 84.238281 -13.570312 89.234375 -17.878906 93.578125 -23.234375 C 97.921875 -28.585938 101.898438 -34.519531 105.515625 -41.03125 C 109.128906 -47.539062 112.675781 -54.054688 116.15625 -60.578125 L 116.15625 -77.296875 C 116.15625 -81.203125 115.898438 -83.945312 115.390625 -85.53125 C 114.890625 -87.125 113.804688 -88.066406 112.140625 -88.359375 C 110.472656 -88.648438 107.898438 -88.796875 104.421875 -88.796875 C 103.410156 -88.796875 102.757812 -89.335938 102.46875 -90.421875 C 102.1875 -91.503906 102.910156 -92.265625 104.640625 -92.703125 C 108.554688 -93.859375 112.609375 -95.085938 116.796875 -96.390625 C 120.992188 -97.691406 124.90625 -99.210938 128.53125 -100.953125 C 129.101562 -101.242188 129.679688 -101.316406 130.265625 -101.171875 C 130.847656 -101.023438 131.140625 -100.59375 131.140625 -99.875 L 131.140625 -83.59375 C 135.335938 -88.800781 140.1875 -93.066406 145.6875 -96.390625 C 151.1875 -99.722656 157.695312 -101.390625 165.21875 -101.390625 C 171.445312 -101.679688 177.378906 -100.773438 183.015625 -98.671875 C 188.660156 -96.578125 193.253906 -93.359375 196.796875 -89.015625 C 200.347656 -84.671875 202.125 -79.171875 202.125 -72.515625 C 202.125 -62.816406 202.125 -53.191406 202.125 -43.640625 C 202.125 -34.085938 202.125 -24.460938 202.125 -14.765625 C 202.125 -11.003906 202.738281 -8.4375 203.96875 -7.0625 C 205.195312 -5.6875 206.859375 -4.925781 208.953125 -4.78125 C 211.054688 -4.632812 213.34375 -4.34375 215.8125 -3.90625 Z M 53.84375 -95.3125 C 43.28125 -95.019531 35.425781 -91.328125 30.28125 -84.234375 C 25.144531 -77.140625 22.21875 -67.804688 21.5 -56.234375 L 71.640625 -56.234375 C 75.835938 -56.234375 78.804688 -57.132812 80.546875 -58.9375 C 82.285156 -60.75 83.15625 -63.46875 83.15625 -67.09375 C 83.300781 -71.863281 82.25 -76.382812 80 -80.65625 C 77.757812 -84.925781 74.429688 -88.4375 70.015625 -91.1875 C 65.597656 -93.9375 60.207031 -95.3125 53.84375 -95.3125 Z M 144.8125 -3.90625 C 145.820312 -3.757812 146.328125 -3.109375 146.328125 -1.953125 C 146.328125 -0.796875 145.75 -0.21875 144.59375 -0.21875 L 102.6875 -0.21875 C 101.675781 -0.21875 101.132812 -0.796875 101.0625 -1.953125 C 100.988281 -3.109375 101.457031 -3.757812 102.46875 -3.90625 C 104.9375 -4.34375 107.21875 -4.632812 109.3125 -4.78125 C 111.414062 -4.925781 113.082031 -5.6875 114.3125 -7.0625 C 115.539062 -8.4375 116.15625 -11.003906 116.15625 -14.765625 L 116.15625 -38.21875 C 117.75 -41.394531 119.335938 -44.539062 120.921875 -47.65625 C 122.515625 -50.769531 124.109375 -53.773438 125.703125 -56.671875 C 126.578125 -57.972656 127.59375 -58.625 128.75 -58.625 C 130.34375 -58.625 131.140625 -57.535156 131.140625 -55.359375 L 131.140625 -14.765625 C 131.140625 -11.003906 131.753906 -8.4375 132.984375 -7.0625 C 134.210938 -5.6875 135.875 -4.925781 137.96875 -4.78125 C 140.070312 -4.632812 142.351562 -4.34375 144.8125 -3.90625 Z M 144.8125 -3.90625 "/></g></g></g><g fill="#545454" fill-opacity="1"><g transform="translate(621.526775, 171.197543)"><g><path d="M 54.5 -101.171875 C 64.050781 -101.171875 72.265625 -99.289062 79.140625 -95.53125 C 86.015625 -91.769531 91.515625 -86.847656 95.640625 -80.765625 C 99.765625 -74.679688 102.476562 -67.945312 103.78125 -60.5625 C 105.082031 -53.1875 105.082031 -45.804688 103.78125 -38.421875 C 102.476562 -31.046875 99.765625 -24.316406 95.640625 -18.234375 C 91.515625 -12.160156 86.015625 -7.238281 79.140625 -3.46875 C 72.265625 0.289062 64.050781 2.171875 54.5 2.171875 C 44.945312 2.171875 36.765625 0.289062 29.953125 -3.46875 C 23.148438 -7.238281 17.6875 -12.160156 13.5625 -18.234375 C 9.4375 -24.316406 6.6875 -31.046875 5.3125 -38.421875 C 3.9375 -45.804688 3.9375 -53.1875 5.3125 -60.5625 C 6.6875 -67.945312 9.4375 -74.679688 13.5625 -80.765625 C 17.6875 -86.847656 23.148438 -91.769531 29.953125 -95.53125 C 36.765625 -99.289062 44.945312 -101.171875 54.5 -101.171875 Z M 54.5 -2.171875 C 61.007812 -2.171875 66.539062 -3.867188 71.09375 -7.265625 C 75.65625 -10.671875 79.347656 -15.195312 82.171875 -20.84375 C 84.992188 -26.488281 86.875 -32.675781 87.8125 -39.40625 C 88.757812 -46.132812 88.757812 -52.863281 87.8125 -59.59375 C 86.875 -66.320312 85.03125 -72.507812 82.28125 -78.15625 C 79.53125 -83.800781 75.835938 -88.320312 71.203125 -91.71875 C 66.578125 -95.125 61.007812 -96.828125 54.5 -96.828125 C 47.976562 -96.828125 42.398438 -95.125 37.765625 -91.71875 C 33.140625 -88.320312 29.453125 -83.800781 26.703125 -78.15625 C 23.953125 -72.507812 22.101562 -66.320312 21.15625 -59.59375 C 20.21875 -52.863281 20.21875 -46.132812 21.15625 -39.40625 C 22.101562 -32.675781 23.988281 -26.488281 26.8125 -20.84375 C 29.632812 -15.195312 33.320312 -10.671875 37.875 -7.265625 C 42.4375 -3.867188 47.976562 -2.171875 54.5 -2.171875 Z M 54.5 -2.171875 "/></g></g></g><g fill="#545454" fill-opacity="1"><g transform="translate(730.73001, 171.197543)"><g/></g></g></g></g><g transform="matrix(1, 0, 0, 1, 0, 0.000000000000039746)"><g clip-path="url(#29c7c31a81)"><g mask="url(#91f0fd08d7)"><g transform="matrix(1, 0, 0, 1, 0, 0.000000000000039746)"><g clip-path="url(#d309baedc8)"><g clip-path="url(#82fdd48ea3)"><rect x="-772.992" fill="url(#f9c114cb0e)" width="2985.984" height="1679.615985" y="-434.807996"/></g></g></g></g></g></g><g transform="matrix(1, 0, 0, 1, 217, 18)"><g clip-path="url(#b9ab25c525)"><g fill="#545454" fill-opacity="1"><g transform="translate(1.210094, 273.926869)"><g><path d="M 343.5625 -5.90625 C 345.414062 -5.675781 346.285156 -4.632812 346.171875 -2.78125 C 346.054688 -0.925781 345.070312 0 343.21875 0 L 319.21875 0 C 309.71875 0 303.75 -2.257812 301.3125 -6.78125 C 298.875 -11.300781 297.65625 -16.578125 297.65625 -22.609375 C 297.65625 -39.296875 297.65625 -54.882812 297.65625 -69.375 C 297.65625 -83.863281 297.65625 -99.335938 297.65625 -115.796875 C 297.65625 -123.679688 295.6875 -130.40625 291.75 -135.96875 C 287.8125 -141.53125 282.769531 -145.816406 276.625 -148.828125 C 270.476562 -151.835938 263.8125 -153.226562 256.625 -153 C 244.101562 -153 232.972656 -150.21875 223.234375 -144.65625 C 213.503906 -139.09375 204.753906 -131.675781 196.984375 -122.40625 C 189.222656 -113.132812 181.863281 -102.988281 174.90625 -91.96875 C 167.957031 -80.957031 160.945312 -69.890625 153.875 -58.765625 C 146.800781 -47.640625 139.148438 -37.4375 130.921875 -28.15625 C 122.691406 -18.882812 113.414062 -11.46875 103.09375 -5.90625 C 92.78125 -0.34375 80.898438 2.4375 67.453125 2.4375 C 53.316406 3.59375 41.492188 1.96875 31.984375 -2.4375 C 22.484375 -6.84375 15.238281 -12.8125 10.25 -20.34375 C 5.269531 -27.875 2.664062 -35.984375 2.4375 -44.671875 C 2.207031 -53.367188 4.289062 -61.660156 8.6875 -69.546875 C 13.09375 -77.429688 19.757812 -83.921875 28.6875 -89.015625 C 37.613281 -94.117188 48.800781 -96.671875 62.25 -96.671875 C 73.375 -96.671875 82.585938 -95.046875 89.890625 -91.796875 C 97.191406 -88.554688 102.925781 -85.140625 107.09375 -81.546875 C 111.269531 -77.953125 114.285156 -75.457031 116.140625 -74.0625 L 116.140625 -118.578125 C 116.140625 -126.691406 114.109375 -133.296875 110.046875 -138.390625 C 105.992188 -143.492188 100.835938 -147.257812 94.578125 -149.6875 C 88.316406 -152.125 81.597656 -153.34375 74.421875 -153.34375 C 65.140625 -153.34375 56.675781 -151.609375 49.03125 -148.140625 C 42.3125 -144.660156 38.660156 -139.960938 38.078125 -134.046875 C 37.492188 -128.140625 38.25 -122.867188 40.34375 -118.234375 C 42.882812 -112.429688 42.765625 -107.789062 39.984375 -104.3125 C 37.203125 -100.84375 33.84375 -99.109375 29.90625 -99.109375 C 26.65625 -99.109375 23.640625 -100.5 20.859375 -103.28125 C 18.078125 -106.0625 16.570312 -110.582031 16.34375 -116.84375 C 16.34375 -119.15625 16.921875 -122.050781 18.078125 -125.53125 C 18.078125 -125.757812 18.078125 -125.875 18.078125 -125.875 C 18.078125 -125.875 18.078125 -125.992188 18.078125 -126.234375 C 18.546875 -127.160156 18.894531 -127.96875 19.125 -128.65625 C 19.351562 -129.582031 19.816406 -130.507812 20.515625 -131.4375 C 20.984375 -132.601562 21.445312 -133.648438 21.90625 -134.578125 C 22.375 -135.503906 22.953125 -136.429688 23.640625 -137.359375 C 24.335938 -138.515625 25.035156 -139.5 25.734375 -140.3125 C 26.429688 -141.125 27.125 -141.992188 27.8125 -142.921875 C 28.050781 -143.148438 28.171875 -143.265625 28.171875 -143.265625 C 28.171875 -143.265625 28.285156 -143.378906 28.515625 -143.609375 C 30.140625 -145.234375 31.414062 -146.394531 32.34375 -147.09375 C 38.601562 -152.425781 45.960938 -156.363281 54.421875 -158.90625 C 62.878906 -161.457031 71.398438 -162.734375 79.984375 -162.734375 C 90.179688 -162.734375 99.800781 -161.050781 108.84375 -157.6875 C 117.882812 -154.332031 125.300781 -149.410156 131.09375 -142.921875 C 136.894531 -136.429688 139.796875 -128.316406 139.796875 -118.578125 L 139.796875 -55.296875 C 147.210938 -65.953125 154.394531 -77.132812 161.34375 -88.84375 C 168.300781 -100.550781 175.953125 -111.625 184.296875 -122.0625 L 184.296875 -123.453125 C 184.296875 -129.703125 183.890625 -134.160156 183.078125 -136.828125 C 182.265625 -139.492188 180.46875 -141.054688 177.6875 -141.515625 C 174.90625 -141.984375 170.734375 -142.21875 165.171875 -142.21875 C 163.546875 -142.21875 162.5 -143.03125 162.03125 -144.65625 C 161.570312 -146.28125 162.734375 -147.441406 165.515625 -148.140625 C 172.015625 -149.992188 178.566406 -151.960938 185.171875 -154.046875 C 191.773438 -156.128906 197.972656 -158.5625 203.765625 -161.34375 C 204.691406 -161.8125 205.617188 -161.988281 206.546875 -161.875 C 207.472656 -161.757812 207.9375 -161.117188 207.9375 -159.953125 L 207.9375 -145 C 215.125 -150.332031 223.125 -154.617188 231.9375 -157.859375 C 240.75 -161.109375 250.601562 -162.734375 261.5 -162.734375 C 271.695312 -163.203125 281.375 -161.753906 290.53125 -158.390625 C 299.6875 -155.023438 307.160156 -149.804688 312.953125 -142.734375 C 318.753906 -135.671875 321.65625 -126.691406 321.65625 -115.796875 C 321.65625 -100.492188 321.65625 -85.132812 321.65625 -69.71875 C 321.65625 -54.300781 321.65625 -38.828125 321.65625 -23.296875 C 321.65625 -17.265625 322.640625 -13.148438 324.609375 -10.953125 C 326.578125 -8.753906 329.242188 -7.535156 332.609375 -7.296875 C 335.972656 -7.066406 339.625 -6.601562 343.5625 -5.90625 Z M 229.859375 -5.90625 C 231.710938 -5.675781 232.578125 -4.632812 232.453125 -2.78125 C 232.335938 -0.925781 231.351562 0 229.5 0 L 162.734375 0 C 160.878906 0 159.953125 -0.925781 159.953125 -2.78125 C 159.953125 -4.632812 160.765625 -5.675781 162.390625 -5.90625 C 166.328125 -6.601562 169.921875 -7.066406 173.171875 -7.296875 C 176.421875 -7.535156 179.085938 -8.753906 181.171875 -10.953125 C 183.253906 -13.148438 184.296875 -17.265625 184.296875 -23.296875 L 184.296875 -92.84375 C 188.234375 -99.5625 192.40625 -105.820312 196.8125 -111.625 C 198.90625 -114.175781 200.992188 -115.453125 203.078125 -115.453125 C 206.316406 -115.453125 207.9375 -112.898438 207.9375 -107.796875 L 207.9375 -23.296875 C 207.9375 -17.265625 208.921875 -13.148438 210.890625 -10.953125 C 212.867188 -8.753906 215.535156 -7.535156 218.890625 -7.296875 C 222.253906 -7.066406 225.910156 -6.601562 229.859375 -5.90625 Z M 116.140625 -27.46875 L 116.140625 -60.15625 C 111.046875 -67.570312 104.554688 -73.25 96.671875 -77.1875 C 88.785156 -81.132812 80.785156 -83.109375 72.671875 -83.109375 C 60.390625 -83.109375 50.65625 -80.613281 43.46875 -75.625 C 36.28125 -70.644531 31.523438 -64.445312 29.203125 -57.03125 C 26.890625 -49.613281 26.832031 -42.132812 29.03125 -34.59375 C 31.238281 -27.0625 35.585938 -20.800781 42.078125 -15.8125 C 48.566406 -10.832031 57.023438 -8.34375 67.453125 -8.34375 C 77.660156 -8.34375 86.703125 -10.082031 94.578125 -13.5625 C 102.460938 -17.039062 109.648438 -21.675781 116.140625 -27.46875 Z M 147.4375 -5.90625 C 149.289062 -5.90625 150.332031 -5.09375 150.5625 -3.46875 C 150.800781 -1.851562 149.992188 -0.8125 148.140625 -0.34375 C 144.660156 0.582031 140.832031 1.046875 136.65625 1.046875 C 132.945312 1.046875 129.46875 0.410156 126.21875 -0.859375 C 122.976562 -2.140625 120.429688 -4.632812 118.578125 -8.34375 C 118.578125 -8.570312 119.503906 -9.554688 121.359375 -11.296875 C 123.210938 -13.035156 125.179688 -14.890625 127.265625 -16.859375 C 129.359375 -18.835938 130.632812 -20.054688 131.09375 -20.515625 C 132.71875 -22.140625 134.457031 -22.953125 136.3125 -22.953125 C 138.632812 -22.953125 139.796875 -21.5625 139.796875 -18.78125 C 139.796875 -12.289062 140.257812 -8.519531 141.1875 -7.46875 C 142.113281 -6.425781 144.195312 -5.90625 147.4375 -5.90625 Z M 147.4375 -5.90625 "/></g></g></g><g fill="#545454" fill-opacity="1"><g transform="translate(354.50809, 273.926869)"><g><path d="M 151.265625 -5.5625 C 153.117188 -5.5625 154.101562 -4.75 154.21875 -3.125 C 154.332031 -1.507812 153.460938 -0.46875 151.609375 0 C 147.441406 1.15625 143.382812 1.734375 139.4375 1.734375 C 133.644531 1.734375 128.429688 0.34375 123.796875 -2.4375 C 119.160156 -5.21875 116.84375 -10.429688 116.84375 -18.078125 C 116.84375 -21.097656 116.84375 -24.054688 116.84375 -26.953125 C 116.84375 -29.847656 116.84375 -32.6875 116.84375 -35.46875 C 112.894531 -25.039062 105.9375 -16 95.96875 -8.34375 C 86 -0.695312 72.320312 3.125 54.9375 3.125 C 39.40625 3.125 27.523438 -0.929688 19.296875 -9.046875 C 11.066406 -17.160156 6.953125 -26.203125 6.953125 -36.171875 C 6.953125 -46.597656 9.617188 -55.113281 14.953125 -61.71875 C 20.285156 -68.332031 27.066406 -73.429688 35.296875 -77.015625 C 43.523438 -80.609375 52.332031 -83.21875 61.71875 -84.84375 C 71.113281 -86.46875 79.984375 -87.515625 88.328125 -87.984375 C 96.441406 -88.441406 103.222656 -88.726562 108.671875 -88.84375 C 114.117188 -88.957031 116.84375 -89.597656 116.84375 -90.765625 C 116.84375 -95.398438 116.84375 -99.976562 116.84375 -104.5 C 116.84375 -109.019531 116.84375 -113.597656 116.84375 -118.234375 C 116.84375 -126.347656 114.8125 -132.953125 110.75 -138.046875 C 106.695312 -143.148438 101.539062 -146.914062 95.28125 -149.34375 C 89.019531 -151.78125 82.296875 -153 75.109375 -153 C 65.835938 -153 57.375 -151.257812 49.71875 -147.78125 C 42.769531 -144.3125 39.0625 -139.617188 38.59375 -133.703125 C 38.132812 -127.796875 38.945312 -122.519531 41.03125 -117.875 C 43.582031 -112.082031 43.46875 -107.445312 40.6875 -103.96875 C 37.90625 -100.488281 34.539062 -98.75 30.59375 -98.75 C 27.351562 -98.75 24.34375 -100.140625 21.5625 -102.921875 C 18.78125 -105.710938 17.269531 -110.234375 17.03125 -116.484375 C 17.03125 -118.804688 17.613281 -121.707031 18.78125 -125.1875 C 18.78125 -125.414062 18.78125 -125.53125 18.78125 -125.53125 C 18.78125 -125.53125 18.78125 -125.644531 18.78125 -125.875 C 19.007812 -126.34375 19.179688 -126.75 19.296875 -127.09375 C 19.410156 -127.445312 19.585938 -127.738281 19.828125 -127.96875 C 20.285156 -129.59375 20.921875 -131.210938 21.734375 -132.828125 C 22.546875 -134.453125 23.414062 -135.84375 24.34375 -137 C 25.039062 -138.164062 25.734375 -139.15625 26.421875 -139.96875 C 27.117188 -140.78125 27.816406 -141.648438 28.515625 -142.578125 C 28.742188 -142.804688 28.972656 -142.921875 29.203125 -142.921875 C 29.671875 -143.847656 30.25 -144.597656 30.9375 -145.171875 C 31.632812 -145.753906 32.332031 -146.28125 33.03125 -146.75 C 39.289062 -152.070312 46.648438 -156.007812 55.109375 -158.5625 C 63.578125 -161.113281 72.097656 -162.390625 80.671875 -162.390625 C 90.867188 -162.390625 100.488281 -160.707031 109.53125 -157.34375 C 118.570312 -153.988281 125.988281 -149.0625 131.78125 -142.5625 C 137.582031 -136.070312 140.484375 -127.960938 140.484375 -118.234375 C 140.484375 -102.929688 140.484375 -86.988281 140.484375 -70.40625 C 140.484375 -53.832031 140.484375 -37.78125 140.484375 -22.25 C 140.484375 -15.0625 141.46875 -10.484375 143.4375 -8.515625 C 145.40625 -6.546875 148.015625 -5.5625 151.265625 -5.5625 Z M 62.25 -8 C 67.582031 -8 73.316406 -8.925781 79.453125 -10.78125 C 85.597656 -12.632812 91.453125 -15.9375 97.015625 -20.6875 C 102.578125 -25.4375 107.210938 -31.925781 110.921875 -40.15625 C 114.628906 -48.394531 116.601562 -58.769531 116.84375 -71.28125 C 116.84375 -73.132812 116.84375 -74.988281 116.84375 -76.84375 C 116.84375 -78.695312 116.84375 -80.4375 116.84375 -82.0625 C 109.425781 -82.0625 100.960938 -81.65625 91.453125 -80.84375 C 81.953125 -80.03125 72.851562 -78.175781 64.15625 -75.28125 C 55.457031 -72.382812 48.269531 -67.804688 42.59375 -61.546875 C 36.914062 -55.285156 34.078125 -46.707031 34.078125 -35.8125 C 34.078125 -28.164062 36.625 -21.617188 41.71875 -16.171875 C 46.820312 -10.722656 53.664062 -8 62.25 -8 Z M 62.25 -8 "/></g></g></g><g fill="#545454" fill-opacity="1"><g transform="translate(515.878525, 273.926869)"><g/></g></g></g></g></g></g><g fill="#5f705f" fill-opacity="1"><g transform="translate(237.575972, 690.220881)"><g><path d="M 14.65625 -6.953125 C 14.65625 -5.585938 14.894531 -4.195312 15.375 -2.78125 C 15.851562 -1.375 16.828125 -0.445312 18.296875 0 L 2.625 0 C 3.414062 -0.226562 4.035156 -0.59375 4.484375 -1.09375 C 4.941406 -1.601562 5.3125 -2.179688 5.59375 -2.828125 C 5.875 -3.484375 6.054688 -4.175781 6.140625 -4.90625 C 6.222656 -5.644531 6.265625 -6.351562 6.265625 -7.03125 L 6.265625 -35.0625 C 6.265625 -36.363281 6.023438 -37.660156 5.546875 -38.953125 C 5.066406 -40.253906 4.09375 -41.101562 2.625 -41.5 L 18.21875 -41.5 C 16.75 -41.050781 15.785156 -40.191406 15.328125 -38.921875 C 14.878906 -37.648438 14.65625 -36.363281 14.65625 -35.0625 L 14.65625 -31.671875 L 14.5625 -24.8125 L 14.5625 -16.9375 C 16.9375 -16.9375 19.015625 -17.441406 20.796875 -18.453125 C 22.578125 -19.472656 24.054688 -20.816406 25.234375 -22.484375 C 26.421875 -24.148438 27.3125 -26.023438 27.90625 -28.109375 C 28.5 -30.203125 28.796875 -32.320312 28.796875 -34.46875 C 28.796875 -37.6875 28.382812 -40.59375 27.5625 -43.1875 C 26.75 -45.789062 25.523438 -48.023438 23.890625 -49.890625 C 22.253906 -51.753906 20.191406 -53.191406 17.703125 -54.203125 C 15.210938 -55.222656 12.304688 -55.734375 8.984375 -55.734375 C 5.191406 -55.734375 1.773438 -55.023438 -1.265625 -53.609375 C -4.316406 -52.203125 -6.914062 -50.285156 -9.0625 -47.859375 C -11.207031 -45.429688 -12.84375 -42.609375 -13.96875 -39.390625 C -15.101562 -36.171875 -15.671875 -32.722656 -15.671875 -29.046875 C -15.671875 -26.222656 -15.273438 -23.457031 -14.484375 -20.75 C -13.691406 -18.039062 -12.519531 -15.625 -10.96875 -13.5 C -9.414062 -11.382812 -7.46875 -9.675781 -5.125 -8.375 C -2.78125 -7.082031 -0.0234375 -6.4375 3.140625 -6.4375 L 3.140625 -5.671875 C -0.253906 -5.671875 -3.40625 -6.375 -6.3125 -7.78125 C -9.21875 -9.195312 -11.710938 -11.078125 -13.796875 -13.421875 C -15.890625 -15.765625 -17.53125 -18.460938 -18.71875 -21.515625 C -19.90625 -24.566406 -20.5 -27.726562 -20.5 -31 C -20.5 -34.894531 -19.675781 -38.410156 -18.03125 -41.546875 C -16.394531 -44.679688 -14.222656 -47.363281 -11.515625 -49.59375 C -8.804688 -51.820312 -5.710938 -53.539062 -2.234375 -54.75 C 1.234375 -55.96875 4.773438 -56.578125 8.390625 -56.578125 C 11.722656 -56.578125 15.082031 -56.164062 18.46875 -55.34375 C 21.851562 -54.53125 24.914062 -53.234375 27.65625 -51.453125 C 30.394531 -49.671875 32.625 -47.410156 34.34375 -44.671875 C 36.070312 -41.941406 36.9375 -38.628906 36.9375 -34.734375 C 36.9375 -31.515625 36.3125 -28.742188 35.0625 -26.421875 C 33.820312 -24.109375 32.171875 -22.203125 30.109375 -20.703125 C 28.046875 -19.210938 25.671875 -18.097656 22.984375 -17.359375 C 20.304688 -16.628906 17.53125 -16.265625 14.65625 -16.265625 Z M 14.65625 -6.953125 "/></g></g></g><g fill="#5f705f" fill-opacity="1"><g transform="translate(274.675724, 690.220881)"><g><path d="M 44.890625 -20.75 C 44.890625 -17.875 44.335938 -15.164062 43.234375 -12.625 C 42.140625 -10.082031 40.644531 -7.863281 38.75 -5.96875 C 36.863281 -4.082031 34.648438 -2.585938 32.109375 -1.484375 C 29.566406 -0.378906 26.851562 0.171875 23.96875 0.171875 C 21.09375 0.171875 18.382812 -0.378906 15.84375 -1.484375 C 13.300781 -2.585938 11.082031 -4.082031 9.1875 -5.96875 C 7.300781 -7.863281 5.804688 -10.082031 4.703125 -12.625 C 3.597656 -15.164062 3.046875 -17.875 3.046875 -20.75 C 3.046875 -23.632812 3.597656 -26.347656 4.703125 -28.890625 C 5.804688 -31.429688 7.300781 -33.644531 9.1875 -35.53125 C 11.082031 -37.425781 13.300781 -38.921875 15.84375 -40.015625 C 18.382812 -41.117188 21.09375 -41.671875 23.96875 -41.671875 C 26.851562 -41.671875 29.566406 -41.117188 32.109375 -40.015625 C 34.648438 -38.921875 36.863281 -37.425781 38.75 -35.53125 C 40.644531 -33.644531 42.140625 -31.429688 43.234375 -28.890625 C 44.335938 -26.347656 44.890625 -23.632812 44.890625 -20.75 Z M 12.53125 -21.765625 C 12.53125 -20.078125 12.785156 -18.015625 13.296875 -15.578125 C 13.804688 -13.148438 14.582031 -10.820312 15.625 -8.59375 C 16.664062 -6.363281 17.976562 -4.457031 19.5625 -2.875 C 21.144531 -1.300781 22.984375 -0.515625 25.078125 -0.515625 C 27.109375 -0.515625 28.828125 -1.21875 30.234375 -2.625 C 31.648438 -4.039062 32.78125 -5.75 33.625 -7.75 C 34.46875 -9.75 35.085938 -11.847656 35.484375 -14.046875 C 35.878906 -16.253906 36.078125 -18.148438 36.078125 -19.734375 C 36.078125 -21.597656 35.835938 -23.742188 35.359375 -26.171875 C 34.878906 -28.597656 34.117188 -30.910156 33.078125 -33.109375 C 32.035156 -35.316406 30.679688 -37.179688 29.015625 -38.703125 C 27.347656 -40.234375 25.359375 -41 23.046875 -41 C 21.117188 -41 19.488281 -40.265625 18.15625 -38.796875 C 16.832031 -37.328125 15.75 -35.578125 14.90625 -33.546875 C 14.0625 -31.515625 13.453125 -29.410156 13.078125 -27.234375 C 12.710938 -25.054688 12.53125 -23.234375 12.53125 -21.765625 Z M 12.53125 -21.765625 "/></g></g></g><g fill="#5f705f" fill-opacity="1"><g transform="translate(318.382288, 690.220881)"><g><path d="M 15.078125 -9.3125 C 15.078125 -8.46875 15.078125 -7.566406 15.078125 -6.609375 C 15.078125 -5.648438 15.1875 -4.742188 15.40625 -3.890625 C 15.632812 -3.046875 15.988281 -2.269531 16.46875 -1.5625 C 16.945312 -0.863281 17.695312 -0.34375 18.71875 0 L 3.046875 0 C 4.515625 -0.507812 5.472656 -1.453125 5.921875 -2.828125 C 6.378906 -4.210938 6.609375 -5.585938 6.609375 -6.953125 L 6.609375 -35.0625 C 6.609375 -36.414062 6.378906 -37.710938 5.921875 -38.953125 C 5.472656 -40.203125 4.515625 -41.050781 3.046875 -41.5 L 18.375 -41.5 C 20.414062 -41.5 22.4375 -41.285156 24.4375 -40.859375 C 26.4375 -40.441406 28.238281 -39.738281 29.84375 -38.75 C 31.457031 -37.757812 32.773438 -36.457031 33.796875 -34.84375 C 34.816406 -33.238281 35.328125 -31.253906 35.328125 -28.890625 C 35.328125 -25.554688 34.460938 -22.882812 32.734375 -20.875 C 31.015625 -18.875 28.601562 -17.394531 25.5 -16.4375 C 26.113281 -15.300781 26.816406 -13.898438 27.609375 -12.234375 C 28.398438 -10.566406 29.300781 -8.925781 30.3125 -7.3125 C 31.332031 -5.707031 32.445312 -4.226562 33.65625 -2.875 C 34.875 -1.519531 36.191406 -0.5625 37.609375 0 L 26 0 L 17.109375 -16.265625 L 15 -16.265625 L 15 -14.5625 L 15.078125 -11.015625 Z M 15.078125 -16.9375 L 16.9375 -16.9375 C 18.75 -16.9375 20.316406 -17.242188 21.640625 -17.859375 C 22.960938 -18.484375 24.046875 -19.316406 24.890625 -20.359375 C 25.742188 -21.410156 26.378906 -22.671875 26.796875 -24.140625 C 27.222656 -25.609375 27.4375 -27.191406 27.4375 -28.890625 C 27.4375 -32.441406 26.644531 -35.316406 25.0625 -37.515625 C 23.488281 -39.722656 20.78125 -40.828125 16.9375 -40.828125 L 15.078125 -40.828125 Z M 15.078125 -16.9375 "/></g></g></g><g fill="#5f705f" fill-opacity="1"><g transform="translate(352.940868, 690.220881)"><g><path d="M 26.59375 -6.953125 C 26.59375 -5.535156 26.816406 -4.160156 27.265625 -2.828125 C 27.722656 -1.503906 28.6875 -0.5625 30.15625 0 L 14.5625 0 C 16.09375 -0.507812 17.066406 -1.441406 17.484375 -2.796875 C 17.910156 -4.148438 18.125 -5.535156 18.125 -6.953125 L 18.296875 -40.0625 C 16.828125 -40.0625 15.34375 -39.890625 13.84375 -39.546875 C 12.351562 -39.210938 10.925781 -38.707031 9.5625 -38.03125 C 8.207031 -37.351562 6.96875 -36.503906 5.84375 -35.484375 C 4.71875 -34.472656 3.785156 -33.289062 3.046875 -31.9375 L 4.484375 -41.5 L 40.234375 -41.5 L 41.765625 -32.015625 C 41.140625 -33.148438 40.257812 -34.207031 39.125 -35.1875 C 38 -36.175781 36.757812 -37.023438 35.40625 -37.734375 C 34.050781 -38.441406 32.648438 -39.003906 31.203125 -39.421875 C 29.765625 -39.847656 28.398438 -40.0625 27.109375 -40.0625 L 26.59375 -40.0625 Z M 26.59375 -6.953125 "/></g></g></g><g fill="#5f705f" fill-opacity="1"><g transform="translate(384.280569, 690.220881)"><g><path d="M 10 -4.15625 C 10 -3.019531 10.320312 -2.128906 10.96875 -1.484375 C 11.613281 -0.835938 12.421875 -0.34375 13.390625 0 L 3.046875 0 C 4.398438 -0.445312 5.628906 -1.164062 6.734375 -2.15625 C 7.835938 -3.144531 8.671875 -4.316406 9.234375 -5.671875 L 23.96875 -42.015625 L 39.21875 -5.59375 C 39.726562 -4.351562 40.460938 -3.222656 41.421875 -2.203125 C 42.378906 -1.179688 43.507812 -0.445312 44.8125 0 L 27.359375 0 C 28.148438 -0.28125 28.84375 -0.859375 29.4375 -1.734375 C 30.03125 -2.609375 30.328125 -3.46875 30.328125 -4.3125 C 30.328125 -4.820312 30.15625 -5.554688 29.8125 -6.515625 C 29.476562 -7.484375 29.070312 -8.503906 28.59375 -9.578125 C 28.113281 -10.648438 27.644531 -11.675781 27.1875 -12.65625 C 26.738281 -13.644531 26.398438 -14.425781 26.171875 -15 L 13.8125 -15 C 13.53125 -14.257812 13.160156 -13.421875 12.703125 -12.484375 C 12.253906 -11.554688 11.832031 -10.597656 11.4375 -9.609375 C 11.039062 -8.617188 10.703125 -7.644531 10.421875 -6.6875 C 10.140625 -5.726562 10 -4.882812 10 -4.15625 Z M 14.0625 -15.671875 L 25.828125 -15.671875 L 19.828125 -29.984375 Z M 14.0625 -15.671875 "/></g></g></g><g fill="#5f705f" fill-opacity="1"><g transform="translate(429.257702, 690.220881)"><g><path d="M 15 -7.109375 C 15 -5.703125 15.222656 -4.289062 15.671875 -2.875 C 16.117188 -1.46875 17.109375 -0.507812 18.640625 0 L 2.96875 0 C 4.488281 -0.507812 5.472656 -1.441406 5.921875 -2.796875 C 6.378906 -4.148438 6.609375 -5.535156 6.609375 -6.953125 L 6.609375 -35.0625 C 6.609375 -36.414062 6.367188 -37.710938 5.890625 -38.953125 C 5.410156 -40.203125 4.4375 -41.050781 2.96875 -41.5 L 34.390625 -41.5 L 36.671875 -30.75 C 34.585938 -34.414062 31.820312 -37.007812 28.375 -38.53125 C 24.925781 -40.0625 21.171875 -40.828125 17.109375 -40.828125 L 15 -40.828125 L 15 -21.4375 C 16.125 -21.4375 17.25 -21.585938 18.375 -21.890625 C 19.507812 -22.203125 20.570312 -22.65625 21.5625 -23.25 C 22.550781 -23.84375 23.425781 -24.5625 24.1875 -25.40625 C 24.945312 -26.257812 25.492188 -27.25 25.828125 -28.375 L 25.828125 -14.3125 C 25.492188 -15.382812 24.945312 -16.328125 24.1875 -17.140625 C 23.425781 -17.960938 22.535156 -18.640625 21.515625 -19.171875 C 20.492188 -19.710938 19.421875 -20.109375 18.296875 -20.359375 C 17.171875 -20.617188 16.097656 -20.75 15.078125 -20.75 L 15 -20.75 Z M 15 -7.109375 "/></g></g></g><g fill="#5f705f" fill-opacity="1"><g transform="translate(464.070422, 690.220881)"><g><path d="M 44.890625 -20.75 C 44.890625 -17.875 44.335938 -15.164062 43.234375 -12.625 C 42.140625 -10.082031 40.644531 -7.863281 38.75 -5.96875 C 36.863281 -4.082031 34.648438 -2.585938 32.109375 -1.484375 C 29.566406 -0.378906 26.851562 0.171875 23.96875 0.171875 C 21.09375 0.171875 18.382812 -0.378906 15.84375 -1.484375 C 13.300781 -2.585938 11.082031 -4.082031 9.1875 -5.96875 C 7.300781 -7.863281 5.804688 -10.082031 4.703125 -12.625 C 3.597656 -15.164062 3.046875 -17.875 3.046875 -20.75 C 3.046875 -23.632812 3.597656 -26.347656 4.703125 -28.890625 C 5.804688 -31.429688 7.300781 -33.644531 9.1875 -35.53125 C 11.082031 -37.425781 13.300781 -38.921875 15.84375 -40.015625 C 18.382812 -41.117188 21.09375 -41.671875 23.96875 -41.671875 C 26.851562 -41.671875 29.566406 -41.117188 32.109375 -40.015625 C 34.648438 -38.921875 36.863281 -37.425781 38.75 -35.53125 C 40.644531 -33.644531 42.140625 -31.429688 43.234375 -28.890625 C 44.335938 -26.347656 44.890625 -23.632812 44.890625 -20.75 Z M 12.53125 -21.765625 C 12.53125 -20.078125 12.785156 -18.015625 13.296875 -15.578125 C 13.804688 -13.148438 14.582031 -10.820312 15.625 -8.59375 C 16.664062 -6.363281 17.976562 -4.457031 19.5625 -2.875 C 21.144531 -1.300781 22.984375 -0.515625 25.078125 -0.515625 C 27.109375 -0.515625 28.828125 -1.21875 30.234375 -2.625 C 31.648438 -4.039062 32.78125 -5.75 33.625 -7.75 C 34.46875 -9.75 35.085938 -11.847656 35.484375 -14.046875 C 35.878906 -16.253906 36.078125 -18.148438 36.078125 -19.734375 C 36.078125 -21.597656 35.835938 -23.742188 35.359375 -26.171875 C 34.878906 -28.597656 34.117188 -30.910156 33.078125 -33.109375 C 32.035156 -35.316406 30.679688 -37.179688 29.015625 -38.703125 C 27.347656 -40.234375 25.359375 -41 23.046875 -41 C 21.117188 -41 19.488281 -40.265625 18.15625 -38.796875 C 16.832031 -37.328125 15.75 -35.578125 14.90625 -33.546875 C 14.0625 -31.515625 13.453125 -29.410156 13.078125 -27.234375 C 12.710938 -25.054688 12.53125 -23.234375 12.53125 -21.765625 Z M 12.53125 -21.765625 "/></g></g></g><g fill="#5f705f" fill-opacity="1"><g transform="translate(509.132263, 690.220881)"><g><path d="M 19.484375 -0.671875 C 21.566406 -0.671875 23.46875 -0.953125 25.1875 -1.515625 C 26.914062 -2.085938 28.515625 -2.867188 29.984375 -3.859375 C 31.453125 -4.847656 32.804688 -6.03125 34.046875 -7.40625 C 35.296875 -8.789062 36.457031 -10.300781 37.53125 -11.9375 L 35.0625 0 L 2.96875 0 C 4.488281 -0.507812 5.472656 -1.441406 5.921875 -2.796875 C 6.378906 -4.148438 6.609375 -5.535156 6.609375 -6.953125 L 6.609375 -35.0625 C 6.609375 -36.414062 6.367188 -37.710938 5.890625 -38.953125 C 5.410156 -40.203125 4.4375 -41.050781 2.96875 -41.5 L 18.640625 -41.5 C 17.171875 -41.050781 16.195312 -40.203125 15.71875 -38.953125 C 15.238281 -37.710938 15 -36.414062 15 -35.0625 L 15 -0.671875 Z M 19.484375 -0.671875 "/></g></g></g><g fill="#5f705f" fill-opacity="1"><g transform="translate(544.876714, 690.220881)"><g><path d="M 15.078125 -6.953125 C 15.078125 -5.535156 15.300781 -4.148438 15.75 -2.796875 C 16.207031 -1.441406 17.195312 -0.507812 18.71875 0 L 2.96875 0 C 4.488281 -0.507812 5.472656 -1.441406 5.921875 -2.796875 C 6.378906 -4.148438 6.609375 -5.535156 6.609375 -6.953125 L 6.609375 -35.0625 C 6.609375 -36.476562 6.367188 -37.789062 5.890625 -39 C 5.410156 -40.21875 4.4375 -41.050781 2.96875 -41.5 L 18.71875 -41.5 C 17.25 -41.050781 16.273438 -40.21875 15.796875 -39 C 15.316406 -37.789062 15.078125 -36.476562 15.078125 -35.0625 Z M 15.078125 -6.953125 "/></g></g></g><g fill="#5f705f" fill-opacity="1"><g transform="translate(563.680615, 690.220881)"><g><path d="M 44.890625 -20.75 C 44.890625 -17.875 44.335938 -15.164062 43.234375 -12.625 C 42.140625 -10.082031 40.644531 -7.863281 38.75 -5.96875 C 36.863281 -4.082031 34.648438 -2.585938 32.109375 -1.484375 C 29.566406 -0.378906 26.851562 0.171875 23.96875 0.171875 C 21.09375 0.171875 18.382812 -0.378906 15.84375 -1.484375 C 13.300781 -2.585938 11.082031 -4.082031 9.1875 -5.96875 C 7.300781 -7.863281 5.804688 -10.082031 4.703125 -12.625 C 3.597656 -15.164062 3.046875 -17.875 3.046875 -20.75 C 3.046875 -23.632812 3.597656 -26.347656 4.703125 -28.890625 C 5.804688 -31.429688 7.300781 -33.644531 9.1875 -35.53125 C 11.082031 -37.425781 13.300781 -38.921875 15.84375 -40.015625 C 18.382812 -41.117188 21.09375 -41.671875 23.96875 -41.671875 C 26.851562 -41.671875 29.566406 -41.117188 32.109375 -40.015625 C 34.648438 -38.921875 36.863281 -37.425781 38.75 -35.53125 C 40.644531 -33.644531 42.140625 -31.429688 43.234375 -28.890625 C 44.335938 -26.347656 44.890625 -23.632812 44.890625 -20.75 Z M 12.53125 -21.765625 C 12.53125 -20.078125 12.785156 -18.015625 13.296875 -15.578125 C 13.804688 -13.148438 14.582031 -10.820312 15.625 -8.59375 C 16.664062 -6.363281 17.976562 -4.457031 19.5625 -2.875 C 21.144531 -1.300781 22.984375 -0.515625 25.078125 -0.515625 C 27.109375 -0.515625 28.828125 -1.21875 30.234375 -2.625 C 31.648438 -4.039062 32.78125 -5.75 33.625 -7.75 C 34.46875 -9.75 35.085938 -11.847656 35.484375 -14.046875 C 35.878906 -16.253906 36.078125 -18.148438 36.078125 -19.734375 C 36.078125 -21.597656 35.835938 -23.742188 35.359375 -26.171875 C 34.878906 -28.597656 34.117188 -30.910156 33.078125 -33.109375 C 32.035156 -35.316406 30.679688 -37.179688 29.015625 -38.703125 C 27.347656 -40.234375 25.359375 -41 23.046875 -41 C 21.117188 -41 19.488281 -40.265625 18.15625 -38.796875 C 16.832031 -37.328125 15.75 -35.578125 14.90625 -33.546875 C 14.0625 -31.515625 13.453125 -29.410156 13.078125 -27.234375 C 12.710938 -25.054688 12.53125 -23.234375 12.53125 -21.765625 Z M 12.53125 -21.765625 "/></g></g></g><g fill="#5f705f" fill-opacity="1"><g transform="translate(608.743926, 690.220881)"><g/></g></g><g fill="#5f705f" fill-opacity="1"><g transform="translate(635.340497, 690.220881)"><g/></g></g><g fill="#5f705f" fill-opacity="1"><g transform="translate(661.947048, 690.220881)"><g><path d="M 42.359375 -27.109375 C 42.359375 -23.265625 41.625 -19.691406 40.15625 -16.390625 C 38.6875 -13.085938 36.707031 -10.222656 34.21875 -7.796875 C 31.738281 -5.367188 28.816406 -3.460938 25.453125 -2.078125 C 22.085938 -0.691406 18.515625 0 14.734375 0 L 0.9375 0 C 2.457031 -0.445312 3.441406 -1.332031 3.890625 -2.65625 C 4.347656 -3.988281 4.578125 -5.332031 4.578125 -6.6875 L 4.578125 -35.0625 C 4.578125 -36.363281 4.335938 -37.660156 3.859375 -38.953125 C 3.378906 -40.253906 2.40625 -41.101562 0.9375 -41.5 L 16.609375 -41.5 C 15.140625 -41.101562 14.160156 -40.253906 13.671875 -38.953125 C 13.191406 -37.660156 12.953125 -36.363281 12.953125 -35.0625 L 12.953125 -0.765625 L 14.5625 -0.765625 C 18.238281 -0.765625 21.316406 -1.609375 23.796875 -3.296875 C 26.285156 -4.992188 28.289062 -7.15625 29.8125 -9.78125 C 31.34375 -12.40625 32.429688 -15.34375 33.078125 -18.59375 C 33.722656 -21.84375 34.046875 -24.988281 34.046875 -28.03125 C 34.046875 -31.757812 33.566406 -35.289062 32.609375 -38.625 C 31.648438 -41.957031 30.195312 -44.894531 28.25 -47.4375 C 26.300781 -49.976562 23.84375 -51.992188 20.875 -53.484375 C 17.914062 -54.984375 14.398438 -55.734375 10.328125 -55.734375 C 6.429688 -55.734375 2.90625 -54.96875 -0.25 -53.4375 C -3.414062 -51.914062 -6.113281 -49.882812 -8.34375 -47.34375 C -10.570312 -44.800781 -12.289062 -41.835938 -13.5 -38.453125 C -14.71875 -35.066406 -15.328125 -31.507812 -15.328125 -27.78125 C -15.328125 -25.1875 -14.988281 -22.644531 -14.3125 -20.15625 C -13.632812 -17.675781 -12.601562 -15.445312 -11.21875 -13.46875 C -9.832031 -11.488281 -8.082031 -9.863281 -5.96875 -8.59375 C -3.851562 -7.320312 -1.351562 -6.601562 1.53125 -6.4375 L 1.53125 -5.671875 C -1.800781 -5.898438 -4.820312 -6.648438 -7.53125 -7.921875 C -10.25 -9.191406 -12.550781 -10.882812 -14.4375 -13 C -16.332031 -15.113281 -17.785156 -17.597656 -18.796875 -20.453125 C -19.816406 -23.304688 -20.328125 -26.367188 -20.328125 -29.640625 C -20.328125 -33.828125 -19.492188 -37.582031 -17.828125 -40.90625 C -16.160156 -44.238281 -13.929688 -47.078125 -11.140625 -49.421875 C -8.347656 -51.765625 -5.144531 -53.554688 -1.53125 -54.796875 C 2.082031 -56.046875 5.867188 -56.671875 9.828125 -56.671875 C 14.234375 -56.671875 18.394531 -55.988281 22.3125 -54.625 C 26.238281 -53.269531 29.679688 -51.320312 32.640625 -48.78125 C 35.609375 -46.25 37.96875 -43.160156 39.71875 -39.515625 C 41.476562 -35.867188 42.359375 -31.734375 42.359375 -27.109375 Z M 42.359375 -27.109375 "/></g></g></g><g fill="#5f705f" fill-opacity="1"><g transform="translate(704.298391, 690.220881)"><g><path d="M 44.890625 -20.75 C 44.890625 -17.875 44.335938 -15.164062 43.234375 -12.625 C 42.140625 -10.082031 40.644531 -7.863281 38.75 -5.96875 C 36.863281 -4.082031 34.648438 -2.585938 32.109375 -1.484375 C 29.566406 -0.378906 26.851562 0.171875 23.96875 0.171875 C 21.09375 0.171875 18.382812 -0.378906 15.84375 -1.484375 C 13.300781 -2.585938 11.082031 -4.082031 9.1875 -5.96875 C 7.300781 -7.863281 5.804688 -10.082031 4.703125 -12.625 C 3.597656 -15.164062 3.046875 -17.875 3.046875 -20.75 C 3.046875 -23.632812 3.597656 -26.347656 4.703125 -28.890625 C 5.804688 -31.429688 7.300781 -33.644531 9.1875 -35.53125 C 11.082031 -37.425781 13.300781 -38.921875 15.84375 -40.015625 C 18.382812 -41.117188 21.09375 -41.671875 23.96875 -41.671875 C 26.851562 -41.671875 29.566406 -41.117188 32.109375 -40.015625 C 34.648438 -38.921875 36.863281 -37.425781 38.75 -35.53125 C 40.644531 -33.644531 42.140625 -31.429688 43.234375 -28.890625 C 44.335938 -26.347656 44.890625 -23.632812 44.890625 -20.75 Z M 12.53125 -21.765625 C 12.53125 -20.078125 12.785156 -18.015625 13.296875 -15.578125 C 13.804688 -13.148438 14.582031 -10.820312 15.625 -8.59375 C 16.664062 -6.363281 17.976562 -4.457031 19.5625 -2.875 C 21.144531 -1.300781 22.984375 -0.515625 25.078125 -0.515625 C 27.109375 -0.515625 28.828125 -1.21875 30.234375 -2.625 C 31.648438 -4.039062 32.78125 -5.75 33.625 -7.75 C 34.46875 -9.75 35.085938 -11.847656 35.484375 -14.046875 C 35.878906 -16.253906 36.078125 -18.148438 36.078125 -19.734375 C 36.078125 -21.597656 35.835938 -23.742188 35.359375 -26.171875 C 34.878906 -28.597656 34.117188 -30.910156 33.078125 -33.109375 C 32.035156 -35.316406 30.679688 -37.179688 29.015625 -38.703125 C 27.347656 -40.234375 25.359375 -41 23.046875 -41 C 21.117188 -41 19.488281 -40.265625 18.15625 -38.796875 C 16.832031 -37.328125 15.75 -35.578125 14.90625 -33.546875 C 14.0625 -31.515625 13.453125 -29.410156 13.078125 -27.234375 C 12.710938 -25.054688 12.53125 -23.234375 12.53125 -21.765625 Z M 12.53125 -21.765625 "/></g></g></g><g fill="#5f705f" fill-opacity="1"><g transform="translate(749.360232, 690.220881)"><g><path d="M 39.984375 -6.015625 C 38.960938 -5.171875 37.84375 -4.378906 36.625 -3.640625 C 35.414062 -2.910156 34.132812 -2.257812 32.78125 -1.6875 C 31.425781 -1.125 30.054688 -0.671875 28.671875 -0.328125 C 27.285156 0.00390625 25.945312 0.171875 24.65625 0.171875 C 21.601562 0.171875 18.75 -0.332031 16.09375 -1.34375 C 13.4375 -2.363281 11.132812 -3.773438 9.1875 -5.578125 C 7.238281 -7.390625 5.710938 -9.59375 4.609375 -12.1875 C 3.515625 -14.789062 2.96875 -17.644531 2.96875 -20.75 C 2.96875 -23.914062 3.515625 -26.78125 4.609375 -29.34375 C 5.710938 -31.914062 7.238281 -34.101562 9.1875 -35.90625 C 11.132812 -37.71875 13.4375 -39.128906 16.09375 -40.140625 C 18.75 -41.160156 21.601562 -41.671875 24.65625 -41.671875 C 26.90625 -41.671875 29.269531 -41.375 31.75 -40.78125 C 34.238281 -40.1875 36.390625 -39.15625 38.203125 -37.6875 L 38.203125 -28.375 C 37.359375 -29.5625 36.382812 -30.890625 35.28125 -32.359375 C 34.175781 -33.828125 32.945312 -35.179688 31.59375 -36.421875 C 30.238281 -37.660156 28.8125 -38.703125 27.3125 -39.546875 C 25.820312 -40.398438 24.253906 -40.828125 22.609375 -40.828125 C 20.523438 -40.828125 18.804688 -40.148438 17.453125 -38.796875 C 16.097656 -37.441406 15.023438 -35.789062 14.234375 -33.84375 C 13.441406 -31.894531 12.890625 -29.832031 12.578125 -27.65625 C 12.265625 -25.476562 12.109375 -23.597656 12.109375 -22.015625 C 12.109375 -19.984375 12.320312 -17.738281 12.75 -15.28125 C 13.175781 -12.832031 13.894531 -10.519531 14.90625 -8.34375 C 15.925781 -6.164062 17.28125 -4.34375 18.96875 -2.875 C 20.664062 -1.40625 22.785156 -0.671875 25.328125 -0.671875 C 26.960938 -0.671875 28.484375 -1.125 29.890625 -2.03125 C 31.304688 -2.9375 32.566406 -4.066406 33.671875 -5.421875 C 34.773438 -6.773438 35.707031 -8.242188 36.46875 -9.828125 C 37.226562 -11.410156 37.804688 -12.90625 38.203125 -14.3125 Z M 39.984375 -6.015625 "/></g></g></g><g fill="#5f705f" fill-opacity="1"><g transform="translate(789.509297, 690.220881)"><g><path d="M 15 -0.671875 C 16.96875 -0.671875 19.125 -0.835938 21.46875 -1.171875 C 23.8125 -1.515625 26.082031 -2.066406 28.28125 -2.828125 C 30.488281 -3.597656 32.523438 -4.628906 34.390625 -5.921875 C 36.253906 -7.222656 37.691406 -8.832031 38.703125 -10.75 L 35.921875 0 L 2.96875 0 C 3.757812 -0.226562 4.378906 -0.59375 4.828125 -1.09375 C 5.273438 -1.601562 5.640625 -2.171875 5.921875 -2.796875 C 6.210938 -3.421875 6.398438 -4.097656 6.484375 -4.828125 C 6.566406 -5.554688 6.609375 -6.265625 6.609375 -6.953125 L 6.609375 -35.0625 C 6.609375 -36.414062 6.367188 -37.710938 5.890625 -38.953125 C 5.410156 -40.203125 4.4375 -41.050781 2.96875 -41.5 L 34.390625 -41.5 L 36.671875 -30.75 C 34.640625 -34.414062 31.875 -37.007812 28.375 -38.53125 C 24.875 -40.0625 21.117188 -40.828125 17.109375 -40.828125 L 15 -40.828125 L 15 -21.4375 C 17.476562 -21.4375 19.707031 -21.957031 21.6875 -23 C 23.664062 -24.039062 25.046875 -25.832031 25.828125 -28.375 L 25.828125 -14.3125 C 25.046875 -16.738281 23.648438 -18.414062 21.640625 -19.34375 C 19.640625 -20.28125 17.453125 -20.75 15.078125 -20.75 L 15 -20.75 Z M 15 -0.671875 "/></g></g></g><g fill="#5f705f" fill-opacity="1"><g transform="translate(828.387816, 690.220881)"><g><path d="M 9.734375 -8.984375 C 9.734375 -6.722656 10.296875 -4.828125 11.421875 -3.296875 C 12.554688 -1.773438 14.195312 -0.675781 16.34375 0 L 3.046875 0 C 5.140625 -0.726562 6.675781 -1.867188 7.65625 -3.421875 C 8.644531 -4.984375 9.140625 -6.835938 9.140625 -8.984375 L 9.140625 -31.765625 C 9.140625 -33.796875 8.644531 -35.753906 7.65625 -37.640625 C 6.675781 -39.535156 5.140625 -40.820312 3.046875 -41.5 L 14.734375 -41.5 L 36.34375 -14.40625 L 36.34375 -32.53125 C 36.34375 -34.613281 35.832031 -36.457031 34.8125 -38.0625 C 33.789062 -39.675781 32.265625 -40.820312 30.234375 -41.5 L 42.609375 -41.5 C 40.628906 -40.882812 39.210938 -39.726562 38.359375 -38.03125 C 37.515625 -36.332031 37.09375 -34.5 37.09375 -32.53125 L 37.09375 0 L 9.734375 -34.21875 Z M 9.734375 -8.984375 "/></g></g></g><g fill="#5f705f" fill-opacity="1"><g transform="translate(871.077973, 690.220881)"><g><path d="M 26.59375 -6.953125 C 26.59375 -5.535156 26.816406 -4.160156 27.265625 -2.828125 C 27.722656 -1.503906 28.6875 -0.5625 30.15625 0 L 14.5625 0 C 16.09375 -0.507812 17.066406 -1.441406 17.484375 -2.796875 C 17.910156 -4.148438 18.125 -5.535156 18.125 -6.953125 L 18.296875 -40.0625 C 16.828125 -40.0625 15.34375 -39.890625 13.84375 -39.546875 C 12.351562 -39.210938 10.925781 -38.707031 9.5625 -38.03125 C 8.207031 -37.351562 6.96875 -36.503906 5.84375 -35.484375 C 4.71875 -34.472656 3.785156 -33.289062 3.046875 -31.9375 L 4.484375 -41.5 L 40.234375 -41.5 L 41.765625 -32.015625 C 41.140625 -33.148438 40.257812 -34.207031 39.125 -35.1875 C 38 -36.175781 36.757812 -37.023438 35.40625 -37.734375 C 34.050781 -38.441406 32.648438 -39.003906 31.203125 -39.421875 C 29.765625 -39.847656 28.398438 -40.0625 27.109375 -40.0625 L 26.59375 -40.0625 Z M 26.59375 -6.953125 "/></g></g></g><g fill="#5f705f" fill-opacity="1"><g transform="translate(913.005804, 690.220881)"><g><path d="M 15 -0.671875 C 16.96875 -0.671875 19.125 -0.835938 21.46875 -1.171875 C 23.8125 -1.515625 26.082031 -2.066406 28.28125 -2.828125 C 30.488281 -3.597656 32.523438 -4.628906 34.390625 -5.921875 C 36.253906 -7.222656 37.691406 -8.832031 38.703125 -10.75 L 35.921875 0 L 2.96875 0 C 3.757812 -0.226562 4.378906 -0.59375 4.828125 -1.09375 C 5.273438 -1.601562 5.640625 -2.171875 5.921875 -2.796875 C 6.210938 -3.421875 6.398438 -4.097656 6.484375 -4.828125 C 6.566406 -5.554688 6.609375 -6.265625 6.609375 -6.953125 L 6.609375 -35.0625 C 6.609375 -36.414062 6.367188 -37.710938 5.890625 -38.953125 C 5.410156 -40.203125 4.4375 -41.050781 2.96875 -41.5 L 34.390625 -41.5 L 36.671875 -30.75 C 34.640625 -34.414062 31.875 -37.007812 28.375 -38.53125 C 24.875 -40.0625 21.117188 -40.828125 17.109375 -40.828125 L 15 -40.828125 L 15 -21.4375 C 17.476562 -21.4375 19.707031 -21.957031 21.6875 -23 C 23.664062 -24.039062 25.046875 -25.832031 25.828125 -28.375 L 25.828125 -14.3125 C 25.046875 -16.738281 23.648438 -18.414062 21.640625 -19.34375 C 19.640625 -20.28125 17.453125 -20.75 15.078125 -20.75 L 15 -20.75 Z M 15 -0.671875 "/></g></g></g></svg>