<svg xmlns="http://www.w3.org/2000/svg" xmlns:xlink="http://www.w3.org/1999/xlink" width="1920" zoomAndPan="magnify" viewBox="0 0 1440 809.999993" height="1080" preserveAspectRatio="xMidYMid meet" version="1.0"><defs><filter x="0%" y="0%" width="100%" height="100%" id="80ea135256"><feColorMatrix values="0 0 0 0 1 0 0 0 0 1 0 0 0 0 1 0 0 0 1 0" color-interpolation-filters="sRGB"/></filter><g/><clipPath id="8a3e782506"><path d="M 447 104 L 447.839844 104 L 447.839844 105 L 447 105 Z M 447 104 " clip-rule="nonzero"/></clipPath><clipPath id="9e036df8c0"><rect x="0" width="448" y="0" height="149"/></clipPath><clipPath id="4346103ac9"><path d="M 0 0 L 1440 0 L 1440 810 L 0 810 Z M 0 0 " clip-rule="nonzero"/></clipPath><linearGradient x1="-421.16396" gradientTransform="matrix(0.749957, 0, 0, 0.749948, 551.187218, 191.987941)" y1="1137.86695" x2="1078.92779" gradientUnits="userSpaceOnUse" y2="-362.224775" id="21e19490eb"><stop stop-opacity="1" stop-color="rgb(47.839355%, 17.248535%, 61.959839%)" offset="0"/><stop stop-opacity="1" stop-color="rgb(47.839355%, 17.248535%, 61.959839%)" offset="0.25"/><stop stop-opacity="1" stop-color="rgb(47.839355%, 17.248535%, 61.959839%)" offset="0.3125"/><stop stop-opacity="1" stop-color="rgb(47.839355%, 17.248535%, 61.959839%)" offset="0.328125"/><stop stop-opacity="1" stop-color="rgb(47.839355%, 17.248535%, 61.959839%)" offset="0.335938"/><stop stop-opacity="1" stop-color="rgb(48.529053%, 17.547607%, 61.813354%)" offset="0.339844"/><stop stop-opacity="1" stop-color="rgb(49.21875%, 17.848206%, 61.66687%)" offset="0.34375"/><stop stop-opacity="1" stop-color="rgb(49.967957%, 18.173218%, 61.508179%)" offset="0.347656"/><stop stop-opacity="1" stop-color="rgb(50.718689%, 18.499756%, 61.349487%)" offset="0.351563"/><stop stop-opacity="1" stop-color="rgb(51.467896%, 18.824768%, 61.18927%)" offset="0.355469"/><stop stop-opacity="1" stop-color="rgb(52.217102%, 19.151306%, 61.030579%)" offset="0.359375"/><stop stop-opacity="1" stop-color="rgb(52.966309%, 19.476318%, 60.871887%)" offset="0.363281"/><stop stop-opacity="1" stop-color="rgb(53.717041%, 19.802856%, 60.713196%)" offset="0.367188"/><stop stop-opacity="1" stop-color="rgb(54.466248%, 20.127869%, 60.554504%)" offset="0.371094"/><stop stop-opacity="1" stop-color="rgb(55.21698%, 20.454407%, 60.395813%)" offset="0.375"/><stop stop-opacity="1" stop-color="rgb(55.966187%, 20.779419%, 60.237122%)" offset="0.378906"/><stop stop-opacity="1" stop-color="rgb(56.715393%, 21.105957%, 60.07843%)" offset="0.382813"/><stop stop-opacity="1" stop-color="rgb(57.4646%, 21.430969%, 59.918213%)" offset="0.386719"/><stop stop-opacity="1" stop-color="rgb(58.215332%, 21.757507%, 59.759521%)" offset="0.390625"/><stop stop-opacity="1" stop-color="rgb(58.964539%, 22.08252%, 59.60083%)" offset="0.394531"/><stop stop-opacity="1" stop-color="rgb(59.715271%, 22.409058%, 59.442139%)" offset="0.398438"/><stop stop-opacity="1" stop-color="rgb(60.464478%, 22.73407%, 59.283447%)" offset="0.402344"/><stop stop-opacity="1" stop-color="rgb(61.213684%, 23.060608%, 59.124756%)" offset="0.40625"/><stop stop-opacity="1" stop-color="rgb(61.962891%, 23.38562%, 58.966064%)" offset="0.410156"/><stop stop-opacity="1" stop-color="rgb(62.713623%, 23.712158%, 58.807373%)" offset="0.414063"/><stop stop-opacity="1" stop-color="rgb(63.46283%, 24.03717%, 58.647156%)" offset="0.417969"/><stop stop-opacity="1" stop-color="rgb(64.213562%, 24.363708%, 58.488464%)" offset="0.421875"/><stop stop-opacity="1" stop-color="rgb(64.962769%, 24.688721%, 58.329773%)" offset="0.425781"/><stop stop-opacity="1" stop-color="rgb(65.711975%, 25.013733%, 58.171082%)" offset="0.429688"/><stop stop-opacity="1" stop-color="rgb(66.461182%, 25.338745%, 58.01239%)" offset="0.433594"/><stop stop-opacity="1" stop-color="rgb(67.211914%, 25.665283%, 57.853699%)" offset="0.4375"/><stop stop-opacity="1" stop-color="rgb(67.961121%, 25.990295%, 57.693481%)" offset="0.441406"/><stop stop-opacity="1" stop-color="rgb(68.711853%, 26.316833%, 57.53479%)" offset="0.445313"/><stop stop-opacity="1" stop-color="rgb(69.46106%, 26.641846%, 57.376099%)" offset="0.449219"/><stop stop-opacity="1" stop-color="rgb(70.210266%, 26.968384%, 57.217407%)" offset="0.453125"/><stop stop-opacity="1" stop-color="rgb(70.959473%, 27.293396%, 57.058716%)" offset="0.457031"/><stop stop-opacity="1" stop-color="rgb(71.710205%, 27.619934%, 56.900024%)" offset="0.460938"/><stop stop-opacity="1" stop-color="rgb(72.459412%, 27.944946%, 56.741333%)" offset="0.464844"/><stop stop-opacity="1" stop-color="rgb(73.210144%, 28.271484%, 56.582642%)" offset="0.46875"/><stop stop-opacity="1" stop-color="rgb(73.959351%, 28.596497%, 56.422424%)" offset="0.472656"/><stop stop-opacity="1" stop-color="rgb(74.708557%, 28.923035%, 56.263733%)" offset="0.476563"/><stop stop-opacity="1" stop-color="rgb(75.457764%, 29.248047%, 56.105042%)" offset="0.480469"/><stop stop-opacity="1" stop-color="rgb(76.208496%, 29.574585%, 55.94635%)" offset="0.484375"/><stop stop-opacity="1" stop-color="rgb(76.957703%, 29.899597%, 55.787659%)" offset="0.488281"/><stop stop-opacity="1" stop-color="rgb(77.708435%, 30.226135%, 55.628967%)" offset="0.492188"/><stop stop-opacity="1" stop-color="rgb(78.457642%, 30.551147%, 55.46875%)" offset="0.496094"/><stop stop-opacity="1" stop-color="rgb(79.206848%, 30.877686%, 55.310059%)" offset="0.5"/><stop stop-opacity="1" stop-color="rgb(79.956055%, 31.202698%, 55.151367%)" offset="0.503906"/><stop stop-opacity="1" stop-color="rgb(80.706787%, 31.529236%, 54.992676%)" offset="0.507812"/><stop stop-opacity="1" stop-color="rgb(81.455994%, 31.854248%, 54.833984%)" offset="0.511719"/><stop stop-opacity="1" stop-color="rgb(82.206726%, 32.180786%, 54.675293%)" offset="0.515625"/><stop stop-opacity="1" stop-color="rgb(82.955933%, 32.505798%, 54.516602%)" offset="0.519531"/><stop stop-opacity="1" stop-color="rgb(83.705139%, 32.832336%, 54.35791%)" offset="0.523438"/><stop stop-opacity="1" stop-color="rgb(84.454346%, 33.157349%, 54.197693%)" offset="0.527344"/><stop stop-opacity="1" stop-color="rgb(85.205078%, 33.483887%, 54.039001%)" offset="0.53125"/><stop stop-opacity="1" stop-color="rgb(85.942078%, 33.824158%, 53.866577%)" offset="0.535156"/><stop stop-opacity="1" stop-color="rgb(86.680603%, 34.165955%, 53.695679%)" offset="0.539063"/><stop stop-opacity="1" stop-color="rgb(86.930847%, 35.173035%, 52.975464%)" offset="0.542969"/><stop stop-opacity="1" stop-color="rgb(87.181091%, 36.180115%, 52.256775%)" offset="0.546875"/><stop stop-opacity="1" stop-color="rgb(87.42981%, 37.187195%, 51.53656%)" offset="0.550781"/><stop stop-opacity="1" stop-color="rgb(87.680054%, 38.194275%, 50.817871%)" offset="0.554688"/><stop stop-opacity="1" stop-color="rgb(87.930298%, 39.201355%, 50.097656%)" offset="0.558594"/><stop stop-opacity="1" stop-color="rgb(88.180542%, 40.208435%, 49.378967%)" offset="0.5625"/><stop stop-opacity="1" stop-color="rgb(88.42926%, 41.215515%, 48.658752%)" offset="0.566406"/><stop stop-opacity="1" stop-color="rgb(88.679504%, 42.222595%, 47.940063%)" offset="0.570313"/><stop stop-opacity="1" stop-color="rgb(88.929749%, 43.228149%, 47.219849%)" offset="0.574219"/><stop stop-opacity="1" stop-color="rgb(89.179993%, 44.235229%, 46.50116%)" offset="0.578125"/><stop stop-opacity="1" stop-color="rgb(89.428711%, 45.24231%, 45.780945%)" offset="0.582031"/><stop stop-opacity="1" stop-color="rgb(89.678955%, 46.24939%, 45.062256%)" offset="0.585938"/><stop stop-opacity="1" stop-color="rgb(89.929199%, 47.25647%, 44.342041%)" offset="0.589844"/><stop stop-opacity="1" stop-color="rgb(90.179443%, 48.26355%, 43.623352%)" offset="0.59375"/><stop stop-opacity="1" stop-color="rgb(90.428162%, 49.27063%, 42.903137%)" offset="0.597656"/><stop stop-opacity="1" stop-color="rgb(90.678406%, 50.27771%, 42.184448%)" offset="0.601563"/><stop stop-opacity="1" stop-color="rgb(90.92865%, 51.283264%, 41.464233%)" offset="0.605469"/><stop stop-opacity="1" stop-color="rgb(91.178894%, 52.290344%, 40.745544%)" offset="0.609375"/><stop stop-opacity="1" stop-color="rgb(91.427612%, 53.297424%, 40.02533%)" offset="0.613281"/><stop stop-opacity="1" stop-color="rgb(91.677856%, 54.304504%, 39.306641%)" offset="0.617188"/><stop stop-opacity="1" stop-color="rgb(91.926575%, 55.311584%, 38.586426%)" offset="0.621094"/><stop stop-opacity="1" stop-color="rgb(92.176819%, 56.318665%, 37.867737%)" offset="0.625"/><stop stop-opacity="1" stop-color="rgb(92.427063%, 57.325745%, 37.149048%)" offset="0.628906"/><stop stop-opacity="1" stop-color="rgb(92.677307%, 58.332825%, 36.430359%)" offset="0.632812"/><stop stop-opacity="1" stop-color="rgb(92.926025%, 59.338379%, 35.710144%)" offset="0.636719"/><stop stop-opacity="1" stop-color="rgb(93.17627%, 60.345459%, 34.991455%)" offset="0.640625"/><stop stop-opacity="1" stop-color="rgb(93.426514%, 61.352539%, 34.27124%)" offset="0.644531"/><stop stop-opacity="1" stop-color="rgb(93.676758%, 62.359619%, 33.552551%)" offset="0.648438"/><stop stop-opacity="1" stop-color="rgb(93.925476%, 63.366699%, 32.832336%)" offset="0.652344"/><stop stop-opacity="1" stop-color="rgb(94.17572%, 64.373779%, 32.113647%)" offset="0.65625"/><stop stop-opacity="1" stop-color="rgb(94.425964%, 65.380859%, 31.393433%)" offset="0.660156"/><stop stop-opacity="1" stop-color="rgb(94.676208%, 66.387939%, 30.674744%)" offset="0.664063"/><stop stop-opacity="1" stop-color="rgb(94.924927%, 67.393494%, 29.954529%)" offset="0.667969"/><stop stop-opacity="1" stop-color="rgb(95.175171%, 68.400574%, 29.23584%)" offset="0.671875"/><stop stop-opacity="1" stop-color="rgb(95.425415%, 69.407654%, 28.515625%)" offset="0.675781"/><stop stop-opacity="1" stop-color="rgb(95.675659%, 70.414734%, 27.796936%)" offset="0.679688"/><stop stop-opacity="1" stop-color="rgb(95.924377%, 71.421814%, 27.076721%)" offset="0.683594"/><stop stop-opacity="1" stop-color="rgb(96.174622%, 72.428894%, 26.358032%)" offset="0.6875"/><stop stop-opacity="1" stop-color="rgb(96.424866%, 73.435974%, 25.637817%)" offset="0.691406"/><stop stop-opacity="1" stop-color="rgb(96.67511%, 74.443054%, 24.919128%)" offset="0.695313"/><stop stop-opacity="1" stop-color="rgb(96.923828%, 75.448608%, 24.198914%)" offset="0.699219"/><stop stop-opacity="1" stop-color="rgb(97.174072%, 76.455688%, 23.480225%)" offset="0.703125"/><stop stop-opacity="1" stop-color="rgb(97.424316%, 77.462769%, 22.76001%)" offset="0.707031"/><stop stop-opacity="1" stop-color="rgb(97.674561%, 78.469849%, 22.041321%)" offset="0.710938"/><stop stop-opacity="1" stop-color="rgb(97.923279%, 79.476929%, 21.321106%)" offset="0.714844"/><stop stop-opacity="1" stop-color="rgb(98.173523%, 80.484009%, 20.602417%)" offset="0.71875"/><stop stop-opacity="1" stop-color="rgb(98.423767%, 81.491089%, 19.882202%)" offset="0.722656"/><stop stop-opacity="1" stop-color="rgb(98.674011%, 82.498169%, 19.163513%)" offset="0.726563"/><stop stop-opacity="1" stop-color="rgb(98.922729%, 83.503723%, 18.443298%)" offset="0.730469"/><stop stop-opacity="1" stop-color="rgb(99.172974%, 84.510803%, 17.724609%)" offset="0.734375"/><stop stop-opacity="1" stop-color="rgb(99.391174%, 85.389709%, 17.095947%)" offset="0.738281"/><stop stop-opacity="1" stop-color="rgb(99.609375%, 86.268616%, 16.468811%)" offset="0.742188"/><stop stop-opacity="1" stop-color="rgb(99.609375%, 86.268616%, 16.468811%)" offset="0.75"/><stop stop-opacity="1" stop-color="rgb(99.609375%, 86.268616%, 16.468811%)" offset="1"/></linearGradient><clipPath id="a72b0225a2"><rect x="0" width="1440" y="0" height="810"/></clipPath><clipPath id="ff40ce621b"><rect x="0" width="1440" y="0" height="810"/></clipPath><clipPath id="2ae9671674"><rect x="0" width="1440" y="0" height="810"/></clipPath><mask id="9444ca6ce7"><g filter="url(#80ea135256)"><g transform="matrix(1, 0, 0, 1, 0, 0.000000000000039746)"><g clip-path="url(#2ae9671674)"><g transform="matrix(1, 0, 0, 1, 0, 0.000000000000039746)"><g clip-path="url(#ff40ce621b)"><g fill="#000000" fill-opacity="1"><g transform="translate(617.487406, 536.970931)"><g><path d="M -5.65625 -81.34375 C -0.238281 -86.0625 4.941406 -91.425781 9.890625 -97.4375 C 14.847656 -103.445312 20.039062 -108.925781 25.46875 -113.875 C 27.582031 -115.289062 29.523438 -116.878906 31.296875 -118.640625 C 33.066406 -120.410156 35.601562 -121.414062 38.90625 -121.65625 C 41.257812 -120.476562 42.375 -118.238281 42.25 -114.9375 C 42.132812 -111.632812 41.722656 -108.035156 41.015625 -104.140625 C 40.316406 -100.253906 39.847656 -96.304688 39.609375 -92.296875 C 39.367188 -88.296875 40.429688 -85.113281 42.796875 -82.75 C 48.453125 -82.988281 53.28125 -84.40625 57.28125 -87 C 61.289062 -89.59375 65.300781 -92.066406 69.3125 -94.421875 C 74.269531 -97.722656 78.046875 -100.492188 80.640625 -102.734375 C 83.234375 -104.972656 85.234375 -106.679688 86.640625 -107.859375 C 88.054688 -109.046875 89.054688 -109.753906 89.640625 -109.984375 C 90.234375 -110.222656 90.882812 -110.109375 91.59375 -109.640625 C 92.0625 -107.984375 91.707031 -106.859375 90.53125 -106.265625 C 89.351562 -105.679688 88.53125 -104.914062 88.0625 -103.96875 C 85.226562 -101.851562 82.515625 -99.734375 79.921875 -97.609375 C 77.328125 -95.484375 74.5 -93.476562 71.4375 -91.59375 C 67.90625 -89 64.070312 -86.523438 59.9375 -84.171875 C 55.8125 -81.816406 51.273438 -79.929688 46.328125 -78.515625 L 42.4375 -78.515625 C 41.96875 -78.742188 41.4375 -78.976562 40.84375 -79.21875 C 40.257812 -79.457031 39.726562 -79.691406 39.25 -79.921875 C 37.363281 -82.046875 36.1875 -84.582031 35.71875 -87.53125 C 35.25 -90.476562 35.128906 -93.601562 35.359375 -96.90625 C 35.597656 -100.207031 36.007812 -103.625 36.59375 -107.15625 C 37.1875 -110.695312 37.484375 -113.878906 37.484375 -116.703125 C 32.773438 -114.109375 28.59375 -110.628906 24.9375 -106.265625 C 21.28125 -101.910156 17.679688 -97.726562 14.140625 -93.71875 C 11.546875 -90.882812 9.007812 -87.757812 6.53125 -84.34375 C 4.0625 -80.925781 1.648438 -77.976562 -0.703125 -75.5 C -3.066406 -73.03125 -5.367188 -71.441406 -7.609375 -70.734375 C -9.847656 -70.023438 -11.789062 -70.96875 -13.4375 -73.5625 C -13.675781 -80.164062 -12.320312 -86.585938 -9.375 -92.828125 C -6.425781 -99.078125 -2.828125 -106.328125 1.421875 -114.578125 C 1.890625 -115.523438 2.535156 -116.878906 3.359375 -118.640625 C 4.179688 -120.410156 5.125 -121.828125 6.1875 -122.890625 C 7.25 -123.953125 8.3125 -124.539062 9.375 -124.65625 C 10.4375 -124.78125 11.554688 -123.78125 12.734375 -121.65625 C 12.265625 -119.0625 11.5 -116.820312 10.4375 -114.9375 C 9.375 -113.050781 8.253906 -110.929688 7.078125 -108.578125 C 5.421875 -103.390625 3.648438 -99.023438 1.765625 -95.484375 C 1.765625 -94.546875 1.410156 -94.132812 0.703125 -94.25 C -0.00390625 -94.363281 -0.59375 -94.1875 -1.0625 -93.71875 C -1.769531 -91.59375 -2.535156 -89.53125 -3.359375 -87.53125 C -4.179688 -85.53125 -4.945312 -83.46875 -5.65625 -81.34375 Z M -5.65625 -81.34375 "/></g></g></g><g fill="#000000" fill-opacity="1"><g transform="translate(706.608323, 536.970931)"><g><path d="M -3.890625 -87.703125 C 1.296875 -91.003906 5.832031 -94.71875 9.71875 -98.84375 C 13.613281 -102.96875 17.800781 -107.035156 22.28125 -111.046875 C 23.925781 -112.222656 25.335938 -113.519531 26.515625 -114.9375 C 27.703125 -116.351562 29.59375 -117.296875 32.1875 -117.765625 C 34.070312 -115.878906 34.539062 -113.640625 33.59375 -111.046875 C 32.65625 -108.453125 31.832031 -105.976562 31.125 -103.625 C 30.414062 -101.03125 29.707031 -98.4375 29 -95.84375 C 28.289062 -93.25 28.523438 -90.65625 29.703125 -88.0625 C 34.179688 -88.0625 38.128906 -89.0625 41.546875 -91.0625 C 44.972656 -93.070312 48.335938 -95.019531 51.640625 -96.90625 C 54.929688 -98.789062 58.285156 -100.675781 61.703125 -102.5625 C 65.128906 -104.445312 68.492188 -106.453125 71.796875 -108.578125 C 72.734375 -109.046875 73.789062 -109.570312 74.96875 -110.15625 C 76.15625 -110.75 77.21875 -110.457031 78.15625 -109.28125 C 78.15625 -107.863281 77.566406 -106.921875 76.390625 -106.453125 C 75.210938 -105.984375 74.148438 -105.507812 73.203125 -105.03125 C 68.492188 -102.4375 63.835938 -99.664062 59.234375 -96.71875 C 54.640625 -93.769531 50.28125 -91.175781 46.15625 -88.9375 C 42.03125 -86.695312 38.253906 -85.101562 34.828125 -84.15625 C 31.410156 -83.21875 28.644531 -83.578125 26.53125 -85.234375 C 25.34375 -87.359375 24.691406 -89.539062 24.578125 -91.78125 C 24.460938 -94.019531 24.695312 -96.316406 25.28125 -98.671875 C 25.875 -101.023438 26.582031 -103.320312 27.40625 -105.5625 C 28.226562 -107.800781 28.878906 -109.863281 29.359375 -111.75 C 26.285156 -109.632812 23.394531 -107.101562 20.6875 -104.15625 C 17.976562 -101.207031 15.207031 -98.4375 12.375 -95.84375 C 9.550781 -92.539062 6.722656 -89.828125 3.890625 -87.703125 C 2.472656 -86.523438 1.0625 -85.226562 -0.34375 -83.8125 C -1.757812 -82.394531 -4.003906 -81.6875 -7.078125 -81.6875 C -7.078125 -81.925781 -7.3125 -82.046875 -7.78125 -82.046875 C -9.195312 -82.515625 -10.019531 -83.691406 -10.25 -85.578125 C -10.488281 -87.472656 -10.375 -89.363281 -9.90625 -91.25 C -8.25 -96.664062 -6.179688 -101.492188 -3.703125 -105.734375 C -1.234375 -109.984375 1.53125 -113.992188 4.59375 -117.765625 C 4.59375 -119.421875 5.125 -120.835938 6.1875 -122.015625 C 7.25 -123.191406 8.425781 -123.894531 9.71875 -124.125 C 11.019531 -124.363281 12.203125 -124.128906 13.265625 -123.421875 C 14.328125 -122.710938 14.859375 -121.300781 14.859375 -119.1875 C 14.378906 -117.769531 13.726562 -116.644531 12.90625 -115.8125 C 12.082031 -114.988281 11.195312 -114.109375 10.25 -113.171875 C 7.65625 -109.867188 5.296875 -106.390625 3.171875 -102.734375 C 1.054688 -99.078125 -0.941406 -95.363281 -2.828125 -91.59375 C -3.296875 -90.175781 -3.648438 -89.234375 -3.890625 -88.765625 Z M 32.1875 -144.65625 C 29.820312 -143.46875 27.875 -141.8125 26.34375 -139.6875 C 24.8125 -137.570312 22.628906 -136.160156 19.796875 -135.453125 C 19.566406 -135.691406 19.21875 -135.8125 18.75 -135.8125 C 18.039062 -137.457031 18.097656 -138.8125 18.921875 -139.875 C 19.742188 -140.9375 20.628906 -141.820312 21.578125 -142.53125 C 23.222656 -144.644531 24.988281 -146.410156 26.875 -147.828125 C 28.53125 -149.242188 30.476562 -151.007812 32.71875 -153.125 C 34.957031 -155.25 37.019531 -156.90625 38.90625 -158.09375 C 39.375 -158.5625 40.140625 -158.617188 41.203125 -158.265625 C 42.265625 -157.910156 42.910156 -157.144531 43.140625 -155.96875 C 43.378906 -154.550781 42.789062 -153.367188 41.375 -152.421875 C 39.957031 -151.484375 38.78125 -150.660156 37.84375 -149.953125 Z M 32.1875 -144.65625 "/></g></g></g><g fill="#000000" fill-opacity="1"><g transform="translate(782.290399, 536.970931)"><g><path d="M -5.65625 -81.34375 C -0.238281 -86.0625 4.941406 -91.425781 9.890625 -97.4375 C 14.847656 -103.445312 20.039062 -108.925781 25.46875 -113.875 C 27.582031 -115.289062 29.523438 -116.878906 31.296875 -118.640625 C 33.066406 -120.410156 35.601562 -121.414062 38.90625 -121.65625 C 41.257812 -120.476562 42.375 -118.238281 42.25 -114.9375 C 42.132812 -111.632812 41.722656 -108.035156 41.015625 -104.140625 C 40.316406 -100.253906 39.847656 -96.304688 39.609375 -92.296875 C 39.367188 -88.296875 40.429688 -85.113281 42.796875 -82.75 C 48.453125 -82.988281 53.28125 -84.40625 57.28125 -87 C 61.289062 -89.59375 65.300781 -92.066406 69.3125 -94.421875 C 74.269531 -97.722656 78.046875 -100.492188 80.640625 -102.734375 C 83.234375 -104.972656 85.234375 -106.679688 86.640625 -107.859375 C 88.054688 -109.046875 89.054688 -109.753906 89.640625 -109.984375 C 90.234375 -110.222656 90.882812 -110.109375 91.59375 -109.640625 C 92.0625 -107.984375 91.707031 -106.859375 90.53125 -106.265625 C 89.351562 -105.679688 88.53125 -104.914062 88.0625 -103.96875 C 85.226562 -101.851562 82.515625 -99.734375 79.921875 -97.609375 C 77.328125 -95.484375 74.5 -93.476562 71.4375 -91.59375 C 67.90625 -89 64.070312 -86.523438 59.9375 -84.171875 C 55.8125 -81.816406 51.273438 -79.929688 46.328125 -78.515625 L 42.4375 -78.515625 C 41.96875 -78.742188 41.4375 -78.976562 40.84375 -79.21875 C 40.257812 -79.457031 39.726562 -79.691406 39.25 -79.921875 C 37.363281 -82.046875 36.1875 -84.582031 35.71875 -87.53125 C 35.25 -90.476562 35.128906 -93.601562 35.359375 -96.90625 C 35.597656 -100.207031 36.007812 -103.625 36.59375 -107.15625 C 37.1875 -110.695312 37.484375 -113.878906 37.484375 -116.703125 C 32.773438 -114.109375 28.59375 -110.628906 24.9375 -106.265625 C 21.28125 -101.910156 17.679688 -97.726562 14.140625 -93.71875 C 11.546875 -90.882812 9.007812 -87.757812 6.53125 -84.34375 C 4.0625 -80.925781 1.648438 -77.976562 -0.703125 -75.5 C -3.066406 -73.03125 -5.367188 -71.441406 -7.609375 -70.734375 C -9.847656 -70.023438 -11.789062 -70.96875 -13.4375 -73.5625 C -13.675781 -80.164062 -12.320312 -86.585938 -9.375 -92.828125 C -6.425781 -99.078125 -2.828125 -106.328125 1.421875 -114.578125 C 1.890625 -115.523438 2.535156 -116.878906 3.359375 -118.640625 C 4.179688 -120.410156 5.125 -121.828125 6.1875 -122.890625 C 7.25 -123.953125 8.3125 -124.539062 9.375 -124.65625 C 10.4375 -124.78125 11.554688 -123.78125 12.734375 -121.65625 C 12.265625 -119.0625 11.5 -116.820312 10.4375 -114.9375 C 9.375 -113.050781 8.253906 -110.929688 7.078125 -108.578125 C 5.421875 -103.390625 3.648438 -99.023438 1.765625 -95.484375 C 1.765625 -94.546875 1.410156 -94.132812 0.703125 -94.25 C -0.00390625 -94.363281 -0.59375 -94.1875 -1.0625 -93.71875 C -1.769531 -91.59375 -2.535156 -89.53125 -3.359375 -87.53125 C -4.179688 -85.53125 -4.945312 -83.46875 -5.65625 -81.34375 Z M 55.875 -158.078125 C 56.582031 -156.191406 56.226562 -154.597656 54.8125 -153.296875 C 53.394531 -152.003906 52.21875 -150.769531 51.28125 -149.59375 C 49.863281 -148.414062 48.445312 -147.351562 47.03125 -146.40625 C 45.613281 -145.46875 44.082031 -144.644531 42.4375 -143.9375 C 41.488281 -143.695312 39.835938 -143.578125 37.484375 -143.578125 C 34.890625 -144.765625 32.828125 -146.414062 31.296875 -148.53125 C 29.765625 -150.65625 28.054688 -152.660156 26.171875 -154.546875 C 24.753906 -153.609375 23.570312 -152.429688 22.625 -151.015625 C 21.6875 -149.597656 20.628906 -148.300781 19.453125 -147.125 C 18.035156 -145.945312 16.972656 -144.53125 16.265625 -142.875 C 15.554688 -141.226562 14.023438 -140.519531 11.671875 -140.75 C 11.671875 -140.988281 11.316406 -141.109375 10.609375 -141.109375 C 9.429688 -143.703125 9.609375 -145.820312 11.140625 -147.46875 C 12.671875 -149.125 14.023438 -150.660156 15.203125 -152.078125 C 17.566406 -155.140625 20.394531 -157.96875 23.6875 -160.5625 C 26.050781 -161.269531 27.878906 -161.09375 29.171875 -160.03125 C 30.472656 -158.96875 31.648438 -157.609375 32.703125 -155.953125 C 33.765625 -154.304688 34.828125 -152.71875 35.890625 -151.1875 C 36.953125 -149.65625 38.425781 -148.890625 40.3125 -148.890625 C 42.4375 -148.648438 44.207031 -149.175781 45.625 -150.46875 C 47.039062 -151.769531 48.570312 -152.894531 50.21875 -153.84375 C 51.15625 -154.550781 51.921875 -155.550781 52.515625 -156.84375 C 53.109375 -158.144531 54.226562 -158.554688 55.875 -158.078125 Z M 55.875 -158.078125 "/></g></g></g><g fill="#000000" fill-opacity="1"><g transform="translate(871.411327, 536.970931)"><g><path d="M 83.46875 -110.34375 C 82.988281 -108.21875 81.75 -106.800781 79.75 -106.09375 C 77.75 -105.382812 76.039062 -104.441406 74.625 -103.265625 C 69.90625 -99.960938 65.1875 -96.71875 60.46875 -93.53125 C 55.757812 -90.351562 50.925781 -87.113281 45.96875 -83.8125 C 41.96875 -80.988281 37.726562 -78.039062 33.25 -74.96875 C 28.769531 -71.90625 24.226562 -69.253906 19.625 -67.015625 C 15.03125 -64.773438 10.609375 -63.300781 6.359375 -62.59375 C 2.117188 -61.882812 -1.882812 -62.710938 -5.65625 -65.078125 C -7.78125 -66.722656 -9.195312 -69.078125 -9.90625 -72.140625 C -10.613281 -75.210938 -10.847656 -78.457031 -10.609375 -81.875 C -10.367188 -85.289062 -9.71875 -88.53125 -8.65625 -91.59375 C -7.601562 -94.65625 -6.488281 -97.25 -5.3125 -99.375 C -6.25 -99.375 -7.25 -99.140625 -8.3125 -98.671875 C -9.375 -98.203125 -10.140625 -98.554688 -10.609375 -99.734375 C -10.609375 -101.378906 -9.78125 -102.203125 -8.125 -102.203125 C -6.476562 -102.203125 -5.066406 -102.4375 -3.890625 -102.90625 C -2.472656 -105.03125 -1 -107.269531 0.53125 -109.625 C 2.0625 -111.988281 3.648438 -114.226562 5.296875 -116.34375 C 6.953125 -118.46875 8.898438 -120.296875 11.140625 -121.828125 C 13.378906 -123.367188 15.914062 -124.488281 18.75 -125.1875 C 19.6875 -125.1875 20.390625 -125.066406 20.859375 -124.828125 C 21.335938 -124.597656 21.8125 -124.25 22.28125 -123.78125 L 23.34375 -121.65625 C 22.164062 -115.757812 19.6875 -111.28125 15.90625 -108.21875 C 12.132812 -105.15625 7.773438 -102.679688 2.828125 -100.796875 C 0.941406 -97.253906 -0.765625 -93.597656 -2.296875 -89.828125 C -3.828125 -86.054688 -4.476562 -81.457031 -4.25 -76.03125 C -3.539062 -71.789062 -1.300781 -69.195312 2.46875 -68.25 C 7.425781 -68.488281 11.90625 -69.375 15.90625 -70.90625 C 19.914062 -72.4375 23.570312 -74.203125 26.875 -76.203125 C 30.175781 -78.210938 33.414062 -80.335938 36.59375 -82.578125 C 39.78125 -84.816406 43.144531 -86.878906 46.6875 -88.765625 C 51.164062 -91.828125 55.703125 -94.890625 60.296875 -97.953125 C 64.890625 -101.023438 69.546875 -103.972656 74.265625 -106.796875 C 75.441406 -107.503906 76.851562 -108.566406 78.5 -109.984375 C 80.15625 -111.398438 81.8125 -111.519531 83.46875 -110.34375 Z M 6.359375 -106.09375 C 8.722656 -107.976562 11.140625 -109.921875 13.609375 -111.921875 C 16.085938 -113.929688 17.5625 -116.585938 18.03125 -119.890625 C 15.4375 -118.234375 13.140625 -116.164062 11.140625 -113.6875 C 9.140625 -111.21875 7.546875 -108.6875 6.359375 -106.09375 Z M 6.359375 -106.09375 "/></g></g></g><g fill="#000000" fill-opacity="1"><g transform="translate(950.276222, 536.970931)"><g><path d="M 43.5 -72.5 C 53.875 -78.625 64.539062 -84.515625 75.5 -90.171875 C 86.46875 -95.835938 97.609375 -101.378906 108.921875 -106.796875 C 110.097656 -107.503906 111.507812 -108.390625 113.15625 -109.453125 C 114.8125 -110.515625 116.46875 -110.457031 118.125 -109.28125 C 118.59375 -106.925781 117.765625 -105.507812 115.640625 -105.03125 C 113.523438 -104.5625 111.875 -103.851562 110.6875 -102.90625 C 99.613281 -97.25 88.648438 -91.59375 77.796875 -85.9375 C 66.953125 -80.28125 56.34375 -74.269531 45.96875 -67.90625 C 48.09375 -64.132812 49.742188 -59.59375 50.921875 -54.28125 C 52.097656 -48.976562 52.742188 -43.4375 52.859375 -37.65625 C 52.984375 -31.882812 52.570312 -26.226562 51.625 -20.6875 C 50.6875 -15.144531 49.15625 -10.253906 47.03125 -6.015625 C 41.132812 7.421875 33.585938 19.269531 24.390625 29.53125 C 15.203125 39.789062 5.484375 48.335938 -4.765625 55.171875 C -15.023438 62.003906 -25.28125 67.128906 -35.53125 70.546875 C -45.789062 73.972656 -54.988281 75.507812 -63.125 75.15625 C -71.257812 74.800781 -77.800781 72.5 -82.75 68.25 C -87.707031 64.007812 -89.832031 57.765625 -89.125 49.515625 C -88.882812 45.035156 -88 40.90625 -86.46875 37.125 C -84.9375 33.351562 -83.109375 29.875 -80.984375 26.6875 C -78.859375 23.507812 -76.675781 20.445312 -74.4375 17.5 C -72.195312 14.550781 -70.019531 11.664062 -67.90625 8.84375 C -52.582031 -6.71875 -35.84375 -20.6875 -17.6875 -33.0625 C 0.46875 -45.445312 19.09375 -57.53125 38.1875 -69.3125 C 37.007812 -71.90625 35.535156 -74.265625 33.765625 -76.390625 C 32.003906 -78.515625 30.179688 -80.519531 28.296875 -82.40625 C 26.640625 -84.757812 24.691406 -86.820312 22.453125 -88.59375 C 20.210938 -90.363281 18.976562 -92.894531 18.75 -96.1875 C 18.75 -99.488281 20.046875 -102.316406 22.640625 -104.671875 C 25.234375 -107.035156 27.472656 -109.28125 29.359375 -111.40625 C 31.710938 -114 33.890625 -116.351562 35.890625 -118.46875 C 37.898438 -120.59375 39.492188 -122.953125 40.671875 -125.546875 C 37.609375 -124.835938 34.71875 -123.894531 32 -122.71875 C 29.289062 -121.539062 26.640625 -120.242188 24.046875 -118.828125 C 21.453125 -117.410156 18.914062 -115.9375 16.4375 -114.40625 C 13.96875 -112.875 11.789062 -111.164062 9.90625 -109.28125 C 8.019531 -108.8125 6.601562 -107.75 5.65625 -106.09375 C 4.71875 -104.445312 3.066406 -103.503906 0.703125 -103.265625 C -1.179688 -103.972656 -2.179688 -104.914062 -2.296875 -106.09375 C -2.410156 -107.269531 -2.054688 -108.503906 -1.234375 -109.796875 C -0.410156 -111.097656 0.644531 -112.28125 1.9375 -113.34375 C 3.238281 -114.40625 4.363281 -115.171875 5.3125 -115.640625 C 6.957031 -116.816406 8.660156 -117.9375 10.421875 -119 C 12.191406 -120.0625 14.023438 -121.179688 15.921875 -122.359375 C 19.210938 -124.015625 22.863281 -126.078125 26.875 -128.546875 C 30.882812 -131.023438 35.25 -132.5 39.96875 -132.96875 C 41.851562 -133.207031 43.5625 -132.972656 45.09375 -132.265625 C 46.625 -131.554688 47.742188 -130.378906 48.453125 -128.734375 C 48.453125 -128.492188 48.566406 -128.375 48.796875 -128.375 C 48.566406 -124.363281 47.445312 -121.117188 45.4375 -118.640625 C 43.4375 -116.171875 41.140625 -113.640625 38.546875 -111.046875 C 37.367188 -109.867188 36.25 -108.75 35.1875 -107.6875 C 34.125 -106.625 32.882812 -105.503906 31.46875 -104.328125 C 30.289062 -103.148438 28.992188 -101.910156 27.578125 -100.609375 C 26.171875 -99.316406 25.46875 -97.960938 25.46875 -96.546875 C 25.46875 -95.367188 25.878906 -94.25 26.703125 -93.1875 C 27.523438 -92.125 28.46875 -91.117188 29.53125 -90.171875 C 30.59375 -89.234375 31.648438 -88.289062 32.703125 -87.34375 C 33.765625 -86.40625 34.414062 -85.46875 34.65625 -84.53125 C 36.539062 -82.875 38.128906 -80.984375 39.421875 -78.859375 C 40.722656 -76.742188 42.082031 -74.625 43.5 -72.5 Z M 39.609375 -64.359375 C 21.222656 -52.804688 3.128906 -40.957031 -14.671875 -28.8125 C -32.472656 -16.675781 -48.800781 -3.0625 -63.65625 12.03125 C -68.132812 17.445312 -72.613281 23.691406 -77.09375 30.765625 C -81.570312 37.835938 -83.8125 44.910156 -83.8125 51.984375 C -84.050781 55.753906 -83.285156 58.992188 -81.515625 61.703125 C -79.742188 64.421875 -77.5625 66.367188 -74.96875 67.546875 C -70.726562 69.671875 -66.191406 70.671875 -61.359375 70.546875 C -56.523438 70.429688 -51.691406 69.84375 -46.859375 68.78125 C -42.023438 67.71875 -37.484375 66.242188 -33.234375 64.359375 C -28.992188 62.472656 -25.34375 60.828125 -22.28125 59.421875 C -15.914062 56.117188 -9.488281 52.050781 -3 47.21875 C 3.476562 42.382812 9.546875 36.957031 15.203125 30.9375 C 20.859375 24.925781 25.984375 18.503906 30.578125 11.671875 C 35.179688 4.835938 38.898438 -2.234375 41.734375 -9.546875 C 45.035156 -17.796875 46.800781 -27.109375 47.03125 -37.484375 C 47.269531 -47.859375 45.269531 -56.9375 41.03125 -64.71875 C 40.789062 -64.957031 40.671875 -65.078125 40.671875 -65.078125 C 40.429688 -65.078125 40.078125 -64.835938 39.609375 -64.359375 Z M 39.609375 -64.359375 "/></g></g></g><g fill="#000000" fill-opacity="1"><g transform="translate(1065.213946, 536.970931)"><g/></g></g></g></g></g></g></g></mask><clipPath id="d54f9c9f22"><path d="M 0 0 L 1440 0 L 1440 810 L 0 810 Z M 0 0 " clip-rule="nonzero"/></clipPath><clipPath id="e52aedceb7"><rect x="0" width="1440" y="0" height="810"/></clipPath><clipPath id="4832fdb063"><rect x="0" width="1440" y="0" height="810"/></clipPath><clipPath id="5b94f8b3ff"><rect x="0" width="318" y="0" height="238"/></clipPath></defs><g transform="matrix(1, 0, 0, 1, 390, 302)"><g clip-path="url(#9e036df8c0)"><g fill="#545454" fill-opacity="1"><g transform="translate(0.855458, 104.859045)"><g><path d="M 113.375 -2.265625 C 114.082031 -2.171875 114.410156 -1.769531 114.359375 -1.0625 C 114.316406 -0.351562 113.941406 0 113.234375 0 L 87.71875 0 C 87.007812 0 86.65625 -0.351562 86.65625 -1.0625 C 86.65625 -1.769531 86.960938 -2.171875 87.578125 -2.265625 C 89.085938 -2.523438 90.460938 -2.695312 91.703125 -2.78125 C 92.941406 -2.875 93.9375 -3.34375 94.6875 -4.1875 C 95.445312 -5.03125 95.828125 -6.601562 95.828125 -8.90625 L 95.828125 -44.25 C 95.828125 -48.59375 94.382812 -51.785156 91.5 -53.828125 C 88.625 -55.867188 85.328125 -56.890625 81.609375 -56.890625 C 78.679688 -56.890625 75.800781 -56.265625 72.96875 -55.015625 C 70.132812 -53.773438 67.785156 -51.957031 65.921875 -49.5625 C 64.054688 -47.175781 63.082031 -44.210938 63 -40.671875 L 63 -8.90625 C 63 -6.601562 63.394531 -5.03125 64.1875 -4.1875 C 64.988281 -3.34375 66.03125 -2.875 67.3125 -2.78125 C 68.601562 -2.695312 69.957031 -2.523438 71.375 -2.265625 C 72.082031 -2.171875 72.410156 -1.769531 72.359375 -1.0625 C 72.316406 -0.351562 71.941406 0 71.234375 0 L 45.71875 0 C 45.101562 0 44.769531 -0.351562 44.71875 -1.0625 C 44.675781 -1.769531 44.96875 -2.171875 45.59375 -2.265625 C 47.09375 -2.523438 48.484375 -2.695312 49.765625 -2.78125 C 51.054688 -2.875 52.078125 -3.34375 52.828125 -4.1875 C 53.578125 -5.03125 53.953125 -6.601562 53.953125 -8.90625 L 53.953125 -44.25 C 53.953125 -48.59375 52.515625 -51.785156 49.640625 -53.828125 C 46.765625 -55.867188 43.460938 -56.890625 39.734375 -56.890625 C 36.816406 -56.890625 33.914062 -56.265625 31.03125 -55.015625 C 28.15625 -53.773438 25.785156 -51.9375 23.921875 -49.5 C 22.054688 -47.070312 21.125 -44.082031 21.125 -40.53125 L 21.125 -8.90625 C 21.125 -6.601562 21.5 -5.03125 22.25 -4.1875 C 23.007812 -3.34375 24.03125 -2.875 25.3125 -2.78125 C 26.601562 -2.695312 28 -2.523438 29.5 -2.265625 C 30.125 -2.171875 30.4375 -1.769531 30.4375 -1.0625 C 30.4375 -0.351562 30.082031 0 29.375 0 L 3.71875 0 C 3.101562 0 2.769531 -0.351562 2.71875 -1.0625 C 2.675781 -1.769531 2.96875 -2.171875 3.59375 -2.265625 C 5.09375 -2.523438 6.484375 -2.695312 7.765625 -2.78125 C 9.054688 -2.875 10.078125 -3.34375 10.828125 -4.1875 C 11.585938 -5.03125 11.96875 -6.601562 11.96875 -8.90625 L 11.96875 -47.1875 C 11.96875 -49.570312 11.8125 -51.25 11.5 -52.21875 C 11.1875 -53.195312 10.519531 -53.773438 9.5 -53.953125 C 8.476562 -54.128906 6.90625 -54.21875 4.78125 -54.21875 C 4.164062 -54.21875 3.769531 -54.550781 3.59375 -55.21875 C 3.414062 -55.882812 3.859375 -56.351562 4.921875 -56.625 C 7.398438 -57.332031 9.898438 -58.082031 12.421875 -58.875 C 14.953125 -59.675781 17.320312 -60.609375 19.53125 -61.671875 C 19.882812 -61.847656 20.238281 -61.890625 20.59375 -61.796875 C 20.945312 -61.710938 21.125 -61.445312 21.125 -61 L 21.125 -50.90625 C 23.4375 -54.625 26.539062 -57.390625 30.4375 -59.203125 C 34.332031 -61.023438 38.316406 -61.9375 42.390625 -61.9375 C 46.828125 -61.9375 50.945312 -60.875 54.75 -58.75 C 58.5625 -56.625 61.046875 -53.476562 62.203125 -49.3125 C 64.410156 -53.476562 67.597656 -56.597656 71.765625 -58.671875 C 75.929688 -60.753906 80.1875 -61.796875 84.53125 -61.796875 C 88.070312 -61.796875 91.390625 -61.128906 94.484375 -59.796875 C 97.585938 -58.472656 100.113281 -56.523438 102.0625 -53.953125 C 104.019531 -51.390625 105 -48.15625 105 -44.25 L 105 -8.90625 C 105 -6.601562 105.375 -5.03125 106.125 -4.1875 C 106.875 -3.34375 107.890625 -2.875 109.171875 -2.78125 C 110.460938 -2.695312 111.863281 -2.523438 113.375 -2.265625 Z M 113.375 -2.265625 "/></g></g></g><g fill="#545454" fill-opacity="1"><g transform="translate(115.284821, 104.859045)"><g><path d="M 117.890625 -57.953125 C 120.191406 -56.085938 121.429688 -54.3125 121.609375 -52.625 C 121.785156 -50.945312 121.382812 -49.550781 120.40625 -48.4375 C 119.4375 -47.332031 118.285156 -46.78125 116.953125 -46.78125 C 115.984375 -46.78125 115.054688 -47.132812 114.171875 -47.84375 C 113.285156 -48.550781 112.617188 -49.703125 112.171875 -51.296875 C 111.191406 -54.929688 108.179688 -56.75 103.140625 -56.75 C 98.347656 -56.75 94.09375 -55.835938 90.375 -54.015625 C 86.65625 -52.203125 83.285156 -49.878906 80.265625 -47.046875 C 77.253906 -44.210938 74.332031 -41.195312 71.5 -38 C 68.664062 -34.8125 65.675781 -31.800781 62.53125 -28.96875 C 59.382812 -26.132812 55.90625 -23.804688 52.09375 -21.984375 C 48.289062 -20.171875 43.863281 -19.265625 38.8125 -19.265625 C 31.101562 -19.265625 25.007812 -20.925781 20.53125 -24.25 C 16.0625 -27.570312 13.117188 -31.40625 11.703125 -35.75 C 11.785156 -35.394531 11.847656 -35.0625 11.890625 -34.75 C 11.941406 -34.445312 12.007812 -34.160156 12.09375 -33.890625 C 11.832031 -29.992188 12.054688 -26.117188 12.765625 -22.265625 C 13.472656 -18.410156 14.6875 -14.882812 16.40625 -11.6875 C 18.132812 -8.5 20.347656 -5.953125 23.046875 -4.046875 C 25.753906 -2.148438 28.96875 -1.203125 32.6875 -1.203125 C 37.914062 -1.203125 42.144531 -2.972656 45.375 -6.515625 C 48.613281 -10.054688 50.898438 -14.351562 52.234375 -19.40625 C 54.453125 -20.46875 56.664062 -21.753906 58.875 -23.265625 C 59.851562 -23.972656 60.648438 -24.328125 61.265625 -24.328125 C 62.503906 -24.328125 62.859375 -23.304688 62.328125 -21.265625 C 61.359375 -17.191406 59.585938 -13.445312 57.015625 -10.03125 C 54.441406 -6.625 51.140625 -3.878906 47.109375 -1.796875 C 43.078125 0.285156 38.269531 1.328125 32.6875 1.328125 C 26.84375 1.328125 21.835938 0.195312 17.671875 -2.0625 C 13.515625 -4.320312 10.171875 -7.332031 7.640625 -11.09375 C 5.117188 -14.863281 3.4375 -19.003906 2.59375 -23.515625 C 1.75 -28.035156 1.75 -32.53125 2.59375 -37 C 3.4375 -41.476562 5.117188 -45.597656 7.640625 -49.359375 C 10.171875 -53.128906 13.515625 -56.144531 17.671875 -58.40625 C 21.835938 -60.664062 26.84375 -61.796875 32.6875 -61.796875 C 38.894531 -61.796875 44.144531 -60.53125 48.4375 -58 C 52.738281 -55.476562 56.109375 -52.15625 58.546875 -48.03125 C 60.984375 -43.914062 62.507812 -39.515625 63.125 -34.828125 C 64.988281 -36.679688 66.828125 -38.648438 68.640625 -40.734375 C 70.460938 -42.816406 72.300781 -44.832031 74.15625 -46.78125 L 74.15625 -47.046875 C 74.15625 -49.441406 74 -51.144531 73.6875 -52.15625 C 73.382812 -53.175781 72.722656 -53.773438 71.703125 -53.953125 C 70.679688 -54.128906 69.109375 -54.21875 66.984375 -54.21875 C 66.359375 -54.21875 65.957031 -54.53125 65.78125 -55.15625 C 65.601562 -55.78125 66.050781 -56.222656 67.125 -56.484375 C 69.601562 -57.191406 72.101562 -57.941406 74.625 -58.734375 C 77.15625 -59.535156 79.523438 -60.46875 81.734375 -61.53125 C 82.085938 -61.707031 82.441406 -61.773438 82.796875 -61.734375 C 83.148438 -61.691406 83.328125 -61.445312 83.328125 -61 L 83.328125 -55.015625 C 86.078125 -57.054688 89.046875 -58.695312 92.234375 -59.9375 C 95.421875 -61.175781 99.054688 -61.796875 103.140625 -61.796875 C 106.410156 -61.796875 109.242188 -61.53125 111.640625 -61 C 114.035156 -60.46875 116.117188 -59.453125 117.890625 -57.953125 Z M 53.421875 -27.109375 C 53.691406 -31.003906 53.472656 -34.859375 52.765625 -38.671875 C 52.054688 -42.484375 50.835938 -45.9375 49.109375 -49.03125 C 47.378906 -52.132812 45.140625 -54.617188 42.390625 -56.484375 C 39.648438 -58.347656 36.414062 -59.28125 32.6875 -59.28125 C 32.601562 -59.28125 32.5625 -59.28125 32.5625 -59.28125 C 32.5625 -59.28125 32.515625 -59.28125 32.421875 -59.28125 L 31.765625 -59.140625 C 31.765625 -59.140625 31.738281 -59.140625 31.6875 -59.140625 C 31.644531 -59.140625 31.582031 -59.140625 31.5 -59.140625 C 31.40625 -59.140625 31.335938 -59.140625 31.296875 -59.140625 C 31.253906 -59.140625 31.144531 -59.140625 30.96875 -59.140625 L 30.171875 -59.015625 C 30.078125 -59.015625 29.984375 -59.015625 29.890625 -59.015625 C 29.804688 -59.015625 29.722656 -59.015625 29.640625 -59.015625 C 29.285156 -58.921875 28.882812 -58.828125 28.4375 -58.734375 C 28 -58.648438 27.554688 -58.566406 27.109375 -58.484375 C 23.472656 -57.421875 20.632812 -55.554688 18.59375 -52.890625 C 16.5625 -50.234375 15.390625 -47.222656 15.078125 -43.859375 C 14.773438 -40.492188 15.394531 -37.238281 16.9375 -34.09375 C 18.488281 -30.945312 21.082031 -28.351562 24.71875 -26.3125 C 28.351562 -24.28125 33.050781 -23.265625 38.8125 -23.265625 C 41.644531 -23.265625 44.253906 -23.617188 46.640625 -24.328125 C 49.035156 -25.035156 51.296875 -25.960938 53.421875 -27.109375 Z M 91.703125 -2.125 C 92.328125 -2.039062 92.640625 -1.640625 92.640625 -0.921875 C 92.640625 -0.210938 92.285156 0.140625 91.578125 0.140625 L 65.921875 0.140625 C 65.296875 0.140625 64.960938 -0.210938 64.921875 -0.921875 C 64.878906 -1.640625 65.164062 -2.039062 65.78125 -2.125 C 67.289062 -2.394531 68.6875 -2.570312 69.96875 -2.65625 C 71.257812 -2.75 72.28125 -3.210938 73.03125 -4.046875 C 73.78125 -4.890625 74.15625 -6.460938 74.15625 -8.765625 L 74.15625 -39.609375 C 75.488281 -40.847656 76.507812 -41.796875 77.21875 -42.453125 C 77.925781 -43.117188 78.722656 -43.851562 79.609375 -44.65625 C 80.492188 -45.363281 81.25 -45.71875 81.875 -45.71875 C 82.84375 -45.71875 83.328125 -44.921875 83.328125 -43.328125 L 83.328125 -8.765625 C 83.328125 -6.460938 83.703125 -4.890625 84.453125 -4.046875 C 85.210938 -3.210938 86.234375 -2.75 87.515625 -2.65625 C 88.804688 -2.570312 90.203125 -2.394531 91.703125 -2.125 Z M 91.703125 -2.125 "/></g></g></g><g fill="#545454" fill-opacity="1"><g transform="translate(244.998013, 104.859045)"><g><path d="M 132.109375 -2.390625 C 132.734375 -2.304688 133.046875 -1.910156 133.046875 -1.203125 C 133.046875 -0.492188 132.6875 -0.140625 131.96875 -0.140625 L 122.8125 -0.140625 C 119.175781 -0.140625 116.890625 -0.976562 115.953125 -2.65625 C 115.023438 -4.34375 114.5625 -6.378906 114.5625 -8.765625 C 114.5625 -15.148438 114.5625 -21.085938 114.5625 -26.578125 C 114.5625 -32.078125 114.5625 -38.015625 114.5625 -44.390625 C 114.5625 -48.460938 113.234375 -51.519531 110.578125 -53.5625 C 107.921875 -55.601562 104.773438 -56.753906 101.140625 -57.015625 C 96.710938 -57.015625 92.925781 -55.972656 89.78125 -53.890625 C 86.632812 -51.804688 83.84375 -49.054688 81.40625 -45.640625 C 78.96875 -42.234375 76.6875 -38.46875 74.5625 -34.34375 C 72.4375 -30.226562 70.242188 -26.132812 67.984375 -22.0625 C 65.722656 -17.988281 63.148438 -14.242188 60.265625 -10.828125 C 57.390625 -7.421875 53.976562 -4.675781 50.03125 -2.59375 C 46.09375 -0.507812 41.378906 0.53125 35.890625 0.53125 C 35.535156 0.53125 35.179688 0.53125 34.828125 0.53125 C 34.472656 0.53125 34.070312 0.53125 33.625 0.53125 C 28.664062 0.53125 23.859375 -0.484375 19.203125 -2.515625 C 14.554688 -4.554688 10.703125 -7.859375 7.640625 -12.421875 C 4.585938 -16.984375 2.972656 -23.03125 2.796875 -30.5625 C 2.796875 -36.769531 3.945312 -42.242188 6.25 -46.984375 C 8.550781 -51.722656 11.875 -55.441406 16.21875 -58.140625 C 20.5625 -60.847656 25.742188 -62.203125 31.765625 -62.203125 L 32.953125 -62.203125 C 38.453125 -62.023438 43.191406 -60.757812 47.171875 -58.40625 C 51.160156 -56.0625 54.238281 -52.875 56.40625 -48.84375 C 58.582031 -44.8125 59.671875 -40.179688 59.671875 -34.953125 C 59.671875 -33.796875 59.316406 -32.796875 58.609375 -31.953125 C 57.898438 -31.117188 56.789062 -30.703125 55.28125 -30.703125 L 13.03125 -30.703125 C 13.03125 -24.140625 14.132812 -18.820312 16.34375 -14.75 C 18.5625 -10.675781 21.421875 -7.726562 24.921875 -5.90625 C 28.421875 -4.09375 32.078125 -3.234375 35.890625 -3.328125 C 40.578125 -3.328125 44.648438 -4.320312 48.109375 -6.3125 C 51.566406 -8.300781 54.625 -10.9375 57.28125 -14.21875 C 59.9375 -17.5 62.375 -21.128906 64.59375 -25.109375 C 66.8125 -29.097656 68.984375 -33.085938 71.109375 -37.078125 L 71.109375 -47.3125 C 71.109375 -49.707031 70.953125 -51.390625 70.640625 -52.359375 C 70.328125 -53.335938 69.660156 -53.914062 68.640625 -54.09375 C 67.628906 -54.269531 66.054688 -54.359375 63.921875 -54.359375 C 63.304688 -54.359375 62.910156 -54.691406 62.734375 -55.359375 C 62.554688 -56.023438 63 -56.488281 64.0625 -56.75 C 66.457031 -57.457031 68.9375 -58.207031 71.5 -59 C 74.070312 -59.800781 76.46875 -60.734375 78.6875 -61.796875 C 79.039062 -61.972656 79.394531 -62.015625 79.75 -61.921875 C 80.101562 -61.835938 80.28125 -61.578125 80.28125 -61.140625 L 80.28125 -51.171875 C 82.84375 -54.359375 85.804688 -56.96875 89.171875 -59 C 92.546875 -61.039062 96.535156 -62.0625 101.140625 -62.0625 C 104.953125 -62.238281 108.582031 -61.6875 112.03125 -60.40625 C 115.488281 -59.125 118.300781 -57.148438 120.46875 -54.484375 C 122.644531 -51.828125 123.734375 -48.460938 123.734375 -44.390625 C 123.734375 -38.453125 123.734375 -32.554688 123.734375 -26.703125 C 123.734375 -20.859375 123.734375 -14.96875 123.734375 -9.03125 C 123.734375 -6.726562 124.109375 -5.15625 124.859375 -4.3125 C 125.617188 -3.476562 126.640625 -3.015625 127.921875 -2.921875 C 129.203125 -2.835938 130.597656 -2.660156 132.109375 -2.390625 Z M 32.953125 -58.34375 C 26.492188 -58.164062 21.691406 -55.90625 18.546875 -51.5625 C 15.398438 -47.226562 13.601562 -41.515625 13.15625 -34.421875 L 43.859375 -34.421875 C 46.429688 -34.421875 48.25 -34.972656 49.3125 -36.078125 C 50.375 -37.191406 50.90625 -38.851562 50.90625 -41.0625 C 50.988281 -43.988281 50.34375 -46.757812 48.96875 -49.375 C 47.601562 -51.988281 45.566406 -54.132812 42.859375 -55.8125 C 40.160156 -57.5 36.859375 -58.34375 32.953125 -58.34375 Z M 88.640625 -2.390625 C 89.265625 -2.304688 89.578125 -1.910156 89.578125 -1.203125 C 89.578125 -0.492188 89.222656 -0.140625 88.515625 -0.140625 L 62.859375 -0.140625 C 62.242188 -0.140625 61.910156 -0.492188 61.859375 -1.203125 C 61.816406 -1.910156 62.109375 -2.304688 62.734375 -2.390625 C 64.234375 -2.660156 65.625 -2.835938 66.90625 -2.921875 C 68.195312 -3.015625 69.21875 -3.476562 69.96875 -4.3125 C 70.726562 -5.15625 71.109375 -6.726562 71.109375 -9.03125 L 71.109375 -23.390625 C 72.078125 -25.335938 73.046875 -27.265625 74.015625 -29.171875 C 74.992188 -31.078125 75.972656 -32.914062 76.953125 -34.6875 C 77.484375 -35.488281 78.101562 -35.890625 78.8125 -35.890625 C 79.789062 -35.890625 80.28125 -35.222656 80.28125 -33.890625 L 80.28125 -9.03125 C 80.28125 -6.726562 80.65625 -5.15625 81.40625 -4.3125 C 82.15625 -3.476562 83.171875 -3.015625 84.453125 -2.921875 C 85.742188 -2.835938 87.140625 -2.660156 88.640625 -2.390625 Z M 88.640625 -2.390625 "/></g></g></g><g fill="#545454" fill-opacity="1"><g transform="translate(380.691823, 104.859045)"><g><path d="M 33.359375 -61.9375 C 39.203125 -61.9375 44.226562 -60.78125 48.4375 -58.46875 C 52.644531 -56.164062 56.007812 -53.15625 58.53125 -49.4375 C 61.0625 -45.71875 62.722656 -41.597656 63.515625 -37.078125 C 64.316406 -32.554688 64.316406 -28.035156 63.515625 -23.515625 C 62.722656 -19.003906 61.0625 -14.882812 58.53125 -11.15625 C 56.007812 -7.4375 52.644531 -4.425781 48.4375 -2.125 C 44.226562 0.175781 39.203125 1.328125 33.359375 1.328125 C 27.515625 1.328125 22.507812 0.175781 18.34375 -2.125 C 14.175781 -4.425781 10.828125 -7.4375 8.296875 -11.15625 C 5.773438 -14.882812 4.09375 -19.003906 3.25 -23.515625 C 2.414062 -28.035156 2.414062 -32.554688 3.25 -37.078125 C 4.09375 -41.597656 5.773438 -45.71875 8.296875 -49.4375 C 10.828125 -53.15625 14.175781 -56.164062 18.34375 -58.46875 C 22.507812 -60.78125 27.515625 -61.9375 33.359375 -61.9375 Z M 33.359375 -1.328125 C 37.347656 -1.328125 40.738281 -2.367188 43.53125 -4.453125 C 46.320312 -6.535156 48.578125 -9.300781 50.296875 -12.75 C 52.023438 -16.207031 53.175781 -19.992188 53.75 -24.109375 C 54.332031 -28.234375 54.332031 -32.351562 53.75 -36.46875 C 53.175781 -40.59375 52.046875 -44.382812 50.359375 -47.84375 C 48.679688 -51.300781 46.425781 -54.070312 43.59375 -56.15625 C 40.757812 -58.238281 37.347656 -59.28125 33.359375 -59.28125 C 29.367188 -59.28125 25.957031 -58.238281 23.125 -56.15625 C 20.289062 -54.070312 18.03125 -51.300781 16.34375 -47.84375 C 14.664062 -44.382812 13.535156 -40.59375 12.953125 -36.46875 C 12.378906 -32.351562 12.378906 -28.234375 12.953125 -24.109375 C 13.535156 -19.992188 14.6875 -16.207031 16.40625 -12.75 C 18.132812 -9.300781 20.394531 -6.535156 23.1875 -4.453125 C 25.976562 -2.367188 29.367188 -1.328125 33.359375 -1.328125 Z M 33.359375 -1.328125 "/></g></g></g><g clip-path="url(#8a3e782506)"><g fill="#545454" fill-opacity="1"><g transform="translate(447.542534, 104.859045)"><g/></g></g></g></g></g><g transform="matrix(1, 0, 0, 1, 0, 0.000000000000039746)"><g clip-path="url(#4832fdb063)"><g mask="url(#9444ca6ce7)"><g transform="matrix(1, 0, 0, 1, 0, 0.000000000000039746)"><g clip-path="url(#e52aedceb7)"><g clip-path="url(#d54f9c9f22)"><rect x="-524.16" fill="url(#21e19490eb)" width="2488.32" y="-294.839997" height="1399.679988"/></g></g></g></g></g></g><g transform="matrix(1, 0, 0, 1, 392, 167)"><g clip-path="url(#5b94f8b3ff)"><g fill="#545454" fill-opacity="1"><g transform="translate(1.402544, 167.457541)"><g><path d="M 210.328125 -3.625 C 211.453125 -3.476562 211.976562 -2.835938 211.90625 -1.703125 C 211.84375 -0.566406 211.242188 0 210.109375 0 L 195.421875 0 C 189.597656 0 185.941406 -1.378906 184.453125 -4.140625 C 182.960938 -6.910156 182.21875 -10.144531 182.21875 -13.84375 C 182.21875 -24.050781 182.21875 -33.585938 182.21875 -42.453125 C 182.21875 -51.328125 182.21875 -60.804688 182.21875 -70.890625 C 182.21875 -75.710938 181.007812 -79.828125 178.59375 -83.234375 C 176.1875 -86.640625 173.101562 -89.265625 169.34375 -91.109375 C 165.582031 -92.953125 161.503906 -93.804688 157.109375 -93.671875 C 149.441406 -93.671875 142.625 -91.96875 136.65625 -88.5625 C 130.695312 -85.15625 125.34375 -80.613281 120.59375 -74.9375 C 115.84375 -69.257812 111.335938 -63.046875 107.078125 -56.296875 C 102.816406 -49.554688 98.519531 -42.78125 94.1875 -35.96875 C 89.863281 -29.164062 85.179688 -22.925781 80.140625 -17.25 C 75.109375 -11.570312 69.429688 -7.03125 63.109375 -3.625 C 56.796875 -0.21875 49.523438 1.484375 41.296875 1.484375 C 32.640625 2.191406 25.398438 1.203125 19.578125 -1.484375 C 13.765625 -4.179688 9.332031 -7.835938 6.28125 -12.453125 C 3.226562 -17.066406 1.628906 -22.035156 1.484375 -27.359375 C 1.347656 -32.679688 2.625 -37.753906 5.3125 -42.578125 C 8.007812 -47.398438 12.09375 -51.367188 17.5625 -54.484375 C 23.03125 -57.609375 29.878906 -59.171875 38.109375 -59.171875 C 44.921875 -59.171875 50.5625 -58.175781 55.03125 -56.1875 C 59.5 -54.207031 63.007812 -52.117188 65.5625 -49.921875 C 68.113281 -47.722656 69.957031 -46.195312 71.09375 -45.34375 L 71.09375 -72.59375 C 71.09375 -77.5625 69.851562 -81.601562 67.375 -84.71875 C 64.894531 -87.84375 61.738281 -90.148438 57.90625 -91.640625 C 54.070312 -93.128906 49.957031 -93.875 45.5625 -93.875 C 39.882812 -93.875 34.703125 -92.8125 30.015625 -90.6875 C 25.898438 -88.550781 23.664062 -85.675781 23.3125 -82.0625 C 22.957031 -78.445312 23.414062 -75.21875 24.6875 -72.375 C 26.25 -68.832031 26.175781 -65.992188 24.46875 -63.859375 C 22.769531 -61.734375 20.71875 -60.671875 18.3125 -60.671875 C 16.320312 -60.671875 14.472656 -61.519531 12.765625 -63.21875 C 11.066406 -64.925781 10.144531 -67.695312 10 -71.53125 C 10 -72.945312 10.351562 -74.71875 11.0625 -76.84375 C 11.0625 -76.988281 11.0625 -77.0625 11.0625 -77.0625 C 11.0625 -77.0625 11.0625 -77.132812 11.0625 -77.28125 C 11.351562 -77.84375 11.566406 -78.335938 11.703125 -78.765625 C 11.847656 -79.328125 12.132812 -79.894531 12.5625 -80.46875 C 12.84375 -81.175781 13.125 -81.8125 13.40625 -82.375 C 13.695312 -82.945312 14.050781 -83.515625 14.46875 -84.078125 C 14.894531 -84.796875 15.320312 -85.398438 15.75 -85.890625 C 16.175781 -86.390625 16.601562 -86.921875 17.03125 -87.484375 C 17.175781 -87.628906 17.25 -87.703125 17.25 -87.703125 C 17.25 -87.703125 17.316406 -87.773438 17.453125 -87.921875 C 18.453125 -88.910156 19.234375 -89.617188 19.796875 -90.046875 C 23.628906 -93.304688 28.132812 -95.71875 33.3125 -97.28125 C 38.488281 -98.84375 43.707031 -99.625 48.96875 -99.625 C 55.207031 -99.625 61.09375 -98.59375 66.625 -96.53125 C 72.164062 -94.476562 76.707031 -91.460938 80.25 -87.484375 C 83.800781 -83.515625 85.578125 -78.550781 85.578125 -72.59375 L 85.578125 -33.84375 C 90.117188 -40.375 94.515625 -47.222656 98.765625 -54.390625 C 103.023438 -61.554688 107.710938 -68.332031 112.828125 -74.71875 L 112.828125 -75.578125 C 112.828125 -79.398438 112.578125 -82.128906 112.078125 -83.765625 C 111.578125 -85.398438 110.472656 -86.359375 108.765625 -86.640625 C 107.066406 -86.921875 104.515625 -87.0625 101.109375 -87.0625 C 100.117188 -87.0625 99.484375 -87.554688 99.203125 -88.546875 C 98.921875 -89.546875 99.628906 -90.257812 101.328125 -90.6875 C 105.296875 -91.820312 109.300781 -93.023438 113.34375 -94.296875 C 117.394531 -95.578125 121.195312 -97.070312 124.75 -98.78125 C 125.3125 -99.0625 125.875 -99.164062 126.4375 -99.09375 C 127.007812 -99.019531 127.296875 -98.628906 127.296875 -97.921875 L 127.296875 -88.765625 C 131.691406 -92.035156 136.585938 -94.660156 141.984375 -96.640625 C 147.378906 -98.628906 153.410156 -99.625 160.078125 -99.625 C 166.328125 -99.90625 172.253906 -99.015625 177.859375 -96.953125 C 183.460938 -94.898438 188.035156 -91.707031 191.578125 -87.375 C 195.128906 -83.050781 196.90625 -77.554688 196.90625 -70.890625 C 196.90625 -61.523438 196.90625 -52.125 196.90625 -42.6875 C 196.90625 -33.25 196.90625 -23.773438 196.90625 -14.265625 C 196.90625 -10.578125 197.507812 -8.054688 198.71875 -6.703125 C 199.925781 -5.359375 201.554688 -4.613281 203.609375 -4.46875 C 205.671875 -4.320312 207.910156 -4.039062 210.328125 -3.625 Z M 140.703125 -3.625 C 141.835938 -3.476562 142.367188 -2.835938 142.296875 -1.703125 C 142.234375 -0.566406 141.632812 0 140.5 0 L 99.625 0 C 98.488281 0 97.921875 -0.566406 97.921875 -1.703125 C 97.921875 -2.835938 98.414062 -3.476562 99.40625 -3.625 C 101.820312 -4.039062 104.019531 -4.320312 106 -4.46875 C 107.988281 -4.613281 109.625 -5.359375 110.90625 -6.703125 C 112.1875 -8.054688 112.828125 -10.578125 112.828125 -14.265625 L 112.828125 -56.84375 C 115.234375 -60.957031 117.785156 -64.785156 120.484375 -68.328125 C 121.765625 -69.890625 123.039062 -70.671875 124.3125 -70.671875 C 126.300781 -70.671875 127.296875 -69.109375 127.296875 -65.984375 L 127.296875 -14.265625 C 127.296875 -10.578125 127.898438 -8.054688 129.109375 -6.703125 C 130.316406 -5.359375 131.945312 -4.613281 134 -4.46875 C 136.0625 -4.320312 138.296875 -4.039062 140.703125 -3.625 Z M 71.09375 -16.8125 L 71.09375 -36.828125 C 67.976562 -41.367188 64.003906 -44.84375 59.171875 -47.25 C 54.347656 -49.664062 49.453125 -50.875 44.484375 -50.875 C 36.960938 -50.875 31.003906 -49.347656 26.609375 -46.296875 C 22.210938 -43.242188 19.300781 -39.445312 17.875 -34.90625 C 16.457031 -30.363281 16.421875 -25.785156 17.765625 -21.171875 C 19.117188 -16.566406 21.78125 -12.738281 25.75 -9.6875 C 29.726562 -6.632812 34.910156 -5.109375 41.296875 -5.109375 C 47.546875 -5.109375 53.082031 -6.171875 57.90625 -8.296875 C 62.726562 -10.429688 67.125 -13.269531 71.09375 -16.8125 Z M 90.265625 -3.625 C 91.398438 -3.625 92.035156 -3.125 92.171875 -2.125 C 92.316406 -1.132812 91.820312 -0.5 90.6875 -0.21875 C 88.550781 0.351562 86.207031 0.640625 83.65625 0.640625 C 81.382812 0.640625 79.253906 0.25 77.265625 -0.53125 C 75.285156 -1.3125 73.726562 -2.835938 72.59375 -5.109375 C 72.59375 -5.253906 73.160156 -5.859375 74.296875 -6.921875 C 75.429688 -7.984375 76.632812 -9.117188 77.90625 -10.328125 C 79.1875 -11.535156 79.96875 -12.28125 80.25 -12.5625 C 81.25 -13.550781 82.316406 -14.046875 83.453125 -14.046875 C 84.867188 -14.046875 85.578125 -13.195312 85.578125 -11.5 C 85.578125 -7.519531 85.859375 -5.210938 86.421875 -4.578125 C 86.992188 -3.941406 88.273438 -3.625 90.265625 -3.625 Z M 90.265625 -3.625 "/></g></g></g><g fill="#545454" fill-opacity="1"><g transform="translate(217.680223, 167.457541)"><g><path d="M 92.59375 -3.40625 C 93.726562 -3.40625 94.332031 -2.90625 94.40625 -1.90625 C 94.476562 -0.914062 93.945312 -0.28125 92.8125 0 C 90.257812 0.707031 87.773438 1.0625 85.359375 1.0625 C 81.816406 1.0625 78.625 0.210938 75.78125 -1.484375 C 72.945312 -3.191406 71.53125 -6.382812 71.53125 -11.0625 C 71.53125 -12.914062 71.53125 -14.726562 71.53125 -16.5 C 71.53125 -18.269531 71.53125 -20.007812 71.53125 -21.71875 C 69.113281 -15.332031 64.851562 -9.796875 58.75 -5.109375 C 52.644531 -0.421875 44.273438 1.921875 33.640625 1.921875 C 24.128906 1.921875 16.851562 -0.5625 11.8125 -5.53125 C 6.769531 -10.5 4.25 -16.035156 4.25 -22.140625 C 4.25 -28.523438 5.878906 -33.738281 9.140625 -37.78125 C 12.410156 -41.832031 16.5625 -44.957031 21.59375 -47.15625 C 26.632812 -49.351562 32.03125 -50.945312 37.78125 -51.9375 C 43.53125 -52.9375 48.957031 -53.578125 54.0625 -53.859375 C 59.03125 -54.140625 63.179688 -54.316406 66.515625 -54.390625 C 69.859375 -54.460938 71.53125 -54.851562 71.53125 -55.5625 C 71.53125 -58.394531 71.53125 -61.195312 71.53125 -63.96875 C 71.53125 -66.738281 71.53125 -69.539062 71.53125 -72.375 C 71.53125 -77.34375 70.285156 -81.382812 67.796875 -84.5 C 65.316406 -87.625 62.160156 -89.929688 58.328125 -91.421875 C 54.492188 -92.921875 50.378906 -93.671875 45.984375 -93.671875 C 40.304688 -93.671875 35.125 -92.601562 30.4375 -90.46875 C 26.1875 -88.34375 23.914062 -85.46875 23.625 -81.84375 C 23.34375 -78.226562 23.84375 -75.003906 25.125 -72.171875 C 26.675781 -68.617188 26.601562 -65.773438 24.90625 -63.640625 C 23.207031 -61.515625 21.148438 -60.453125 18.734375 -60.453125 C 16.742188 -60.453125 14.894531 -61.300781 13.1875 -63 C 11.488281 -64.707031 10.570312 -67.476562 10.4375 -71.3125 C 10.4375 -72.726562 10.789062 -74.503906 11.5 -76.640625 C 11.5 -76.773438 11.5 -76.84375 11.5 -76.84375 C 11.5 -76.84375 11.5 -76.914062 11.5 -77.0625 C 11.632812 -77.34375 11.738281 -77.585938 11.8125 -77.796875 C 11.882812 -78.015625 11.992188 -78.195312 12.140625 -78.34375 C 12.421875 -79.332031 12.804688 -80.320312 13.296875 -81.3125 C 13.796875 -82.3125 14.332031 -83.164062 14.90625 -83.875 C 15.332031 -84.582031 15.753906 -85.179688 16.171875 -85.671875 C 16.597656 -86.171875 17.023438 -86.707031 17.453125 -87.28125 C 17.597656 -87.414062 17.738281 -87.484375 17.875 -87.484375 C 18.164062 -88.054688 18.519531 -88.519531 18.9375 -88.875 C 19.363281 -89.226562 19.789062 -89.546875 20.21875 -89.828125 C 24.050781 -93.097656 28.554688 -95.507812 33.734375 -97.0625 C 38.921875 -98.625 44.140625 -99.40625 49.390625 -99.40625 C 55.628906 -99.40625 61.515625 -98.375 67.046875 -96.3125 C 72.585938 -94.257812 77.128906 -91.242188 80.671875 -87.265625 C 84.222656 -83.296875 86 -78.332031 86 -72.375 C 86 -63.007812 86 -53.253906 86 -43.109375 C 86 -32.960938 86 -23.132812 86 -13.625 C 86 -9.226562 86.601562 -6.425781 87.8125 -5.21875 C 89.019531 -4.007812 90.613281 -3.40625 92.59375 -3.40625 Z M 38.109375 -4.890625 C 41.367188 -4.890625 44.878906 -5.457031 48.640625 -6.59375 C 52.398438 -7.726562 55.984375 -9.75 59.390625 -12.65625 C 62.796875 -15.570312 65.632812 -19.546875 67.90625 -24.578125 C 70.175781 -29.617188 71.382812 -35.972656 71.53125 -43.640625 C 71.53125 -44.773438 71.53125 -45.910156 71.53125 -47.046875 C 71.53125 -48.179688 71.53125 -49.242188 71.53125 -50.234375 C 66.988281 -50.234375 61.804688 -49.984375 55.984375 -49.484375 C 50.171875 -48.992188 44.601562 -47.859375 39.28125 -46.078125 C 33.957031 -44.304688 29.554688 -41.503906 26.078125 -37.671875 C 22.597656 -33.847656 20.859375 -28.597656 20.859375 -21.921875 C 20.859375 -17.242188 22.421875 -13.234375 25.546875 -9.890625 C 28.671875 -6.554688 32.859375 -4.890625 38.109375 -4.890625 Z M 38.109375 -4.890625 "/></g></g></g><g fill="#545454" fill-opacity="1"><g transform="translate(316.466018, 167.457541)"><g/></g></g></g></g></svg>